<mxfile modified="2022-01-24T08:02:13.391Z" host="app.diagrams.net" agent="5.0 (Windows)" etag="z_rKYegyUs-jbJ69hbTJ" version="16.2.7" type="github">
  <diagram id="WI9T0HZ2pTsCkuznbFz-" name="Page-1">
    <mxGraphModel dx="2447" dy="509" grid="1" gridSize="10" guides="1" tooltips="1" connect="1" arrows="1" fold="1" page="1" pageScale="1" pageWidth="1169" pageHeight="827" background="none" math="0" shadow="0">
      <root>
        <mxCell id="0" />
        <mxCell id="1" parent="0" />
        <mxCell id="XeZ66hk8IlVMuvrCLhNz-3" value="" style="rounded=1;whiteSpace=wrap;html=1;shadow=0;glass=0;sketch=0;strokeColor=#36393d;fillColor=#f9f7ed;container=1;" vertex="1" parent="1">
          <mxGeometry x="140" y="170" width="620" height="319" as="geometry">
            <mxRectangle x="230" y="170" width="50" height="40" as="alternateBounds" />
          </mxGeometry>
        </mxCell>
        <mxCell id="RmzbV9Se9CzawkPMelnc-8" value="" style="sketch=0;aspect=fixed;html=1;points=[];align=center;image;fontSize=12;image=img/lib/mscae/Kubernetes.svg;fillColor=#7DCAEE;direction=west;" parent="XeZ66hk8IlVMuvrCLhNz-3" vertex="1">
          <mxGeometry x="323.68" y="28.669999999999998" width="32.64" height="31.33" as="geometry" />
        </mxCell>
        <mxCell id="1ZeLM8tSRtMM1lyIskZu-5" value="&lt;b&gt;&lt;font style=&quot;font-size: 11px&quot;&gt;AKS&lt;/font&gt;&lt;/b&gt;" style="text;html=1;align=center;verticalAlign=middle;resizable=0;points=[];autosize=1;strokeColor=none;fillColor=none;" parent="XeZ66hk8IlVMuvrCLhNz-3" vertex="1">
          <mxGeometry x="319.9981296170939" y="8.665757575757572" width="40" height="20" as="geometry" />
        </mxCell>
        <mxCell id="XeZ66hk8IlVMuvrCLhNz-35" value="&lt;font style=&quot;font-size: 19px&quot;&gt;&lt;b&gt;?&lt;/b&gt;&lt;/font&gt;" style="text;html=1;align=center;verticalAlign=middle;resizable=0;points=[];autosize=1;strokeColor=none;fillColor=none;fontSize=16;" vertex="1" parent="XeZ66hk8IlVMuvrCLhNz-3">
          <mxGeometry x="372.64" y="92.31" width="30" height="30" as="geometry" />
        </mxCell>
        <mxCell id="XeZ66hk8IlVMuvrCLhNz-18" value="" style="rounded=1;whiteSpace=wrap;html=1;shadow=0;glass=0;sketch=0;fontSize=14;strokeColor=#6c8ebf;fillColor=#dae8fc;container=1;" vertex="1" parent="XeZ66hk8IlVMuvrCLhNz-3">
          <mxGeometry x="42.64" y="60" width="310" height="150" as="geometry">
            <mxRectangle x="55" y="46.13636363636363" width="50" height="40" as="alternateBounds" />
          </mxGeometry>
        </mxCell>
        <mxCell id="RmzbV9Se9CzawkPMelnc-21" value="" style="shape=image;verticalLabelPosition=bottom;labelBackgroundColor=#ffffff;verticalAlign=top;aspect=fixed;imageAspect=0;image=data:image/svg+xml,PHN2ZyB4bWxuczpjYz0iaHR0cDovL2NyZWF0aXZlY29tbW9ucy5vcmcvbnMjIiB4bWxuczpkYz0iaHR0cDovL3B1cmwub3JnL2RjL2VsZW1lbnRzLzEuMS8iIHhtbG5zOmlua3NjYXBlPSJodHRwOi8vd3d3Lmlua3NjYXBlLm9yZy9uYW1lc3BhY2VzL2lua3NjYXBlIiB4bWxuczpyZGY9Imh0dHA6Ly93d3cudzMub3JnLzE5OTkvMDIvMjItcmRmLXN5bnRheC1ucyMiIHhtbG5zOnNvZGlwb2RpPSJodHRwOi8vc29kaXBvZGkuc291cmNlZm9yZ2UubmV0L0RURC9zb2RpcG9kaS0wLmR0ZCIgeG1sbnM6c3ZnPSJodHRwOi8vd3d3LnczLm9yZy8yMDAwL3N2ZyIgeG1sbnM9Imh0dHA6Ly93d3cudzMub3JnLzIwMDAvc3ZnIiB4bWxuczp4bGluaz0iaHR0cDovL3d3dy53My5vcmcvMTk5OS94bGluayIgdmVyc2lvbj0iMS4xIiBpZD0ic3ZnMTAyNzIyIiBpbmtzY2FwZTp2ZXJzaW9uPSIwLjkyLjMgKDI0MDU1NDYsIDIwMTgtMDMtMTEpIiBzb2RpcG9kaTpkb2NuYW1lPSJwb3N0Z3Jlc3FsLnN2ZyIgeD0iMHB4IiB5PSIwcHgiIHZpZXdCb3g9IjAgMCA0Ni4wMyA2MC40NyIgc3R5bGU9ImVuYWJsZS1iYWNrZ3JvdW5kOm5ldyAwIDAgNDYuMDMgNjAuNDc7IiB4bWw6c3BhY2U9InByZXNlcnZlIj4mI3hhOzxzb2RpcG9kaTpuYW1lZHZpZXcgYm9yZGVyY29sb3I9IiM2NjY2NjYiIGJvcmRlcm9wYWNpdHk9IjEiIGZpdC1tYXJnaW4tYm90dG9tPSIwIiBmaXQtbWFyZ2luLWxlZnQ9IjAiIGZpdC1tYXJnaW4tcmlnaHQ9IjAiIGZpdC1tYXJnaW4tdG9wPSIwIiBncmlkdG9sZXJhbmNlPSIxMCIgZ3VpZGV0b2xlcmFuY2U9IjEwIiBpZD0ibmFtZWR2aWV3MTAyNzI0IiBpbmtzY2FwZTpjdXJyZW50LWxheWVyPSJzdmcxMDI3MjIiIGlua3NjYXBlOmN4PSIzMC42ODk5ODMiIGlua3NjYXBlOmN5PSI0MC4zMTQ2NDUiIGlua3NjYXBlOnBhZ2VvcGFjaXR5PSIwIiBpbmtzY2FwZTpwYWdlc2hhZG93PSIyIiBpbmtzY2FwZTp3aW5kb3ctaGVpZ2h0PSIxMDE3IiBpbmtzY2FwZTp3aW5kb3ctbWF4aW1pemVkPSIxIiBpbmtzY2FwZTp3aW5kb3ctd2lkdGg9IjE5MjAiIGlua3NjYXBlOndpbmRvdy14PSItOCIgaW5rc2NhcGU6d2luZG93LXk9Ii04IiBpbmtzY2FwZTp6b29tPSIxMC40OTMzMTUiIG9iamVjdHRvbGVyYW5jZT0iMTAiIHBhZ2Vjb2xvcj0iI2ZmZmZmZiIgc2hvd2dyaWQ9ImZhbHNlIj4mI3hhOwk8L3NvZGlwb2RpOm5hbWVkdmlldz4mI3hhOzxnIGlkPSJnMTAyNzIwIiB0cmFuc2Zvcm09InRyYW5zbGF0ZSgtMC43NSwtMC43NTQ4KSI+JiN4YTsJPHRpdGxlIGlkPSJ0aXRsZTEwMjYwNSI+UGFnZS0xPC90aXRsZT4mI3hhOwk8ZyBpZD0iZ3JvdXAzNzA0LTEiIHRyYW5zZm9ybT0idHJhbnNsYXRlKDAuNzUsLTAuNzUpIj4mI3hhOwkJPHRpdGxlIGlkPSJ0aXRsZTEwMjYwNyI+UG9zdGdyZVNRTC42MzM8L3RpdGxlPiYjeGE7CQk8ZyBpZD0iZ3JvdXAzNzA1LTIiPiYjeGE7CQkJPHRpdGxlIGlkPSJ0aXRsZTEwMjYwOSI+Q0hlY2ttYXJrXzI8L3RpdGxlPiYjeGE7CQkJPGcgaWQ9InNoYXBlMzcwNi0zIj4mI3hhOwkJCQk8dGl0bGUgaWQ9InRpdGxlMTAyNjExIj5wYXRoMzY4NjwvdGl0bGU+JiN4YTsJCQkJPGcgaWQ9InNoYWRvdzM3MDYtNCI+JiN4YTsJCQkJPC9nPiYjeGE7CQkJCTxwYXRoIGlkPSJwYXRoMTAyNjE0IiBpbmtzY2FwZTpjb25uZWN0b3ItY3VydmF0dXJlPSIwIiBzdHlsZT0iZmlsbDojMzk5OEM1OyIgZD0iTTAsOS41NHY0NC4zMmMwLDQuNjYsMTAuMjgsOC4xMSwyMi44OCw4LjExICAgICAgVjkuNTRIMHoiLz4mI3hhOwkJCTwvZz4mI3hhOwkJCTxnIGlkPSJzaGFwZTM3MDctNiIgdHJhbnNmb3JtPSJ0cmFuc2xhdGUoMjIuODc5MykiPiYjeGE7CQkJCTx0aXRsZSBpZD0idGl0bGUxMDI2MTciPnBhdGgzNjg4PC90aXRsZT4mI3hhOwkJCQk8ZyBpZD0ic2hhZG93MzcwNy03Ij4mI3hhOwkJCQk8L2c+JiN4YTsJCQkJPHBhdGggaWQ9InBhdGgxMDI2MjAiIGlua3NjYXBlOmNvbm5lY3Rvci1jdXJ2YXR1cmU9IjAiIHN0eWxlPSJmaWxsOiM1OUIzRDg7IiBkPSJNMCw2MS45N2gwLjEyYzEyLjUyLDAsMjIuNzYtMy42NiwyMi43Ni04LjMxICAgICAgVjkuNTRIMFY2MS45N3oiLz4mI3hhOwkJCTwvZz4mI3hhOwkJCTxnIGlkPSJzaGFwZTM3MDgtOSIgdHJhbnNmb3JtPSJ0cmFuc2xhdGUoMCwtNDMuNzg1MikiPiYjeGE7CQkJCTx0aXRsZSBpZD0idGl0bGUxMDI2MjMiPnBhdGgzNjkwPC90aXRsZT4mI3hhOwkJCQk8ZyBpZD0ic2hhZG93MzcwOC0xMCI+JiN4YTsJCQkJPC9nPiYjeGE7CQkJCTxwYXRoIGlkPSJwYXRoMTAyNjI2IiBpbmtzY2FwZTpjb25uZWN0b3ItY3VydmF0dXJlPSIwIiBzdHlsZT0iZmlsbDojRkZGRkZGOyIgZD0iTTQ2LjAzLDUzLjY0YzAsNC41MS0xMC4zMSw4LjMzLTIyLjk1LDguMzMgICAgICBTMCw1OC4xNSwwLDUzLjY0YzAtNC41MiwxMC4zMS04LjM1LDIyLjk2LTguMzVDMzUuNiw0NS4yOSw0Ni4wMyw0OS4xLDQ2LjAzLDUzLjY0eiIvPiYjeGE7CQkJPC9nPiYjeGE7CQkJPGcgaWQ9InNoYXBlMzcwOS0xMiIgdHJhbnNmb3JtPSJ0cmFuc2xhdGUoNC42NjE2NSwtNDcuMDkzMikiPiYjeGE7CQkJCTx0aXRsZSBpZD0idGl0bGUxMDI2MjkiPnBhdGgzNjkyPC90aXRsZT4mI3hhOwkJCQk8ZyBpZD0ic2hhZG93MzcwOS0xMyI+JiN4YTsJCQkJPC9nPiYjeGE7CQkJCTxwYXRoIGlkPSJwYXRoMTAyNjMyIiBpbmtzY2FwZTpjb25uZWN0b3ItY3VydmF0dXJlPSIwIiBzdHlsZT0iZmlsbDojN0ZCOTAwOyIgZD0iTTM2LjcxLDU2LjQ1YzAsMy4wNy04LjIzLDUuNTItMTguMjksNS41MiAgICAgIEM4LjM1LDYxLjk3LDAsNTkuNTYsMCw1Ni40NXM4LjIzLTUuNTIsMTguMjktNS41MkMyOC4zNiw1MC45MywzNi43MSw1My4zOCwzNi43MSw1Ni40NXoiLz4mI3hhOwkJCTwvZz4mI3hhOwkJCTxnIGlkPSJzaGFwZTM3MTAtMTUiIHRyYW5zZm9ybT0idHJhbnNsYXRlKDQuNjYxNjUsLTQ5LjI5NTMpIj4mI3hhOwkJCQk8dGl0bGUgaWQ9InRpdGxlMTAyNjM1Ij5wYXRoMzY5NDwvdGl0bGU+JiN4YTsJCQkJPGcgaWQ9InNoYWRvdzM3MTAtMTYiPiYjeGE7CQkJCTwvZz4mI3hhOwkJCQk8cGF0aCBpZD0icGF0aDEwMjYzOCIgaW5rc2NhcGU6Y29ubmVjdG9yLWN1cnZhdHVyZT0iMCIgc3R5bGU9ImZpbGw6I0I3RDMzMjsiIGQ9Ik0zMi43OCw2MS45N2MyLjQ2LTAuOTYsMy44Mi0yLjA5LDMuODItMy4zMiAgICAgIGMwLTMuMDctOC4yMy01LjUyLTE4LjMtNS41MkM4LjI0LDUzLjEzLDAsNTUuNTgsMCw1OC42NWMwLDEuMjMsMS40OCwyLjQ2LDMuODEsMy4zMmMzLjMyLTEuMzYsOC41OC0yLjA5LDE0LjQ5LTIuMDkgICAgICBjNC45MS0wLjEsOS44MSwwLjYsMTQuNDksMi4wOUgzMi43OHoiLz4mI3hhOwkJCQk8cGF0aCBpZD0icGF0aDEwMjY0MCIgaW5rc2NhcGU6Y29ubmVjdG9yLWN1cnZhdHVyZT0iMCIgc3R5bGU9ImZpbGw6bm9uZTsiIGQ9Ik0zMi43OCw2MS45N2MyLjQ2LTAuOTYsMy44Mi0yLjA5LDMuODItMy4zMiAgICAgIGMwLTMuMDctOC4yMy01LjUyLTE4LjMtNS41MkM4LjI0LDUzLjEzLDAsNTUuNTgsMCw1OC42NWMwLDEuMjMsMS40OCwyLjQ2LDMuODEsMy4zMmMzLjMyLTEuMzYsOC41OC0yLjA5LDE0LjQ5LTIuMDkgICAgICBjNC45MS0wLjEsOS44MSwwLjYsMTQuNDksMi4wOSIvPiYjeGE7CQkJPC9nPiYjeGE7CQkJPGcgaWQ9Imdyb3VwMzcxMS0xOSIgdHJhbnNmb3JtPSJ0cmFuc2xhdGUoNy41NjkyMywtNy40NjQzNikiPiYjeGE7CQkJCTx0aXRsZSBpZD0idGl0bGUxMDI2NDMiPkxheWVyXzM8L3RpdGxlPiYjeGE7CQkJCTxnIGlkPSJzaGFwZTM3MTItMjAiIHRyYW5zZm9ybT0idHJhbnNsYXRlKDAuMDU3MTk4MikiPiYjeGE7CQkJCQk8dGl0bGUgaWQ9InRpdGxlMTAyNjQ1Ij5wYXRoMzY5NjwvdGl0bGU+JiN4YTsJCQkJCTxnIGlkPSJzaGFkb3czNzEyLTIxIj4mI3hhOwkJCQkJPC9nPiYjeGE7CQkJCQk8cGF0aCBpZD0icGF0aDEwMjY0OCIgaW5rc2NhcGU6Y29ubmVjdG9yLWN1cnZhdHVyZT0iMCIgc3R5bGU9ImZpbGw6IzMzNjc5MDsiIGQ9Ik0yOC4zMiw1MC4yM2MtMy42NSwwLjc2LTMuOTEtMC40OC0zLjkxLTAuNDggICAgICAgYzMuODItNS43Miw1LjQ4LTEzLDQuMDgtMTQuNzdjLTMuODEtNC44NS0xMC4zNy0yLjU1LTEwLjQ4LTIuNWMtMC44LTAuMTYtMS42Mi0wLjI1LTIuNDQtMC4yNmMtMS4zNy0wLjA2LTIuNzIsMC4zNS0zLjgyLDEuMTYgICAgICAgYzAsMC0xMS43NS00LjgyLTExLjI0LDYuMDhjMC4xMiwyLjMyLDMuMywxNy41NSw3LjEyLDEyLjk2YzEuNC0xLjY4LDIuNzQtMy4xMSwyLjc0LTMuMTFjMC42OCwwLjQ2LDEuNSwwLjY3LDIuMzIsMC41OSAgICAgICBsMC4wNy0wLjA2Yy0wLjAzLDAuMjItMC4wMywwLjQ0LDAsMC42NmMtMC45NiwxLjExLTAuNywxLjMtMi42NywxLjdjLTEuOTgsMC40LTAuODIsMS4xNC0wLjA2LDEuMzMgICAgICAgYzEuNjcsMC41NCwzLjQ5LTAuMDUsNC41Mi0xLjQ3bC0wLjA2LDAuMjNjMC4zOSwwLjMxLDAuNjYsMi4wMSwwLjYxLDMuNTZjLTAuMTMsMS4xNS0wLjA1LDIuMzEsMC4yMywzLjQzICAgICAgIGMwLjMsMC44MywwLjYxLDIuNjksMy4yLDIuMTRjMi4xNy0wLjQ3LDMuMjktMS42NywzLjQ0LTMuNjhjMC4xMS0xLjQyLDAuMzctMS4yMSwwLjM4LTIuNDhsMC4yMS0wLjYgICAgICAgYzAuMjItMS45MSwwLTIuNTYsMS4zNy0yLjI3aDAuMzJjMS4wMywwLjA0LDIuMDYtMC4xMywzLjAyLTAuNTFjMS42Mi0wLjc1LDIuNTktMi4wMSwwLjk2LTEuNjhMMjguMzIsNTAuMjN6Ii8+JiN4YTsJCQkJPC9nPiYjeGE7CQkJCTxnIGlkPSJzaGFwZTM3MTMtMjMiIHRyYW5zZm9ybT0idHJhbnNsYXRlKDE0LjcyODUsLTAuNDk1NzE4KSI+JiN4YTsJCQkJCTx0aXRsZSBpZD0idGl0bGUxMDI2NTEiPnBhdGgzNjk4PC90aXRsZT4mI3hhOwkJCQkJPGcgaWQ9InNoYWRvdzM3MTMtMjQiPiYjeGE7CQkJCQk8L2c+JiN4YTsJCQkJCTxwYXRoIGlkPSJwYXRoMTAyNjU0IiBpbmtzY2FwZTpjb25uZWN0b3ItY3VydmF0dXJlPSIwIiBzdHlsZT0iZmlsbDpub25lOyIgZD0iTTAuMSw1MS44M2MtMC4xLDMuNiwwLDcuMjIsMC4zOSw4LjEgICAgICAgYzAuMzcsMS41NCwxLjkyLDIuNDgsMy40NSwyLjExQzQuMDIsNjIuMDIsNC4xLDYyLDQuMTgsNjEuOTdjMi4xNy0wLjQ3LDIuOTYtMS4zNywzLjMtMy4zNWMwLjI1LTEuNDYsMC43NC01LjUxLDAuOC02LjM0ICAgICAgIEwwLjEsNTEuODN6Ii8+JiN4YTsJCQkJCSYjeGE7CQkJCQkJPHBhdGggaWQ9InBhdGgxMDI2NTYiIGlua3NjYXBlOmNvbm5lY3Rvci1jdXJ2YXR1cmU9IjAiIHN0eWxlPSJmaWxsOm5vbmU7c3Ryb2tlOiNGRkZGRkY7c3Ryb2tlLXdpZHRoOjAuNzY1O3N0cm9rZS1saW5lY2FwOnJvdW5kO3N0cm9rZS1saW5lam9pbjpyb3VuZDtzdHJva2UtbWl0ZXJsaW1pdDozOyIgZD0iICAgICAgIE0wLjEsNTEuODNjLTAuMSwzLjYsMCw3LjIyLDAuMzksOC4xYzAuMzcsMS41NCwxLjkyLDIuNDgsMy40NSwyLjExQzQuMDIsNjIuMDIsNC4xLDYyLDQuMTgsNjEuOTcgICAgICAgYzIuMTctMC40NywyLjk2LTEuMzcsMy4zLTMuMzVjMC4yNS0xLjQ2LDAuNzQtNS41MSwwLjgtNi4zNCIvPiYjeGE7CQkJCTwvZz4mI3hhOwkJCQk8ZyBpZD0ic2hhcGUzNzE0LTI3IiB0cmFuc2Zvcm09InRyYW5zbGF0ZSgwLC00Ljk5NTMxKSI+JiN4YTsJCQkJCTx0aXRsZSBpZD0idGl0bGUxMDI2NTkiPnBhdGgzNzAwPC90aXRsZT4mI3hhOwkJCQkJPGcgaWQ9InNoYWRvdzM3MTQtMjgiPiYjeGE7CQkJCQk8L2c+JiN4YTsJCQkJCTxwYXRoIGlkPSJwYXRoMTAyNjYyIiBpbmtzY2FwZTpjb25uZWN0b3ItY3VydmF0dXJlPSIwIiBzdHlsZT0iZmlsbDpub25lOyIgZD0iTTExLjc0LDM4LjI3YzAsMC0xMS43NC00Ljc3LTExLjE5LDYuMTEgICAgICAgYzAuMTEsMi4zNSwzLjMyLDE3LjU5LDcuMTMsMTIuOTVjMS40LTEuNjcsMi42Ni0zLDIuNjYtM0wxMS43NCwzOC4yN3oiLz4mI3hhOwkJCQkJJiN4YTsJCQkJCQk8cGF0aCBpZD0icGF0aDEwMjY2NCIgaW5rc2NhcGU6Y29ubmVjdG9yLWN1cnZhdHVyZT0iMCIgc3R5bGU9ImZpbGw6bm9uZTtzdHJva2U6I0ZGRkZGRjtzdHJva2Utd2lkdGg6MC43NjU7c3Ryb2tlLWxpbmVjYXA6cm91bmQ7c3Ryb2tlLWxpbmVqb2luOnJvdW5kO3N0cm9rZS1taXRlcmxpbWl0OjM7IiBkPSIgICAgICAgTTExLjc0LDM4LjI3YzAsMC0xMS43NC00Ljc3LTExLjE5LDYuMTFjMC4xMSwyLjM1LDMuMzIsMTcuNTksNy4xMywxMi45NWMxLjQtMS42NywyLjY2LTMsMi42Ni0zIi8+JiN4YTsJCQkJPC9nPiYjeGE7CQkJCTxnIGlkPSJzaGFwZTM3MTUtMzEiIHRyYW5zZm9ybT0idHJhbnNsYXRlKDE3LjY1NTIsLTEyLjI2OSkiPiYjeGE7CQkJCQk8dGl0bGUgaWQ9InRpdGxlMTAyNjY3Ij5wYXRoMzcwMjwvdGl0bGU+JiN4YTsJCQkJCTxnIGlkPSJzaGFkb3czNzE1LTMyIj4mI3hhOwkJCQkJPC9nPiYjeGE7CQkJCQk8cGF0aCBpZD0icGF0aDEwMjY3MCIgaW5rc2NhcGU6Y29ubmVjdG9yLWN1cnZhdHVyZT0iMCIgc3R5bGU9ImZpbGw6bm9uZTsiIGQ9Ik0wLjQxLDQ0LjdDMCw0NC44Myw2LjkzLDQyLjE3LDEwLjksNDcuMiAgICAgICBjMS4zOSwxLjc4LTAuMjIsOS4wNS00LjA4LDE0Ljc3TDAuNDEsNDQuN3oiLz4mI3hhOwkJCQkJJiN4YTsJCQkJCQk8cGF0aCBpZD0icGF0aDEwMjY3MiIgaW5rc2NhcGU6Y29ubmVjdG9yLWN1cnZhdHVyZT0iMCIgc3R5bGU9ImZpbGw6bm9uZTtzdHJva2U6I0ZGRkZGRjtzdHJva2Utd2lkdGg6MC43NjU7c3Ryb2tlLWxpbmVjYXA6cm91bmQ7c3Ryb2tlLWxpbmVqb2luOnJvdW5kO3N0cm9rZS1taXRlcmxpbWl0OjM7IiBkPSIgICAgICAgTTAuNDEsNDQuN0MwLDQ0LjgzLDYuOTMsNDIuMTcsMTAuOSw0Ny4yYzEuMzksMS43OC0wLjIyLDkuMDUtNC4wOCwxNC43NyIvPiYjeGE7CQkJCTwvZz4mI3hhOwkJCQk8ZyBpZD0ic2hhcGUzNzE2LTM1IiB0cmFuc2Zvcm09InRyYW5zbGF0ZSg4LjU0MTU5LC05LjMzMjg0KSI+JiN4YTsJCQkJCTx0aXRsZSBpZD0idGl0bGUxMDI2NzUiPnBhdGgzNzA0PC90aXRsZT4mI3hhOwkJCQkJPGcgaWQ9InNoYWRvdzM3MTYtMzYiPiYjeGE7CQkJCQk8L2c+JiN4YTsJCQkJCTxwYXRoIGlkPSJwYXRoMTAyNjc4IiBpbmtzY2FwZTpjb25uZWN0b3ItY3VydmF0dXJlPSIwIiBzdHlsZT0iZmlsbDpub25lOyIgZD0iTTE1LjkxLDU5LjAzYzAsMCwwLjI1LDEuMjQsMy45MSwwLjQ5ICAgICAgIGMxLjYtMC4zMywwLjY0LDAuOTUtMC45NSwxLjY4Yy0xLjM0LDAuNjItNC4zMiwwLjc3LTQuMzctMC4wOGMtMC4xMi0yLjIsMS41Ny0xLjU0LDEuNDUtMi4wOWMtMC4xMy0wLjU1LTAuODctMC45NS0xLjM3LTIuMiAgICAgICBjLTAuNDQtMS4wNi02LjAyLTkuMjEsMS41NC04YzAuMjgtMC4wNi0xLjk3LTcuMTktOS4wNS03LjNDMCw0MS40MSwwLjIsNTAuMjMsMC4yLDUwLjIzTDE1LjkxLDU5LjAzeiIvPiYjeGE7CQkJCQkmI3hhOwkJCQkJCTxwYXRoIGlkPSJwYXRoMTAyNjgwIiBpbmtzY2FwZTpjb25uZWN0b3ItY3VydmF0dXJlPSIwIiBzdHlsZT0iZmlsbDpub25lO3N0cm9rZTojRkZGRkZGO3N0cm9rZS13aWR0aDowLjc2NTtzdHJva2UtbGluZWNhcDpyb3VuZDtzdHJva2UtbGluZWpvaW46cm91bmQ7c3Ryb2tlLW1pdGVybGltaXQ6MzsiIGQ9IiAgICAgICBNMTUuOTEsNTkuMDNjMCwwLDAuMjUsMS4yNCwzLjkxLDAuNDljMS42LTAuMzMsMC42NCwwLjk1LTAuOTUsMS42OGMtMS4zNCwwLjYyLTQuMzIsMC43Ny00LjM3LTAuMDggICAgICAgYy0wLjEyLTIuMiwxLjU3LTEuNTQsMS40NS0yLjA5Yy0wLjEzLTAuNTUtMC44Ny0wLjk1LTEuMzctMi4yYy0wLjQ0LTEuMDYtNi4wMi05LjIxLDEuNTQtOGMwLjI4LTAuMDYtMS45Ny03LjE5LTkuMDUtNy4zICAgICAgIEMwLDQxLjQxLDAuMiw1MC4yMywwLjIsNTAuMjMiLz4mI3hhOwkJCQk8L2c+JiN4YTsJCQkJPGcgaWQ9InNoYXBlMzcxNy0zOSIgdHJhbnNmb3JtPSJ0cmFuc2xhdGUoOC4yMTc0NywtOC41MDM0NikiPiYjeGE7CQkJCQk8dGl0bGUgaWQ9InRpdGxlMTAyNjgzIj5wYXRoMzcwNjwvdGl0bGU+JiN4YTsJCQkJCTxnIGlkPSJzaGFkb3czNzE3LTQwIj4mI3hhOwkJCQkJPC9nPiYjeGE7CQkJCQkmI3hhOwkJCQkJCTxwYXRoIGlkPSJwYXRoMTAyNjg2IiBpbmtzY2FwZTpjb25uZWN0b3ItY3VydmF0dXJlPSIwIiBzdHlsZT0iZmlsbDpub25lO3N0cm9rZTojRkZGRkZGO3N0cm9rZS13aWR0aDowLjc2NTtzdHJva2UtbGluZWNhcDpyb3VuZDtzdHJva2UtbGluZWpvaW46cm91bmQ7c3Ryb2tlLW1pdGVybGltaXQ6MzsiIGQ9IiAgICAgICBNNC42NCw1OC45NGMtMC45NSwxLjEtMC42OSwxLjI5LTIuNjcsMS42OWMtMS45NywwLjQtMC44MiwxLjE1LTAuMDUsMS4zNGMxLjY2LDAuNTMsMy40OC0wLjA2LDQuNTEtMS40NyAgICAgICBjMC4zNS0wLjY2LDAuMS0xLjQ4LTAuNTYtMS44M0g1LjgyYy0wLjQxLTAuMjMtMC45My0wLjExLTEuMTksMC4yOUw0LjY0LDU4Ljk0eiIvPiYjeGE7CQkJCTwvZz4mI3hhOwkJCQk8ZyBpZD0ic2hhcGUzNzE4LTQyIiB0cmFuc2Zvcm09InRyYW5zbGF0ZSg4LjYzNjkyLC0xMS41MzUpIj4mI3hhOwkJCQkJPHRpdGxlIGlkPSJ0aXRsZTEwMjY4OSI+cGF0aDM3MDg8L3RpdGxlPiYjeGE7CQkJCQk8ZyBpZD0ic2hhZG93MzcxOC00MyI+JiN4YTsJCQkJCTwvZz4mI3hhOwkJCQkJPHBhdGggaWQ9InBhdGgxMDI2OTIiIGlua3NjYXBlOmNvbm5lY3Rvci1jdXJ2YXR1cmU9IjAiIHN0eWxlPSJmaWxsOm5vbmU7IiBkPSJNNC4xNiw2MS45N2MwLTAuOCwwLjE4LTEuNiwwLjU0LTIuMzIgICAgICAgYzAuNTEtMS4zNSwxLjY2LTIuNzEsMC43My03Yy0wLjY5LTMuMTktNS4zMy0wLjY2LTUuMzMtMC4yMmMwLjExLDEuNDIsMC4wNywyLjg0LTAuMSw0LjI1Yy0wLjQsMi4xOCwxLjA0LDQuMjYsMy4yMiw0LjY2ICAgICAgIGMwLjI5LDAuMDUsMC41OSwwLjA3LDAuODgsMC4wNkw0LjE2LDYxLjk3eiIvPiYjeGE7CQkJCQkmI3hhOwkJCQkJCTxwYXRoIGlkPSJwYXRoMTAyNjk0IiBpbmtzY2FwZTpjb25uZWN0b3ItY3VydmF0dXJlPSIwIiBzdHlsZT0iZmlsbDpub25lO3N0cm9rZTojRkZGRkZGO3N0cm9rZS13aWR0aDowLjc2NTtzdHJva2UtbGluZWNhcDpyb3VuZDtzdHJva2UtbGluZWpvaW46cm91bmQ7c3Ryb2tlLW1pdGVybGltaXQ6MzsiIGQ9IiAgICAgICBNNC4xNiw2MS45N2MwLTAuOCwwLjE4LTEuNiwwLjU0LTIuMzJjMC41MS0xLjM1LDEuNjYtMi43MSwwLjczLTdjLTAuNjktMy4xOS01LjMzLTAuNjYtNS4zMy0wLjIyICAgICAgIGMwLjExLDEuNDIsMC4wNywyLjg0LTAuMSw0LjI1Yy0wLjQsMi4xOCwxLjA0LDQuMjYsMy4yMiw0LjY2YzAuMjksMC4wNSwwLjU5LDAuMDcsMC44OCwwLjA2Ii8+JiN4YTsJCQkJPC9nPiYjeGE7CQkJCTxnIGlkPSJzaGFwZTM3MTktNDYiIHRyYW5zZm9ybT0idHJhbnNsYXRlKDExLjY4NzUsLTIwLjU0MzcpIj4mI3hhOwkJCQkJPHRpdGxlIGlkPSJ0aXRsZTEwMjY5NyI+cGF0aDM3MTA8L3RpdGxlPiYjeGE7CQkJCQk8ZyBpZD0ic2hhZG93MzcxOS00NyI+JiN4YTsJCQkJCTwvZz4mI3hhOwkJCQkJJiN4YTsJCQkJCQk8cGF0aCBpZD0icGF0aDEwMjcwMCIgaW5rc2NhcGU6Y29ubmVjdG9yLWN1cnZhdHVyZT0iMCIgc3R5bGU9ImZpbGw6I0ZGRkZGRjtzdHJva2U6I0ZGRkZGRjtzdHJva2Utd2lkdGg6MC40MTI1O3N0cm9rZS1saW5lY2FwOnNxdWFyZTtzdHJva2UtbWl0ZXJsaW1pdDozOyIgZD0iICAgICAgIE0wLDYxLjM3YzAsMC4xNSwwLjI4LDAuNTQsMC42NSwwLjZjMC4zLDAuMDQsMC41OS0wLjEyLDAuNzItMC40YzAtMC4xNS0wLjI3LTAuMzItMC42NS0wLjM2Yy0wLjM3LTAuMDUtMC43LDAtMC43MiwwLjE3VjYxLjM3ICAgICAgIHoiLz4mI3hhOwkJCQk8L2c+JiN4YTsJCQkJPGcgaWQ9InNoYXBlMzcyMC00OSIgdHJhbnNmb3JtPSJ0cmFuc2xhdGUoMjEuODk3NCwtMjAuODQ4NykiPiYjeGE7CQkJCQk8dGl0bGUgaWQ9InRpdGxlMTAyNzAzIj5wYXRoMzcxMjwvdGl0bGU+JiN4YTsJCQkJCTxnIGlkPSJzaGFkb3czNzIwLTUwIj4mI3hhOwkJCQkJPC9nPiYjeGE7CQkJCQkmI3hhOwkJCQkJCTxwYXRoIGlkPSJwYXRoMTAyNzA2IiBpbmtzY2FwZTpjb25uZWN0b3ItY3VydmF0dXJlPSIwIiBzdHlsZT0iZmlsbDojRkZGRkZGO3N0cm9rZTojRkZGRkZGO3N0cm9rZS13aWR0aDowLjIxO3N0cm9rZS1saW5lY2FwOnNxdWFyZTtzdHJva2UtbWl0ZXJsaW1pdDozOyIgZD0iICAgICAgIE0xLjM3LDYxLjM3YzAsMC4xNS0wLjI3LDAuNTQtMC42NSwwLjZjLTAuMywwLjA0LTAuNTktMC4xMi0wLjcyLTAuNGMwLTAuMTUsMC4yOC0wLjMyLDAuNjUtMC4zNiAgICAgICBDMS4wMiw2MS4xNiwxLjM1LDYxLjIxLDEuMzcsNjEuMzdMMS4zNyw2MS4zN3oiLz4mI3hhOwkJCQk8L2c+JiN4YTsJCQkJPGcgaWQ9InNoYXBlMzcyMS01MiIgdHJhbnNmb3JtPSJ0cmFuc2xhdGUoMjMuODEzNSwtMTMuMzY1MykiPiYjeGE7CQkJCQk8dGl0bGUgaWQ9InRpdGxlMTAyNzA5Ij5wYXRoMzcxNDwvdGl0bGU+JiN4YTsJCQkJCTxnIGlkPSJzaGFkb3czNzIxLTUzIj4mI3hhOwkJCQkJPC9nPiYjeGE7CQkJCQk8cGF0aCBpZD0icGF0aDEwMjcxMiIgaW5rc2NhcGU6Y29ubmVjdG9yLWN1cnZhdHVyZT0iMCIgc3R5bGU9ImZpbGw6bm9uZTsiIGQ9Ik0wLjgxLDUyLjg2YzAuMDcsMS4xNy0wLjI1LDEuOTEtMC4yOSwzLjIgICAgICAgYy0wLjA1LDEuOCwwLjg2LDMuODEtMC41Miw1LjkxTDAuODEsNTIuODZ6Ii8+JiN4YTsJCQkJCSYjeGE7CQkJCQkJPHBhdGggaWQ9InBhdGgxMDI3MTQiIGlua3NjYXBlOmNvbm5lY3Rvci1jdXJ2YXR1cmU9IjAiIHN0eWxlPSJmaWxsOm5vbmU7c3Ryb2tlOiNGRkZGRkY7c3Ryb2tlLXdpZHRoOjAuNzY1O3N0cm9rZS1saW5lY2FwOnJvdW5kO3N0cm9rZS1saW5lam9pbjpyb3VuZDtzdHJva2UtbWl0ZXJsaW1pdDozOyIgZD0iICAgICAgIE0wLjgxLDUyLjg2YzAuMDcsMS4xNy0wLjI1LDEuOTEtMC4yOSwzLjJjLTAuMDUsMS44LDAuODYsMy44MS0wLjUyLDUuOTEiLz4mI3hhOwkJCQk8L2c+JiN4YTsJCQk8L2c+JiN4YTsJCTwvZz4mI3hhOwk8L2c+JiN4YTs8L2c+JiN4YTs8L3N2Zz4=;fillColor=#7DCAEE;" parent="XeZ66hk8IlVMuvrCLhNz-18" vertex="1">
          <mxGeometry x="239.9" y="36.87963362068966" width="40.54" height="52.88" as="geometry" />
        </mxCell>
        <mxCell id="1ZeLM8tSRtMM1lyIskZu-20" value="" style="shape=image;verticalLabelPosition=bottom;labelBackgroundColor=#ffffff;verticalAlign=top;aspect=fixed;imageAspect=0;image=data:image/svg+xml,PHN2ZyB4bWxuczpjYz0iaHR0cDovL2NyZWF0aXZlY29tbW9ucy5vcmcvbnMjIiB4bWxuczpkYz0iaHR0cDovL3B1cmwub3JnL2RjL2VsZW1lbnRzLzEuMS8iIHhtbG5zOmlua3NjYXBlPSJodHRwOi8vd3d3Lmlua3NjYXBlLm9yZy9uYW1lc3BhY2VzL2lua3NjYXBlIiB4bWxuczpyZGY9Imh0dHA6Ly93d3cudzMub3JnLzE5OTkvMDIvMjItcmRmLXN5bnRheC1ucyMiIHhtbG5zOnNvZGlwb2RpPSJodHRwOi8vc29kaXBvZGkuc291cmNlZm9yZ2UubmV0L0RURC9zb2RpcG9kaS0wLmR0ZCIgeG1sbnM6c3ZnPSJodHRwOi8vd3d3LnczLm9yZy8yMDAwL3N2ZyIgeG1sbnM9Imh0dHA6Ly93d3cudzMub3JnLzIwMDAvc3ZnIiB4bWxuczp4bGluaz0iaHR0cDovL3d3dy53My5vcmcvMTk5OS94bGluayIgdmVyc2lvbj0iMS4xIiBpZD0ic3ZnNDI1NDMiIGlua3NjYXBlOnZlcnNpb249IjAuOTIuMyAoMjQwNTU0NiwgMjAxOC0wMy0xMSkiIHNvZGlwb2RpOmRvY25hbWU9ImV4Y2VsLnN2ZyIgeD0iMHB4IiB5PSIwcHgiIHZpZXdCb3g9IjAgMCAyOC43NSAzNy40NCIgc3R5bGU9ImVuYWJsZS1iYWNrZ3JvdW5kOm5ldyAwIDAgMjguNzUgMzcuNDQ7IiB4bWw6c3BhY2U9InByZXNlcnZlIj4mI3hhOzxzb2RpcG9kaTpuYW1lZHZpZXcgYm9yZGVyY29sb3I9IiM2NjY2NjYiIGJvcmRlcm9wYWNpdHk9IjEiIGZpdC1tYXJnaW4tYm90dG9tPSIwIiBmaXQtbWFyZ2luLWxlZnQ9IjAiIGZpdC1tYXJnaW4tcmlnaHQ9IjAiIGZpdC1tYXJnaW4tdG9wPSIwIiBncmlkdG9sZXJhbmNlPSIxMCIgZ3VpZGV0b2xlcmFuY2U9IjEwIiBpZD0ibmFtZWR2aWV3NDI1NDUiIGlua3NjYXBlOmN1cnJlbnQtbGF5ZXI9InN2ZzQyNTQzIiBpbmtzY2FwZTpjeD0iMTkuMTY5MjY5IiBpbmtzY2FwZTpjeT0iMjQuOTU5MTM4IiBpbmtzY2FwZTpwYWdlb3BhY2l0eT0iMCIgaW5rc2NhcGU6cGFnZXNoYWRvdz0iMiIgaW5rc2NhcGU6d2luZG93LWhlaWdodD0iMTAxNyIgaW5rc2NhcGU6d2luZG93LW1heGltaXplZD0iMSIgaW5rc2NhcGU6d2luZG93LXdpZHRoPSIxOTIwIiBpbmtzY2FwZTp3aW5kb3cteD0iLTgiIGlua3NjYXBlOndpbmRvdy15PSItOCIgaW5rc2NhcGU6em9vbT0iMTAuOTY0NjczIiBvYmplY3R0b2xlcmFuY2U9IjEwIiBwYWdlY29sb3I9IiNmZmZmZmYiIHNob3dncmlkPSJmYWxzZSI+JiN4YTsJPC9zb2RpcG9kaTpuYW1lZHZpZXc+JiN4YTs8ZyBpZD0iZzQyNTQxIiB0cmFuc2Zvcm09InRyYW5zbGF0ZSgtMTAuOTI4NiwtMTAuOTMxNCkiPiYjeGE7CTx0aXRsZSBpZD0idGl0bGU0MjQ5NSI+UGFnZS0xPC90aXRsZT4mI3hhOwk8ZyBpZD0iZ3JvdXA0MDM3LTEiIHRyYW5zZm9ybT0idHJhbnNsYXRlKDEwLjkyODYsLTEwLjkyODYpIj4mI3hhOwkJPHRpdGxlIGlkPSJ0aXRsZTQyNDk3Ij5FeGNlbDwvdGl0bGU+JiN4YTsJCTxnIGlkPSJncm91cDQwMzgtMiI+JiN4YTsJCQk8dGl0bGUgaWQ9InRpdGxlNDI0OTkiPlNoZWV0LjQwMzg8L3RpdGxlPiYjeGE7CQkJPGcgaWQ9InNoYXBlNDAzOS0zIj4mI3hhOwkJCQk8dGl0bGUgaWQ9InRpdGxlNDI1MDEiPlNoZWV0LjQwMzk8L3RpdGxlPiYjeGE7CQkJCTxwYXRoIGlkPSJwYXRoNDI1MDMiIGlua3NjYXBlOmNvbm5lY3Rvci1jdXJ2YXR1cmU9IjAiIHN0eWxlPSJmaWxsOiNFOUU5RTA7IiBkPSJNMjAuMzksMjEuODZIMC45OEMwLjQ0LDIxLjg2LDAsMjIuMywwLDIzLjE1ICAgICAgdjM1LjQ5YzAsMC4yMywwLjQ0LDAuNjYsMC45OCwwLjY2aDI2LjhjMC41NCwwLDAuOTctMC40MywwLjk3LTAuNjZ2LTI4LjFjMC0wLjQ3LTAuMDYtMC42Mi0wLjE3LTAuNzNsLTcuNzgtNy43OCAgICAgIEMyMC42OSwyMS45MiwyMC41NCwyMS44NiwyMC4zOSwyMS44NnoiLz4mI3hhOwkJCTwvZz4mI3hhOwkJCTxnIGlkPSJzaGFwZTQwNDAtNSIgdHJhbnNmb3JtPSJ0cmFuc2xhdGUoMjAuNzI5NiwtMjkuNDIyNikiPiYjeGE7CQkJCTx0aXRsZSBpZD0idGl0bGU0MjUwNiI+U2hlZXQuNDA0MDwvdGl0bGU+JiN4YTsJCQkJPHBhdGggaWQ9InBhdGg0MjUwOCIgaW5rc2NhcGU6Y29ubmVjdG9yLWN1cnZhdHVyZT0iMCIgc3R5bGU9ImZpbGw6I0Q5RDdDQTsiIGQ9Ik0wLDUxLjM4djcuOTJoNy45MkwwLDUxLjM4eiIvPiYjeGE7CQkJPC9nPiYjeGE7CQkJPGcgaWQ9InNoYXBlNDA0MS03Ij4mI3hhOwkJCQk8dGl0bGUgaWQ9InRpdGxlNDI1MTEiPlNoZWV0LjQwNDE8L3RpdGxlPiYjeGE7CQkJCTxwYXRoIGlkPSJwYXRoNDI1MTMiIGlua3NjYXBlOmNvbm5lY3Rvci1jdXJ2YXR1cmU9IjAiIHN0eWxlPSJmaWxsOiM5REJCNjE7IiBkPSJNMjcuNzgsNTkuM0gwLjk4QzAuNDQsNTkuMywwLDU4Ljg3LDAsNTguMzMgICAgICBWNDcuOTRoMjguNzV2MTAuMzlDMjguNzUsNTguODcsMjguMzIsNTkuMywyNy43OCw1OS4zeiIvPiYjeGE7CQkJPC9nPiYjeGE7CQkJPGcgaWQ9Imdyb3VwNDA0Mi05IiB0cmFuc2Zvcm09InRyYW5zbGF0ZSg2LjAyNjI5LC0xLjk2OTk4KSI+JiN4YTsJCQkJPHRpdGxlIGlkPSJ0aXRsZTQyNTE2Ij5TaGVldC40MDQyPC90aXRsZT4mI3hhOwkJCQk8ZyBpZD0ic2hhcGU0MDQzLTEwIiB0cmFuc2Zvcm09InRyYW5zbGF0ZSgwLC0wLjAzNjEwOTYpIj4mI3hhOwkJCQkJPHRpdGxlIGlkPSJ0aXRsZTQyNTE4Ij5TaGVldC40MDQzPC90aXRsZT4mI3hhOwkJCQkJPHBhdGggaWQ9InBhdGg0MjUyMCIgaW5rc2NhcGU6Y29ubmVjdG9yLWN1cnZhdHVyZT0iMCIgc3R5bGU9ImZpbGw6I0ZGRkZGRjsiIGQ9Ik0zLjI1LDU2LjAzbDEuNzEsMy4yN0gzLjY5bC0xLjA3LTIuNTRIMi41MyAgICAgICBMMS4zOCw1OS4zSDAuMTFsMS43MS0zLjI3TDAsNTIuNTdoMS4yNWwxLjE5LDIuNzRoMC4wOWwxLjI5LTIuNzRoMS4yNUwzLjI1LDU2LjAzeiIvPiYjeGE7CQkJCTwvZz4mI3hhOwkJCQk8ZyBpZD0ic2hhcGU0MDQ0LTEyIiB0cmFuc2Zvcm09InRyYW5zbGF0ZSg2LjU5MTM0LC0wLjAzNjEwOTYpIj4mI3hhOwkJCQkJPHRpdGxlIGlkPSJ0aXRsZTQyNTIzIj5TaGVldC40MDQ0PC90aXRsZT4mI3hhOwkJCQkJPHBhdGggaWQ9InBhdGg0MjUyNSIgaW5rc2NhcGU6Y29ubmVjdG9yLWN1cnZhdHVyZT0iMCIgc3R5bGU9ImZpbGw6I0ZGRkZGRjsiIGQ9Ik0xLjEyLDUyLjU3djUuOWgzLjA5djAuODNIMHYtNi43M0gxLjEyeiIvPiYjeGE7CQkJCTwvZz4mI3hhOwkJCQk8ZyBpZD0ic2hhcGU0MDQ1LTE0IiB0cmFuc2Zvcm09InRyYW5zbGF0ZSgxMS44MjA1KSI+JiN4YTsJCQkJCTx0aXRsZSBpZD0idGl0bGU0MjUyOCI+U2hlZXQuNDA0NTwvdGl0bGU+JiN4YTsJCQkJCTxwYXRoIGlkPSJwYXRoNDI1MzAiIGlua3NjYXBlOmNvbm5lY3Rvci1jdXJ2YXR1cmU9IjAiIHN0eWxlPSJmaWxsOiNGRkZGRkY7IiBkPSJNMy45MSw1Ny40MmMwLDAuMjQtMC4wNSwwLjQ4LTAuMTUsMC43MSAgICAgICBjLTAuMSwwLjIzLTAuMjQsMC40My0wLjQyLDAuNmMtMC4xOSwwLjE4LTAuNDEsMC4zMi0wLjY4LDAuNDJTMi4wOSw1OS4zLDEuNzUsNTkuM2MtMC4xNSwwLTAuMywwLTAuNDYtMC4wMiAgICAgICBjLTAuMTUtMC4wMS0wLjMxLTAuMDQtMC40Ny0wLjA4Yy0wLjE2LTAuMDMtMC4zMS0wLjA4LTAuNDUtMC4xNUMwLjIzLDU4Ljk5LDAuMSw1OC45MSwwLDU4LjgybDAuMTktMC43OSAgICAgICBjMC4wOSwwLjA1LDAuMiwwLjEsMC4zMywwLjE0YzAuMTMsMC4wNSwwLjI2LDAuMDksMC40LDAuMTNzMC4yOCwwLjA3LDAuNDIsMC4xYzAuMTQsMC4wMiwwLjI3LDAuMDQsMC40LDAuMDQgICAgICAgYzAuMzcsMCwwLjY1LTAuMDksMC44NS0wLjI3YzAuMi0wLjE3LDAuMy0wLjQzLDAuMy0wLjc3YzAtMC4yLTAuMDctMC4zOC0wLjIxLTAuNTNjLTAuMTQtMC4xNC0wLjMyLTAuMjgtMC41My0wLjQgICAgICAgYy0wLjIxLTAuMTEtMC40My0wLjIzLTAuNjgtMC4zNUMxLjIzLDU2LDEsNTUuODYsMC43OSw1NS43Yy0wLjIyLTAuMTYtMC4zOS0wLjM1LTAuNTMtMC41N2MtMC4xNC0wLjIyLTAuMjEtMC41LTAuMjEtMC44MyAgICAgICBjMC0wLjI5LDAuMDUtMC41NiwwLjE2LTAuNzlzMC4yNi0wLjQzLDAuNDQtMC41OWMwLjE5LTAuMTYsMC40MS0wLjI5LDAuNjUtMC4zN2MwLjI1LTAuMDksMC41MS0wLjEzLDAuNzgtMC4xMyAgICAgICBjMC4yOCwwLDAuNTcsMC4wMywwLjg1LDAuMDhjMC4yOSwwLjA1LDAuNTIsMC4xMywwLjcsMC4yNWMtMC4wNCwwLjA4LTAuMDgsMC4xNy0wLjEzLDAuMjZjLTAuMDUsMC4xLTAuMDksMC4xOC0wLjE0LDAuMjcgICAgICAgYy0wLjA0LDAuMDgtMC4wOCwwLjE1LTAuMTEsMC4yYy0wLjAzLDAuMDYtMC4wNCwwLjA5LTAuMDUsMC4wOWMtMC4wNC0wLjAyLTAuMDgtMC4wNC0wLjEyLTAuMDdjLTAuMDUtMC4wMy0wLjEyLTAuMDYtMC4yLTAuMDkgICAgICAgYy0wLjA5LTAuMDMtMC4yLTAuMDUtMC4zNC0wLjA3QzIuNCw1My4zMywyLjIyLDUzLjMzLDIsNTMuMzVjLTAuMTIsMC4wMi0wLjI0LDAuMDUtMC4zNSwwLjExYy0wLjExLDAuMDYtMC4yLDAuMTMtMC4yOSwwLjIxICAgICAgIGMtMC4wOCwwLjA5LTAuMTUsMC4xOC0wLjIsMC4yOWMtMC4wNSwwLjExLTAuMDcsMC4yMS0wLjA3LDAuMzFjMCwwLjI0LDAuMDcsMC40NCwwLjIxLDAuNTlzMC4zMSwwLjI4LDAuNTIsMC4zOSAgICAgICBjMC4yLDAuMTEsMC40MywwLjIyLDAuNjcsMC4zM2MwLjI1LDAuMTEsMC40NywwLjI0LDAuNjksMC4zOWMwLjIxLDAuMTUsMC4zOCwwLjM0LDAuNTIsMC41N1MzLjkxLDU3LjA2LDMuOTEsNTcuNDJ6Ii8+JiN4YTsJCQkJPC9nPiYjeGE7CQkJPC9nPiYjeGE7CQkJPGcgaWQ9InNoYXBlNDA0Ni0xNiIgdHJhbnNmb3JtPSJ0cmFuc2xhdGUoMy4zNDM0OCwtMTQuNzExMykiPiYjeGE7CQkJCTx0aXRsZSBpZD0idGl0bGU0MjUzNCI+U2hlZXQuNDA0NjwvdGl0bGU+JiN4YTsJCQkJPHBhdGggaWQ9InBhdGg0MjUzNiIgaW5rc2NhcGU6Y29ubmVjdG9yLWN1cnZhdHVyZT0iMCIgc3R5bGU9ImZpbGw6I0M4QkRCODsiIGQ9Ik04LjAyLDQ3LjI3di0yLjY4SDB2Mi42OHYxLjMzdjEuMzR2MS4zNHYxLjM0ICAgICAgdjEuMzN2MS4zNHYxLjM0djIuNjdoNi42OWgxLjMzaDE0LjA1di0yLjY3di0xLjM0di0xLjM0di0xLjMzdi0xLjM0di0xLjM0di0yLjY3SDguMDJ6IE0xLjM0LDQ1LjkzaDUuMzV2MS4zNEgxLjM0VjQ1LjkzeiAgICAgICBNMS4zNCw0OC42aDUuMzV2MS4zNEgxLjM0VjQ4LjZ6IE0xLjM0LDUxLjI4aDUuMzV2MS4zNEgxLjM0VjUxLjI4eiBNMS4zNCw1My45NWg1LjM1djEuMzRIMS4zNFY1My45NXogTTYuNjksNTcuOTdIMS4zNHYtMS4zNCAgICAgIGg1LjM1VjU3Ljk3eiBNMjAuNzMsNTcuOTdIOC4wMnYtMS4zNGgxMi43MVY1Ny45N3ogTTIwLjczLDU1LjI5SDguMDJ2LTEuMzRoMTIuNzFWNTUuMjl6IE0yMC43Myw1Mi42Mkg4LjAydi0xLjM0aDEyLjcxVjUyLjYyeiAgICAgICBNOC4wMiw0OS45NFY0OC42aDEyLjcxdjEuMzRIOC4wMnoiLz4mI3hhOwkJCTwvZz4mI3hhOwkJPC9nPiYjeGE7CTwvZz4mI3hhOzwvZz4mI3hhOzwvc3ZnPg==;fillColor=#7DCAEE;" parent="XeZ66hk8IlVMuvrCLhNz-18" vertex="1">
          <mxGeometry x="237.36451069841365" y="14.53125" width="16.418593326501618" height="20.950000936462366" as="geometry" />
        </mxCell>
        <mxCell id="1ZeLM8tSRtMM1lyIskZu-16" value="data request" style="text;html=1;align=center;verticalAlign=middle;resizable=0;points=[];autosize=1;strokeColor=none;fillColor=none;fontSize=11;" parent="XeZ66hk8IlVMuvrCLhNz-18" vertex="1">
          <mxGeometry x="104.37104394148986" y="21.338146551724147" width="80" height="20" as="geometry" />
        </mxCell>
        <mxCell id="RmzbV9Se9CzawkPMelnc-3" value="" style="sketch=0;aspect=fixed;html=1;points=[];align=center;image;fontSize=12;image=img/lib/mscae/Container_Instances.svg;fillColor=#3333FF;" parent="XeZ66hk8IlVMuvrCLhNz-18" vertex="1">
          <mxGeometry x="16.38" y="33.13512931034483" width="59.91" height="59.91" as="geometry" />
        </mxCell>
        <mxCell id="1ZeLM8tSRtMM1lyIskZu-10" value="&lt;b&gt;&lt;font style=&quot;font-size: 12px&quot;&gt;Container instance&lt;/font&gt;&lt;/b&gt;" style="text;html=1;align=center;verticalAlign=middle;resizable=0;points=[];autosize=1;strokeColor=none;fillColor=none;fontSize=11;" parent="XeZ66hk8IlVMuvrCLhNz-18" vertex="1">
          <mxGeometry x="-5.002875180269001" y="102.66206896551722" width="120" height="20" as="geometry" />
        </mxCell>
        <mxCell id="1ZeLM8tSRtMM1lyIskZu-9" value="&lt;font style=&quot;font-size: 12px&quot;&gt;&lt;b&gt;&lt;font style=&quot;font-size: 12px&quot;&gt;PostgreSQL DB&lt;/font&gt;&lt;/b&gt;&lt;/font&gt;" style="text;html=1;align=center;verticalAlign=middle;resizable=0;points=[];autosize=1;strokeColor=none;fillColor=none;" parent="XeZ66hk8IlVMuvrCLhNz-18" vertex="1">
          <mxGeometry x="206.7201992524355" y="97.81874999999998" width="100" height="20" as="geometry" />
        </mxCell>
        <mxCell id="1ZeLM8tSRtMM1lyIskZu-19" value="data providing" style="text;html=1;align=center;verticalAlign=middle;resizable=0;points=[];autosize=1;strokeColor=none;fillColor=none;fontSize=11;" parent="XeZ66hk8IlVMuvrCLhNz-18" vertex="1">
          <mxGeometry x="99.37104394148986" y="81.33038793103444" width="90" height="20" as="geometry" />
        </mxCell>
        <mxCell id="XeZ66hk8IlVMuvrCLhNz-16" style="edgeStyle=orthogonalEdgeStyle;rounded=0;orthogonalLoop=1;jettySize=auto;html=1;fontSize=14;" edge="1" parent="XeZ66hk8IlVMuvrCLhNz-18" source="RmzbV9Se9CzawkPMelnc-3" target="RmzbV9Se9CzawkPMelnc-21">
          <mxGeometry relative="1" as="geometry">
            <Array as="points">
              <mxPoint x="157" y="42.67241379310345" />
              <mxPoint x="157" y="42.67241379310345" />
            </Array>
          </mxGeometry>
        </mxCell>
        <mxCell id="XeZ66hk8IlVMuvrCLhNz-17" style="edgeStyle=orthogonalEdgeStyle;rounded=0;orthogonalLoop=1;jettySize=auto;html=1;fontSize=14;" edge="1" parent="XeZ66hk8IlVMuvrCLhNz-18" source="RmzbV9Se9CzawkPMelnc-21" target="RmzbV9Se9CzawkPMelnc-3">
          <mxGeometry relative="1" as="geometry">
            <Array as="points">
              <mxPoint x="137" y="85.3448275862069" />
              <mxPoint x="137" y="85.3448275862069" />
            </Array>
          </mxGeometry>
        </mxCell>
        <mxCell id="XeZ66hk8IlVMuvrCLhNz-38" style="edgeStyle=none;rounded=0;orthogonalLoop=1;jettySize=auto;html=1;fontSize=15;startArrow=classic;startFill=0;endArrow=baseDash;endFill=0;" edge="1" parent="XeZ66hk8IlVMuvrCLhNz-3" source="RmzbV9Se9CzawkPMelnc-21">
          <mxGeometry relative="1" as="geometry">
            <mxPoint x="470" y="121" as="targetPoint" />
          </mxGeometry>
        </mxCell>
        <mxCell id="XeZ66hk8IlVMuvrCLhNz-43" value="" style="whiteSpace=wrap;html=1;rounded=1;shadow=0;glass=0;dashed=1;sketch=0;fontSize=15;strokeColor=#10739e;fillColor=#b1ddf0;container=1;" vertex="1" parent="XeZ66hk8IlVMuvrCLhNz-3">
          <mxGeometry x="420" y="55.3" width="145" height="150" as="geometry" />
        </mxCell>
        <mxCell id="RmzbV9Se9CzawkPMelnc-20" value="" style="sketch=0;aspect=fixed;html=1;points=[];align=center;image;fontSize=12;image=img/lib/mscae/Storage_Accounts.svg;fillColor=#7DCAEE;" parent="XeZ66hk8IlVMuvrCLhNz-43" vertex="1">
          <mxGeometry x="20.304899999999996" y="60.3794964028777" width="59.69556451612903" height="53.73185483870968" as="geometry" />
        </mxCell>
        <mxCell id="1ZeLM8tSRtMM1lyIskZu-1" value="&lt;div&gt;&lt;b&gt;storage account&lt;/b&gt;&lt;/div&gt;&lt;div&gt;&lt;b&gt;&lt;br&gt;&lt;/b&gt;&lt;/div&gt;" style="text;html=1;align=center;verticalAlign=middle;resizable=0;points=[];autosize=1;strokeColor=none;fillColor=none;" parent="XeZ66hk8IlVMuvrCLhNz-43" vertex="1">
          <mxGeometry x="-0.0013238489762752437" y="120.00472858077171" width="110" height="30" as="geometry" />
        </mxCell>
        <mxCell id="XeZ66hk8IlVMuvrCLhNz-40" value="" style="aspect=fixed;html=1;points=[];align=center;image;fontSize=12;image=img/lib/azure2/networking/Private_Endpoint.svg;rounded=1;shadow=0;glass=0;dashed=1;sketch=0;strokeColor=default;fillColor=default;gradientColor=none;" vertex="1" parent="XeZ66hk8IlVMuvrCLhNz-43">
          <mxGeometry x="80" y="60.38" width="36.04" height="33.04" as="geometry" />
        </mxCell>
        <mxCell id="1ZeLM8tSRtMM1lyIskZu-21" value="" style="shape=image;verticalLabelPosition=bottom;labelBackgroundColor=#ffffff;verticalAlign=top;aspect=fixed;imageAspect=0;image=data:image/svg+xml,PHN2ZyB4bWxuczpjYz0iaHR0cDovL2NyZWF0aXZlY29tbW9ucy5vcmcvbnMjIiB4bWxuczpkYz0iaHR0cDovL3B1cmwub3JnL2RjL2VsZW1lbnRzLzEuMS8iIHhtbG5zOmlua3NjYXBlPSJodHRwOi8vd3d3Lmlua3NjYXBlLm9yZy9uYW1lc3BhY2VzL2lua3NjYXBlIiB4bWxuczpyZGY9Imh0dHA6Ly93d3cudzMub3JnLzE5OTkvMDIvMjItcmRmLXN5bnRheC1ucyMiIHhtbG5zOnNvZGlwb2RpPSJodHRwOi8vc29kaXBvZGkuc291cmNlZm9yZ2UubmV0L0RURC9zb2RpcG9kaS0wLmR0ZCIgeG1sbnM6c3ZnPSJodHRwOi8vd3d3LnczLm9yZy8yMDAwL3N2ZyIgeG1sbnM9Imh0dHA6Ly93d3cudzMub3JnLzIwMDAvc3ZnIiB4bWxuczp4bGluaz0iaHR0cDovL3d3dy53My5vcmcvMTk5OS94bGluayIgdmVyc2lvbj0iMS4xIiBpZD0ic3ZnNDI1NDMiIGlua3NjYXBlOnZlcnNpb249IjAuOTIuMyAoMjQwNTU0NiwgMjAxOC0wMy0xMSkiIHNvZGlwb2RpOmRvY25hbWU9ImV4Y2VsLnN2ZyIgeD0iMHB4IiB5PSIwcHgiIHZpZXdCb3g9IjAgMCAyOC43NSAzNy40NCIgc3R5bGU9ImVuYWJsZS1iYWNrZ3JvdW5kOm5ldyAwIDAgMjguNzUgMzcuNDQ7IiB4bWw6c3BhY2U9InByZXNlcnZlIj4mI3hhOzxzb2RpcG9kaTpuYW1lZHZpZXcgYm9yZGVyY29sb3I9IiM2NjY2NjYiIGJvcmRlcm9wYWNpdHk9IjEiIGZpdC1tYXJnaW4tYm90dG9tPSIwIiBmaXQtbWFyZ2luLWxlZnQ9IjAiIGZpdC1tYXJnaW4tcmlnaHQ9IjAiIGZpdC1tYXJnaW4tdG9wPSIwIiBncmlkdG9sZXJhbmNlPSIxMCIgZ3VpZGV0b2xlcmFuY2U9IjEwIiBpZD0ibmFtZWR2aWV3NDI1NDUiIGlua3NjYXBlOmN1cnJlbnQtbGF5ZXI9InN2ZzQyNTQzIiBpbmtzY2FwZTpjeD0iMTkuMTY5MjY5IiBpbmtzY2FwZTpjeT0iMjQuOTU5MTM4IiBpbmtzY2FwZTpwYWdlb3BhY2l0eT0iMCIgaW5rc2NhcGU6cGFnZXNoYWRvdz0iMiIgaW5rc2NhcGU6d2luZG93LWhlaWdodD0iMTAxNyIgaW5rc2NhcGU6d2luZG93LW1heGltaXplZD0iMSIgaW5rc2NhcGU6d2luZG93LXdpZHRoPSIxOTIwIiBpbmtzY2FwZTp3aW5kb3cteD0iLTgiIGlua3NjYXBlOndpbmRvdy15PSItOCIgaW5rc2NhcGU6em9vbT0iMTAuOTY0NjczIiBvYmplY3R0b2xlcmFuY2U9IjEwIiBwYWdlY29sb3I9IiNmZmZmZmYiIHNob3dncmlkPSJmYWxzZSI+JiN4YTsJPC9zb2RpcG9kaTpuYW1lZHZpZXc+JiN4YTs8ZyBpZD0iZzQyNTQxIiB0cmFuc2Zvcm09InRyYW5zbGF0ZSgtMTAuOTI4NiwtMTAuOTMxNCkiPiYjeGE7CTx0aXRsZSBpZD0idGl0bGU0MjQ5NSI+UGFnZS0xPC90aXRsZT4mI3hhOwk8ZyBpZD0iZ3JvdXA0MDM3LTEiIHRyYW5zZm9ybT0idHJhbnNsYXRlKDEwLjkyODYsLTEwLjkyODYpIj4mI3hhOwkJPHRpdGxlIGlkPSJ0aXRsZTQyNDk3Ij5FeGNlbDwvdGl0bGU+JiN4YTsJCTxnIGlkPSJncm91cDQwMzgtMiI+JiN4YTsJCQk8dGl0bGUgaWQ9InRpdGxlNDI0OTkiPlNoZWV0LjQwMzg8L3RpdGxlPiYjeGE7CQkJPGcgaWQ9InNoYXBlNDAzOS0zIj4mI3hhOwkJCQk8dGl0bGUgaWQ9InRpdGxlNDI1MDEiPlNoZWV0LjQwMzk8L3RpdGxlPiYjeGE7CQkJCTxwYXRoIGlkPSJwYXRoNDI1MDMiIGlua3NjYXBlOmNvbm5lY3Rvci1jdXJ2YXR1cmU9IjAiIHN0eWxlPSJmaWxsOiNFOUU5RTA7IiBkPSJNMjAuMzksMjEuODZIMC45OEMwLjQ0LDIxLjg2LDAsMjIuMywwLDIzLjE1ICAgICAgdjM1LjQ5YzAsMC4yMywwLjQ0LDAuNjYsMC45OCwwLjY2aDI2LjhjMC41NCwwLDAuOTctMC40MywwLjk3LTAuNjZ2LTI4LjFjMC0wLjQ3LTAuMDYtMC42Mi0wLjE3LTAuNzNsLTcuNzgtNy43OCAgICAgIEMyMC42OSwyMS45MiwyMC41NCwyMS44NiwyMC4zOSwyMS44NnoiLz4mI3hhOwkJCTwvZz4mI3hhOwkJCTxnIGlkPSJzaGFwZTQwNDAtNSIgdHJhbnNmb3JtPSJ0cmFuc2xhdGUoMjAuNzI5NiwtMjkuNDIyNikiPiYjeGE7CQkJCTx0aXRsZSBpZD0idGl0bGU0MjUwNiI+U2hlZXQuNDA0MDwvdGl0bGU+JiN4YTsJCQkJPHBhdGggaWQ9InBhdGg0MjUwOCIgaW5rc2NhcGU6Y29ubmVjdG9yLWN1cnZhdHVyZT0iMCIgc3R5bGU9ImZpbGw6I0Q5RDdDQTsiIGQ9Ik0wLDUxLjM4djcuOTJoNy45MkwwLDUxLjM4eiIvPiYjeGE7CQkJPC9nPiYjeGE7CQkJPGcgaWQ9InNoYXBlNDA0MS03Ij4mI3hhOwkJCQk8dGl0bGUgaWQ9InRpdGxlNDI1MTEiPlNoZWV0LjQwNDE8L3RpdGxlPiYjeGE7CQkJCTxwYXRoIGlkPSJwYXRoNDI1MTMiIGlua3NjYXBlOmNvbm5lY3Rvci1jdXJ2YXR1cmU9IjAiIHN0eWxlPSJmaWxsOiM5REJCNjE7IiBkPSJNMjcuNzgsNTkuM0gwLjk4QzAuNDQsNTkuMywwLDU4Ljg3LDAsNTguMzMgICAgICBWNDcuOTRoMjguNzV2MTAuMzlDMjguNzUsNTguODcsMjguMzIsNTkuMywyNy43OCw1OS4zeiIvPiYjeGE7CQkJPC9nPiYjeGE7CQkJPGcgaWQ9Imdyb3VwNDA0Mi05IiB0cmFuc2Zvcm09InRyYW5zbGF0ZSg2LjAyNjI5LC0xLjk2OTk4KSI+JiN4YTsJCQkJPHRpdGxlIGlkPSJ0aXRsZTQyNTE2Ij5TaGVldC40MDQyPC90aXRsZT4mI3hhOwkJCQk8ZyBpZD0ic2hhcGU0MDQzLTEwIiB0cmFuc2Zvcm09InRyYW5zbGF0ZSgwLC0wLjAzNjEwOTYpIj4mI3hhOwkJCQkJPHRpdGxlIGlkPSJ0aXRsZTQyNTE4Ij5TaGVldC40MDQzPC90aXRsZT4mI3hhOwkJCQkJPHBhdGggaWQ9InBhdGg0MjUyMCIgaW5rc2NhcGU6Y29ubmVjdG9yLWN1cnZhdHVyZT0iMCIgc3R5bGU9ImZpbGw6I0ZGRkZGRjsiIGQ9Ik0zLjI1LDU2LjAzbDEuNzEsMy4yN0gzLjY5bC0xLjA3LTIuNTRIMi41MyAgICAgICBMMS4zOCw1OS4zSDAuMTFsMS43MS0zLjI3TDAsNTIuNTdoMS4yNWwxLjE5LDIuNzRoMC4wOWwxLjI5LTIuNzRoMS4yNUwzLjI1LDU2LjAzeiIvPiYjeGE7CQkJCTwvZz4mI3hhOwkJCQk8ZyBpZD0ic2hhcGU0MDQ0LTEyIiB0cmFuc2Zvcm09InRyYW5zbGF0ZSg2LjU5MTM0LC0wLjAzNjEwOTYpIj4mI3hhOwkJCQkJPHRpdGxlIGlkPSJ0aXRsZTQyNTIzIj5TaGVldC40MDQ0PC90aXRsZT4mI3hhOwkJCQkJPHBhdGggaWQ9InBhdGg0MjUyNSIgaW5rc2NhcGU6Y29ubmVjdG9yLWN1cnZhdHVyZT0iMCIgc3R5bGU9ImZpbGw6I0ZGRkZGRjsiIGQ9Ik0xLjEyLDUyLjU3djUuOWgzLjA5djAuODNIMHYtNi43M0gxLjEyeiIvPiYjeGE7CQkJCTwvZz4mI3hhOwkJCQk8ZyBpZD0ic2hhcGU0MDQ1LTE0IiB0cmFuc2Zvcm09InRyYW5zbGF0ZSgxMS44MjA1KSI+JiN4YTsJCQkJCTx0aXRsZSBpZD0idGl0bGU0MjUyOCI+U2hlZXQuNDA0NTwvdGl0bGU+JiN4YTsJCQkJCTxwYXRoIGlkPSJwYXRoNDI1MzAiIGlua3NjYXBlOmNvbm5lY3Rvci1jdXJ2YXR1cmU9IjAiIHN0eWxlPSJmaWxsOiNGRkZGRkY7IiBkPSJNMy45MSw1Ny40MmMwLDAuMjQtMC4wNSwwLjQ4LTAuMTUsMC43MSAgICAgICBjLTAuMSwwLjIzLTAuMjQsMC40My0wLjQyLDAuNmMtMC4xOSwwLjE4LTAuNDEsMC4zMi0wLjY4LDAuNDJTMi4wOSw1OS4zLDEuNzUsNTkuM2MtMC4xNSwwLTAuMywwLTAuNDYtMC4wMiAgICAgICBjLTAuMTUtMC4wMS0wLjMxLTAuMDQtMC40Ny0wLjA4Yy0wLjE2LTAuMDMtMC4zMS0wLjA4LTAuNDUtMC4xNUMwLjIzLDU4Ljk5LDAuMSw1OC45MSwwLDU4LjgybDAuMTktMC43OSAgICAgICBjMC4wOSwwLjA1LDAuMiwwLjEsMC4zMywwLjE0YzAuMTMsMC4wNSwwLjI2LDAuMDksMC40LDAuMTNzMC4yOCwwLjA3LDAuNDIsMC4xYzAuMTQsMC4wMiwwLjI3LDAuMDQsMC40LDAuMDQgICAgICAgYzAuMzcsMCwwLjY1LTAuMDksMC44NS0wLjI3YzAuMi0wLjE3LDAuMy0wLjQzLDAuMy0wLjc3YzAtMC4yLTAuMDctMC4zOC0wLjIxLTAuNTNjLTAuMTQtMC4xNC0wLjMyLTAuMjgtMC41My0wLjQgICAgICAgYy0wLjIxLTAuMTEtMC40My0wLjIzLTAuNjgtMC4zNUMxLjIzLDU2LDEsNTUuODYsMC43OSw1NS43Yy0wLjIyLTAuMTYtMC4zOS0wLjM1LTAuNTMtMC41N2MtMC4xNC0wLjIyLTAuMjEtMC41LTAuMjEtMC44MyAgICAgICBjMC0wLjI5LDAuMDUtMC41NiwwLjE2LTAuNzlzMC4yNi0wLjQzLDAuNDQtMC41OWMwLjE5LTAuMTYsMC40MS0wLjI5LDAuNjUtMC4zN2MwLjI1LTAuMDksMC41MS0wLjEzLDAuNzgtMC4xMyAgICAgICBjMC4yOCwwLDAuNTcsMC4wMywwLjg1LDAuMDhjMC4yOSwwLjA1LDAuNTIsMC4xMywwLjcsMC4yNWMtMC4wNCwwLjA4LTAuMDgsMC4xNy0wLjEzLDAuMjZjLTAuMDUsMC4xLTAuMDksMC4xOC0wLjE0LDAuMjcgICAgICAgYy0wLjA0LDAuMDgtMC4wOCwwLjE1LTAuMTEsMC4yYy0wLjAzLDAuMDYtMC4wNCwwLjA5LTAuMDUsMC4wOWMtMC4wNC0wLjAyLTAuMDgtMC4wNC0wLjEyLTAuMDdjLTAuMDUtMC4wMy0wLjEyLTAuMDYtMC4yLTAuMDkgICAgICAgYy0wLjA5LTAuMDMtMC4yLTAuMDUtMC4zNC0wLjA3QzIuNCw1My4zMywyLjIyLDUzLjMzLDIsNTMuMzVjLTAuMTIsMC4wMi0wLjI0LDAuMDUtMC4zNSwwLjExYy0wLjExLDAuMDYtMC4yLDAuMTMtMC4yOSwwLjIxICAgICAgIGMtMC4wOCwwLjA5LTAuMTUsMC4xOC0wLjIsMC4yOWMtMC4wNSwwLjExLTAuMDcsMC4yMS0wLjA3LDAuMzFjMCwwLjI0LDAuMDcsMC40NCwwLjIxLDAuNTlzMC4zMSwwLjI4LDAuNTIsMC4zOSAgICAgICBjMC4yLDAuMTEsMC40MywwLjIyLDAuNjcsMC4zM2MwLjI1LDAuMTEsMC40NywwLjI0LDAuNjksMC4zOWMwLjIxLDAuMTUsMC4zOCwwLjM0LDAuNTIsMC41N1MzLjkxLDU3LjA2LDMuOTEsNTcuNDJ6Ii8+JiN4YTsJCQkJPC9nPiYjeGE7CQkJPC9nPiYjeGE7CQkJPGcgaWQ9InNoYXBlNDA0Ni0xNiIgdHJhbnNmb3JtPSJ0cmFuc2xhdGUoMy4zNDM0OCwtMTQuNzExMykiPiYjeGE7CQkJCTx0aXRsZSBpZD0idGl0bGU0MjUzNCI+U2hlZXQuNDA0NjwvdGl0bGU+JiN4YTsJCQkJPHBhdGggaWQ9InBhdGg0MjUzNiIgaW5rc2NhcGU6Y29ubmVjdG9yLWN1cnZhdHVyZT0iMCIgc3R5bGU9ImZpbGw6I0M4QkRCODsiIGQ9Ik04LjAyLDQ3LjI3di0yLjY4SDB2Mi42OHYxLjMzdjEuMzR2MS4zNHYxLjM0ICAgICAgdjEuMzN2MS4zNHYxLjM0djIuNjdoNi42OWgxLjMzaDE0LjA1di0yLjY3di0xLjM0di0xLjM0di0xLjMzdi0xLjM0di0xLjM0di0yLjY3SDguMDJ6IE0xLjM0LDQ1LjkzaDUuMzV2MS4zNEgxLjM0VjQ1LjkzeiAgICAgICBNMS4zNCw0OC42aDUuMzV2MS4zNEgxLjM0VjQ4LjZ6IE0xLjM0LDUxLjI4aDUuMzV2MS4zNEgxLjM0VjUxLjI4eiBNMS4zNCw1My45NWg1LjM1djEuMzRIMS4zNFY1My45NXogTTYuNjksNTcuOTdIMS4zNHYtMS4zNCAgICAgIGg1LjM1VjU3Ljk3eiBNMjAuNzMsNTcuOTdIOC4wMnYtMS4zNGgxMi43MVY1Ny45N3ogTTIwLjczLDU1LjI5SDguMDJ2LTEuMzRoMTIuNzFWNTUuMjl6IE0yMC43Myw1Mi42Mkg4LjAydi0xLjM0aDEyLjcxVjUyLjYyeiAgICAgICBNOC4wMiw0OS45NFY0OC42aDEyLjcxdjEuMzRIOC4wMnoiLz4mI3hhOwkJCTwvZz4mI3hhOwkJPC9nPiYjeGE7CTwvZz4mI3hhOzwvZz4mI3hhOzwvc3ZnPg==;fillColor=#7DCAEE;" parent="XeZ66hk8IlVMuvrCLhNz-43" vertex="1">
          <mxGeometry x="25.002499999999994" y="24.699928057553954" width="19.6549059139785" height="25.08266129032258" as="geometry" />
        </mxCell>
        <mxCell id="XeZ66hk8IlVMuvrCLhNz-42" value="Virtual Network" style="aspect=fixed;html=1;points=[];align=center;image;fontSize=12;image=img/lib/azure2/networking/Virtual_Networks.svg;rounded=1;shadow=0;glass=0;dashed=1;sketch=0;strokeColor=default;fillColor=default;gradientColor=none;" vertex="1" parent="XeZ66hk8IlVMuvrCLhNz-3">
          <mxGeometry x="528" y="8.67" width="37" height="22.09" as="geometry" />
        </mxCell>
        <mxCell id="RmzbV9Se9CzawkPMelnc-7" style="edgeStyle=orthogonalEdgeStyle;rounded=0;orthogonalLoop=1;jettySize=auto;html=1;" parent="1" source="RmzbV9Se9CzawkPMelnc-5" edge="1" target="RmzbV9Se9CzawkPMelnc-3">
          <mxGeometry relative="1" as="geometry">
            <mxPoint x="210" y="270.5" as="targetPoint" />
            <Array as="points">
              <mxPoint x="130" y="287" />
              <mxPoint x="130" y="287" />
            </Array>
          </mxGeometry>
        </mxCell>
        <mxCell id="XeZ66hk8IlVMuvrCLhNz-6" value="" style="verticalLabelPosition=bottom;html=1;verticalAlign=top;align=center;strokeColor=none;fillColor=#00BEF2;shape=mxgraph.azure.azure_subscription;shadow=0;glass=0;sketch=0;fontSize=12;" vertex="1" parent="1">
          <mxGeometry x="700" y="120" width="70" height="50" as="geometry" />
        </mxCell>
        <mxCell id="XeZ66hk8IlVMuvrCLhNz-8" value="" style="whiteSpace=wrap;html=1;shadow=0;glass=0;sketch=0;fontSize=12;strokeColor=#666666;fillColor=#f5f5f5;container=1;fontColor=#333333;rounded=1;" vertex="1" parent="1">
          <mxGeometry x="960" y="80" width="120" height="470" as="geometry" />
        </mxCell>
        <mxCell id="RmzbV9Se9CzawkPMelnc-13" value="" style="shape=image;verticalLabelPosition=bottom;labelBackgroundColor=#ffffff;verticalAlign=top;aspect=fixed;imageAspect=0;image=data:image/svg+xml,PHN2ZyB4bWxuczpjYz0iaHR0cDovL2NyZWF0aXZlY29tbW9ucy5vcmcvbnMjIiB4bWxuczpkYz0iaHR0cDovL3B1cmwub3JnL2RjL2VsZW1lbnRzLzEuMS8iIHhtbG5zOmlua3NjYXBlPSJodHRwOi8vd3d3Lmlua3NjYXBlLm9yZy9uYW1lc3BhY2VzL2lua3NjYXBlIiB4bWxuczpyZGY9Imh0dHA6Ly93d3cudzMub3JnLzE5OTkvMDIvMjItcmRmLXN5bnRheC1ucyMiIHhtbG5zOnNvZGlwb2RpPSJodHRwOi8vc29kaXBvZGkuc291cmNlZm9yZ2UubmV0L0RURC9zb2RpcG9kaS0wLmR0ZCIgeG1sbnM6c3ZnPSJodHRwOi8vd3d3LnczLm9yZy8yMDAwL3N2ZyIgeG1sbnM9Imh0dHA6Ly93d3cudzMub3JnLzIwMDAvc3ZnIiB4bWxuczp4bGluaz0iaHR0cDovL3d3dy53My5vcmcvMTk5OS94bGluayIgdmVyc2lvbj0iMS4xIiBpZD0ic3ZnMzg4ODUiIGlua3NjYXBlOnZlcnNpb249IjAuOTIuMyAoMjQwNTU0NiwgMjAxOC0wMy0xMSkiIHNvZGlwb2RpOmRvY25hbWU9ImZhY3RvcnlfMS5zdmciIHg9IjBweCIgeT0iMHB4IiB2aWV3Qm94PSIwIDAgOTUuNTcgNjguNTciIHN0eWxlPSJlbmFibGUtYmFja2dyb3VuZDpuZXcgMCAwIDk1LjU3IDY4LjU3OyIgeG1sOnNwYWNlPSJwcmVzZXJ2ZSI+JiN4YTs8c29kaXBvZGk6bmFtZWR2aWV3IGJvcmRlcmNvbG9yPSIjNjY2NjY2IiBib3JkZXJvcGFjaXR5PSIxIiBmaXQtbWFyZ2luLWJvdHRvbT0iMCIgZml0LW1hcmdpbi1sZWZ0PSIwIiBmaXQtbWFyZ2luLXJpZ2h0PSIwIiBmaXQtbWFyZ2luLXRvcD0iMCIgZ3JpZHRvbGVyYW5jZT0iMTAiIGd1aWRldG9sZXJhbmNlPSIxMCIgaWQ9Im5hbWVkdmlldzM4ODg3IiBpbmtzY2FwZTpjdXJyZW50LWxheWVyPSJzdmczODg4NSIgaW5rc2NhcGU6Y3g9IjYzLjcxMzExOCIgaW5rc2NhcGU6Y3k9IjQ1LjcxMTA1NiIgaW5rc2NhcGU6cGFnZW9wYWNpdHk9IjAiIGlua3NjYXBlOnBhZ2VzaGFkb3c9IjIiIGlua3NjYXBlOndpbmRvdy1oZWlnaHQ9IjEwMTciIGlua3NjYXBlOndpbmRvdy1tYXhpbWl6ZWQ9IjEiIGlua3NjYXBlOndpbmRvdy13aWR0aD0iMTkyMCIgaW5rc2NhcGU6d2luZG93LXg9Ii04IiBpbmtzY2FwZTp3aW5kb3cteT0iLTgiIGlua3NjYXBlOnpvb209IjkuMjc5NTUyNCIgb2JqZWN0dG9sZXJhbmNlPSIxMCIgcGFnZWNvbG9yPSIjZmZmZmZmIiBzaG93Z3JpZD0iZmFsc2UiPiYjeGE7CTwvc29kaXBvZGk6bmFtZWR2aWV3PiYjeGE7PGcgaWQ9ImczODg4MyIgdHJhbnNmb3JtPSJ0cmFuc2xhdGUoLTAuNzUsLTAuNzQ1MSkiPiYjeGE7CTx0aXRsZSBpZD0idGl0bGUzODczOCI+UGFnZS0xPC90aXRsZT4mI3hhOwk8ZyBpZD0iZ3JvdXAzMzMyLTEiIHRyYW5zZm9ybT0idHJhbnNsYXRlKDEuNSwtMS41KSI+JiN4YTsJCTx0aXRsZSBpZD0idGl0bGUzODc0MCI+RmFjdG9yeSAjMTwvdGl0bGU+JiN4YTsJCTxnIGlkPSJzaGFwZTMzMzMtMiIgdHJhbnNmb3JtPSJ0cmFuc2xhdGUoMjMuNTY4MSwtMzQuNzk5NikiPiYjeGE7CQkJPHRpdGxlIGlkPSJ0aXRsZTM4NzQyIj5TaGVldC4zMzMzPC90aXRsZT4mI3hhOwkJCSYjeGE7CQkJCTxwYXRoIGlkPSJwYXRoMzg3NDQiIGlua3NjYXBlOmNvbm5lY3Rvci1jdXJ2YXR1cmU9IjAiIHN0eWxlPSJmaWxsOiNGMkYyRjI7c3Ryb2tlOiM1NTZBOEE7c3Ryb2tlLXdpZHRoOjEuNTtzdHJva2UtbWl0ZXJsaW1pdDozOyIgZD0iICAgICBNOS41LDQ0LjAxbDEuMiwyNi4wNkgwbDEuMTktMjYuMDZIOS41eiIvPiYjeGE7CQk8L2c+JiN4YTsJCTxnIGlkPSJzaGFwZTMzMzQtNCIgdHJhbnNmb3JtPSJ0cmFuc2xhdGUoMjMuOTkwMiwtNjAuMDQ0OSkiPiYjeGE7CQkJPHRpdGxlIGlkPSJ0aXRsZTM4NzQ3Ij5TaGVldC4zMzM0PC90aXRsZT4mI3hhOwkJCTxwYXRoIGlkPSJwYXRoMzg3NDkiIGlua3NjYXBlOmNvbm5lY3Rvci1jdXJ2YXR1cmU9IjAiIHN0eWxlPSJmaWxsOiNDMDAwMDA7IiBkPSJNOS42OSw2Mi4yOWwwLjM4LDcuNzhIMGwwLjM4LTcuNzhIOS42OXoiLz4mI3hhOwkJPC9nPiYjeGE7CQk8ZyBpZD0ic2hhcGUzMzM1LTYiIHRyYW5zZm9ybT0idHJhbnNsYXRlKDcuNjQ2NjMsLTM0Ljc5OTYpIj4mI3hhOwkJCTx0aXRsZSBpZD0idGl0bGUzODc1MiI+U2hlZXQuMzMzNTwvdGl0bGU+JiN4YTsJCQkmI3hhOwkJCQk8cGF0aCBpZD0icGF0aDM4NzU0IiBpbmtzY2FwZTpjb25uZWN0b3ItY3VydmF0dXJlPSIwIiBzdHlsZT0iZmlsbDojRjJGMkYyO3N0cm9rZTojNTU2QThBO3N0cm9rZS13aWR0aDoxLjU7c3Ryb2tlLW1pdGVybGltaXQ6MzsiIGQ9IiAgICAgTTkuNSw0NC4wMWwxLjIsMjYuMDZIMGwxLjE5LTI2LjA2SDkuNXoiLz4mI3hhOwkJPC9nPiYjeGE7CQk8ZyBpZD0ic2hhcGUzMzM2LTgiIHRyYW5zZm9ybT0idHJhbnNsYXRlKDEyLjk3MjIsLTM0Ljk2MTIpIj4mI3hhOwkJCTx0aXRsZSBpZD0idGl0bGUzODc1NyI+U2hlZXQuMzMzNjwvdGl0bGU+JiN4YTsJCQk8cGF0aCBpZD0icGF0aDM4NzU5IiBpbmtzY2FwZTpjb25uZWN0b3ItY3VydmF0dXJlPSIwIiBzdHlsZT0iZmlsbDojQjhDMUNFOyIgZD0iTTQuMDIsNDUuMDlIMGwwLjEsMjQuOThoNS4xMUw0LjAyLDQ1LjA5eiIvPiYjeGE7CQk8L2c+JiN4YTsJCTxnIGlkPSJzaGFwZTMzMzctMTAiIHRyYW5zZm9ybT0idHJhbnNsYXRlKDI4LjgzMTEsLTM1LjEwNDgpIj4mI3hhOwkJCTx0aXRsZSBpZD0idGl0bGUzODc2MiI+U2hlZXQuMzMzNzwvdGl0bGU+JiN4YTsJCQk8cGF0aCBpZD0icGF0aDM4NzY0IiBpbmtzY2FwZTpjb25uZWN0b3ItY3VydmF0dXJlPSIwIiBzdHlsZT0iZmlsbDojQjhDMUNFOyIgZD0iTTQuMDIsNDUuMDlIMGwwLjEsMjQuOThoNS4xMUw0LjAyLDQ1LjA5eiIvPiYjeGE7CQk8L2c+JiN4YTsJCTxnIGlkPSJzaGFwZTMzMzgtMTIiIHRyYW5zZm9ybT0idHJhbnNsYXRlKDguMTE4NywtNTkuOTQ0MikiPiYjeGE7CQkJPHRpdGxlIGlkPSJ0aXRsZTM4NzY3Ij5TaGVldC4zMzM4PC90aXRsZT4mI3hhOwkJCTxwYXRoIGlkPSJwYXRoMzg3NjkiIGlua3NjYXBlOmNvbm5lY3Rvci1jdXJ2YXR1cmU9IjAiIHN0eWxlPSJmaWxsOiNDMDAwMDA7IiBkPSJNOS40MSw2Mi4xOWwwLjM3LDcuODhIMGwwLjM3LTcuODhIOS40MXoiLz4mI3hhOwkJPC9nPiYjeGE7CQk8ZyBpZD0ic2hhcGUzMzM5LTE0IiB0cmFuc2Zvcm09InRyYW5zbGF0ZSgxNC43ODYzLC0xMC41MjUpIj4mI3hhOwkJCTx0aXRsZSBpZD0idGl0bGUzODc3MiI+U2hlZXQuMzMzOTwvdGl0bGU+JiN4YTsJCQk8cmVjdCBpZD0icmVjdDM4Nzc0IiB4PSIwIiB5PSI0NS4wOSIgc3R5bGU9ImZpbGw6I0I4QzFDRTsiIHdpZHRoPSIzMC45MiIgaGVpZ2h0PSIyNC45OCIvPiYjeGE7CQk8L2c+JiN4YTsJCTxnIGlkPSJzaGFwZTMzNDAtMTYiIHRyYW5zZm9ybT0idHJhbnNsYXRlKDc1LjgzNDYsLTExLjg0NjYpIj4mI3hhOwkJCTx0aXRsZSBpZD0idGl0bGUzODc3NyI+U2hlZXQuMzM0MDwvdGl0bGU+JiN4YTsJCQkmI3hhOwkJCQk8cGF0aCBpZD0icGF0aDM4Nzc5IiBpbmtzY2FwZTpjb25uZWN0b3ItY3VydmF0dXJlPSIwIiBzdHlsZT0iZmlsbDojQzAwMDAwO3N0cm9rZTojNTU2QThBO3N0cm9rZS13aWR0aDoxLjU7c3Ryb2tlLW1pdGVybGltaXQ6MzsiIGQ9IiAgICAgTTEzLjQ4LDU3LjM0djEwLjMxTDYuOSw3MC4wN0wwLDY3LjY1VjU3LjM0bDYuNjQtMi40MkwxMy40OCw1Ny4zNHoiLz4mI3hhOwkJPC9nPiYjeGE7CQk8ZyBpZD0ic2hhcGUzMzQxLTE4IiB0cmFuc2Zvcm09InRyYW5zbGF0ZSg1Ni4wMTEsLTEwLjcwMTMpIj4mI3hhOwkJCTx0aXRsZSBpZD0idGl0bGUzODc4MiI+U2hlZXQuMzM0MTwvdGl0bGU+JiN4YTsJCQkmI3hhOwkJCQk8cGF0aCBpZD0icGF0aDM4Nzg0IiBpbmtzY2FwZTpjb25uZWN0b3ItY3VydmF0dXJlPSIwIiBzdHlsZT0iZmlsbDojQzAwMDAwO3N0cm9rZTojNTU2QThBO3N0cm9rZS13aWR0aDoxLjU7c3Ryb2tlLW1pdGVybGltaXQ6MzsiIGQ9IiAgICAgTTEzLjQ4LDU2LjE5VjY2LjVsLTYuMzEsMy41N0wwLDY2LjVWNTYuMTlsNy4yNS0yLjVMMTMuNDgsNTYuMTl6Ii8+JiN4YTsJCTwvZz4mI3hhOwkJPGcgaWQ9InNoYXBlMzM0Mi0yMCIgdHJhbnNmb3JtPSJ0cmFuc2xhdGUoNjEuNTYxMSwtMzAuMTMxMSkiPiYjeGE7CQkJPHRpdGxlIGlkPSJ0aXRsZTM4Nzg3Ij5TaGVldC4zMzQyPC90aXRsZT4mI3hhOwkJCTxwYXRoIGlkPSJwYXRoMzg3ODkiIGlua3NjYXBlOmNvbm5lY3Rvci1jdXJ2YXR1cmU9IjAiIHN0eWxlPSJmaWxsOiNDMDAwMDA7IiBkPSJNMjIuMiw3MC4wN2gtMi4zOHYtMS4xOSAgICAgYzAtMi45LTIuMzYtNS4yNi01LjI2LTUuMjZINy42NGMtMi45LDAtNS4yNiwyLjM2LTUuMjYsNS4yNnYxLjE5SDB2LTEuMTljMC00LjIxLDMuNDMtNy42NCw3LjY0LTcuNjRoNi45MiAgICAgYzQuMjEsMCw3LjY0LDMuNDMsNy42NCw3LjY0TDIyLjIsNzAuMDd6Ii8+JiN4YTsJCTwvZz4mI3hhOwkJPGcgaWQ9InNoYXBlMzM0My0yMiIgdHJhbnNmb3JtPSJ0cmFuc2xhdGUoNzUuODM0NiwtMjQuNTgxMykiPiYjeGE7CQkJPHRpdGxlIGlkPSJ0aXRsZTM4NzkyIj5TaGVldC4zMzQzPC90aXRsZT4mI3hhOwkJCSYjeGE7CQkJCTxwYXRoIGlkPSJwYXRoMzg3OTQiIGlua3NjYXBlOmNvbm5lY3Rvci1jdXJ2YXR1cmU9IjAiIHN0eWxlPSJmaWxsOiM1NTZBOEE7c3Ryb2tlOiM1NTZBOEE7c3Ryb2tlLXdpZHRoOjEuNTtzdHJva2UtbWl0ZXJsaW1pdDozOyIgZD0iICAgICBNMTMuNDgsNzAuMDdIMGMwLTMuNzIsMy4wMi02Ljc0LDYuNzQtNi43NFMxMy40OCw2Ni4zNSwxMy40OCw3MC4wN3oiLz4mI3hhOwkJPC9nPiYjeGE7CQk8ZyBpZD0ic2hhcGUzMzQ0LTI0IiB0cmFuc2Zvcm09InRyYW5zbGF0ZSg2NC44MjYsLTE0LjI3MykiPiYjeGE7CQkJPHRpdGxlIGlkPSJ0aXRsZTM4Nzk3Ij5TaGVldC4zMzQ0PC90aXRsZT4mI3hhOwkJCTxwYXRoIGlkPSJwYXRoMzg3OTkiIGlua3NjYXBlOmNvbm5lY3Rvci1jdXJ2YXR1cmU9IjAiIHN0eWxlPSJmaWxsOiNEODI1MjU7IiBkPSJNNS4yMSw1OS43N3YxMC4zSDMuNTNIMHYtMTAuM0g1LjIxeiIvPiYjeGE7CQk8L2c+JiN4YTsJCTxnIGlkPSJzaGFwZTMzNDUtMjYiIHRyYW5zZm9ybT0idHJhbnNsYXRlKDg0LjkzNjMsLTEzLjc4ODMpIj4mI3hhOwkJCTx0aXRsZSBpZD0idGl0bGUzODgwMiI+U2hlZXQuMzM0NTwvdGl0bGU+JiN4YTsJCQk8cGF0aCBpZD0icGF0aDM4ODA0IiBpbmtzY2FwZTpjb25uZWN0b3ItY3VydmF0dXJlPSIwIiBzdHlsZT0iZmlsbDojRDgyNTI1OyIgZD0iTTUuMDIsNTkuNzd2MTAuM0gzLjRIMHYtMTAuM0g1LjAyeiIvPiYjeGE7CQk8L2c+JiN4YTsJCTxnIGlkPSJzaGFwZTMzNDYtMjgiIHRyYW5zZm9ybT0idHJhbnNsYXRlKDU2LjAxMSwtMjQuNTgxMykiPiYjeGE7CQkJPHRpdGxlIGlkPSJ0aXRsZTM4ODA3Ij5TaGVldC4zMzQ2PC90aXRsZT4mI3hhOwkJCSYjeGE7CQkJCTxwYXRoIGlkPSJwYXRoMzg4MDkiIGlua3NjYXBlOmNvbm5lY3Rvci1jdXJ2YXR1cmU9IjAiIHN0eWxlPSJmaWxsOiM1NTZBOEE7c3Ryb2tlOiM1NTZBOEE7c3Ryb2tlLXdpZHRoOjEuNTtzdHJva2UtbWl0ZXJsaW1pdDozOyIgZD0iICAgICBNMTMuNDgsNzAuMDdIMGMwLTMuNzIsMy4wMi02Ljc0LDYuNzQtNi43NFMxMy40OCw2Ni4zNSwxMy40OCw3MC4wN3oiLz4mI3hhOwkJPC9nPiYjeGE7CQk8ZyBpZD0ic2hhcGUzMzQ3LTMwIj4mI3hhOwkJCTx0aXRsZSBpZD0idGl0bGUzODgxMiI+U2hlZXQuMzM0NzwvdGl0bGU+JiN4YTsJCQkmI3hhOwkJCQk8cGF0aCBpZD0icGF0aDM4ODE0IiBpbmtzY2FwZTpjb25uZWN0b3ItY3VydmF0dXJlPSIwIiBzdHlsZT0iZmlsbDojRjJGMkYyO3N0cm9rZTojNTU2QThBO3N0cm9rZS13aWR0aDoxLjU7c3Ryb2tlLW1pdGVybGltaXQ6MzsiIGQ9IiAgICAgTTU5LjE4LDU1LjhoLTExLjJIMTkuNDJWMzQuNTdIMHYzNS41aDE5LjQyaDI4LjU2aDIxLjExVjU1LjhINTkuMTh6Ii8+JiN4YTsJCTwvZz4mI3hhOwkJPGcgaWQ9InNoYXBlMzM0OC0zMiIgdHJhbnNmb3JtPSJ0cmFuc2xhdGUoMjIuOTU0NywtMjUuNjg0NSkiPiYjeGE7CQkJPHRpdGxlIGlkPSJ0aXRsZTM4ODE3Ij5TaGVldC4zMzQ4PC90aXRsZT4mI3hhOwkJCTxwYXRoIGlkPSJwYXRoMzg4MTkiIGlua3NjYXBlOmNvbm5lY3Rvci1jdXJ2YXR1cmU9IjAiIHN0eWxlPSJmaWxsOiM2NjY2NjY7IiBkPSJNMTcuMDUsNzAuMDdIMS45OEMwLjg5LDcwLjA3LDAsNjkuMTksMCw2OC4wOSAgICAgYzAtMS4wOSwwLjg5LTEuOTgsMS45OC0xLjk4aDE1LjA3YzEuMDksMCwxLjk4LDAuODksMS45OCwxLjk4QzE5LjAzLDY5LjE5LDE4LjE0LDcwLjA3LDE3LjA1LDcwLjA3eiIvPiYjeGE7CQk8L2c+JiN4YTsJCTxnIGlkPSJzaGFwZTMzNDktMzQiIHRyYW5zZm9ybT0idHJhbnNsYXRlKDIyLjk1NDcsLTE5LjA3NjcpIj4mI3hhOwkJCTx0aXRsZSBpZD0idGl0bGUzODgyMiI+U2hlZXQuMzM0OTwvdGl0bGU+JiN4YTsJCQk8cGF0aCBpZD0icGF0aDM4ODI0IiBpbmtzY2FwZTpjb25uZWN0b3ItY3VydmF0dXJlPSIwIiBzdHlsZT0iZmlsbDojNjY2NjY2OyIgZD0iTTE3LjA1LDcwLjA3SDEuOThDMC44OSw3MC4wNywwLDY5LjE5LDAsNjguMDkgICAgIGMwLTEuMDksMC44OS0xLjk4LDEuOTgtMS45OGgxNS4wN2MxLjA5LDAsMS45OCwwLjg5LDEuOTgsMS45OEMxOS4wMyw2OS4xOSwxOC4xNCw3MC4wNywxNy4wNSw3MC4wN3oiLz4mI3hhOwkJPC9nPiYjeGE7CQk8ZyBpZD0ic2hhcGUzMzUwLTM2IiB0cmFuc2Zvcm09InRyYW5zbGF0ZSg0OS4zODYyLC01LjE1NDY3KSI+JiN4YTsJCQk8dGl0bGUgaWQ9InRpdGxlMzg4MjciPlNoZWV0LjMzNTA8L3RpdGxlPiYjeGE7CQkJPHBhdGggaWQ9InBhdGgzODgyOSIgaW5rc2NhcGU6Y29ubmVjdG9yLWN1cnZhdHVyZT0iMCIgc3R5bGU9ImZpbGw6IzY2NjY2NjsiIGQ9Ik04Ljg4LDcwLjA3aC02LjlDMC44OSw3MC4wNywwLDY5LjE5LDAsNjguMDkgICAgIGMwLTEuMDksMC44OS0xLjk4LDEuOTgtMS45OGg2LjljMS4xLDAsMS45OCwwLjg5LDEuOTgsMS45OEMxMC44Niw2OS4xOSw5Ljk4LDcwLjA3LDguODgsNzAuMDd6Ii8+JiN4YTsJCTwvZz4mI3hhOwkJPGcgaWQ9InNoYXBlMzM1MS0zOCIgdHJhbnNmb3JtPSJ0cmFuc2xhdGUoMzAuODg0MSwtNS4xNTQ2NykiPiYjeGE7CQkJPHRpdGxlIGlkPSJ0aXRsZTM4ODMyIj5TaGVldC4zMzUxPC90aXRsZT4mI3hhOwkJCTxwYXRoIGlkPSJwYXRoMzg4MzQiIGlua3NjYXBlOmNvbm5lY3Rvci1jdXJ2YXR1cmU9IjAiIHN0eWxlPSJmaWxsOiM2NjY2NjY7IiBkPSJNMTQuMTQsNzAuMDdIMS45OEMwLjg5LDcwLjA3LDAsNjkuMTksMCw2OC4wOSAgICAgYzAtMS4wOSwwLjg5LTEuOTgsMS45OC0xLjk4aDEyLjE2YzEuMSwwLDEuOTgsMC44OSwxLjk4LDEuOThDMTYuMTIsNjkuMTksMTUuMjQsNzAuMDcsMTQuMTQsNzAuMDd6Ii8+JiN4YTsJCTwvZz4mI3hhOwkJPGcgaWQ9InNoYXBlMzM1Mi00MCIgdHJhbnNmb3JtPSJ0cmFuc2xhdGUoNC4xODgzMywtMjUuNjg0NSkiPiYjeGE7CQkJPHRpdGxlIGlkPSJ0aXRsZTM4ODM3Ij5TaGVldC4zMzUyPC90aXRsZT4mI3hhOwkJCTxwYXRoIGlkPSJwYXRoMzg4MzkiIGlua3NjYXBlOmNvbm5lY3Rvci1jdXJ2YXR1cmU9IjAiIHN0eWxlPSJmaWxsOiM2NjY2NjY7IiBkPSJNOC41OSw3MC4wN0gxLjk4QzAuODksNzAuMDcsMCw2OS4xOSwwLDY4LjA5ICAgICBjMC0xLjA5LDAuODktMS45OCwxLjk4LTEuOThoNi42MWMxLjEsMCwxLjk4LDAuODksMS45OCwxLjk4QzEwLjU3LDY5LjE5LDkuNjksNzAuMDcsOC41OSw3MC4wN3oiLz4mI3hhOwkJPC9nPiYjeGE7CQk8ZyBpZD0ic2hhcGUzMzUzLTQyIiB0cmFuc2Zvcm09InRyYW5zbGF0ZSg0LjE4ODMzLC0xOS4wNzY3KSI+JiN4YTsJCQk8dGl0bGUgaWQ9InRpdGxlMzg4NDIiPlNoZWV0LjMzNTM8L3RpdGxlPiYjeGE7CQkJPHBhdGggaWQ9InBhdGgzODg0NCIgaW5rc2NhcGU6Y29ubmVjdG9yLWN1cnZhdHVyZT0iMCIgc3R5bGU9ImZpbGw6IzY2NjY2NjsiIGQ9Ik04LjU5LDcwLjA3SDEuOThDMC44OSw3MC4wNywwLDY5LjE5LDAsNjguMDkgICAgIGMwLTEuMDksMC44OS0xLjk4LDEuOTgtMS45OGg2LjYxYzEuMSwwLDEuOTgsMC44OSwxLjk4LDEuOThDMTAuNTcsNjkuMTksOS42OSw3MC4wNyw4LjU5LDcwLjA3eiIvPiYjeGE7CQk8L2c+JiN4YTsJCTxnIGlkPSJzaGFwZTMzNTQtNDQiIHRyYW5zZm9ybT0idHJhbnNsYXRlKDI0LjMwMzgsLTUuMTU0MTQpIj4mI3hhOwkJCTx0aXRsZSBpZD0idGl0bGUzODg0NyI+U2hlZXQuMzM1NDwvdGl0bGU+JiN4YTsJCQk8Y2lyY2xlIGlkPSJlbGxpcHNlMzg4NDkiIHN0eWxlPSJmaWxsOiM2NjY2NjY7IiBjeD0iMS45OCIgY3k9IjY4LjA5IiByPSIxLjk4Ii8+JiN4YTsJCTwvZz4mI3hhOwkJPGcgaWQ9InNoYXBlMzM1NS00NiIgdHJhbnNmb3JtPSJ0cmFuc2xhdGUoNjUuMTI5OCkiPiYjeGE7CQkJPHRpdGxlIGlkPSJ0aXRsZTM4ODUyIj5TaGVldC4zMzU1PC90aXRsZT4mI3hhOwkJCSYjeGE7CQkJCTxwYXRoIGlkPSJwYXRoMzg4NTQiIGlua3NjYXBlOmNvbm5lY3Rvci1jdXJ2YXR1cmU9IjAiIHN0eWxlPSJmaWxsOiM3RjdGN0Y7c3Ryb2tlOiM1NTZBOEE7c3Ryb2tlLXdpZHRoOjEuNTtzdHJva2UtbWl0ZXJsaW1pdDozOyIgZD0iICAgICBNMjguOTQsNTUuOHYxNC4yN0gwVjU1LjhoNC4zNmg2LjM0aDEzLjQ4SDI4Ljk0eiIvPiYjeGE7CQk8L2c+JiN4YTsJCTxnIGlkPSJzaGFwZTMzNTYtNDgiIHRyYW5zZm9ybT0idHJhbnNsYXRlKDcyLjQyNzQsLTAuMDcyNDI4OCkiPiYjeGE7CQkJPHRpdGxlIGlkPSJ0aXRsZTM4ODU3Ij5yZWN0MTU4MTAuNDA2MDY8L3RpdGxlPiYjeGE7CQkJJiN4YTsJCQkJPHJlY3QgaWQ9InJlY3QzODg1OSIgeD0iMCIgeT0iNTgiIHN0eWxlPSJmaWxsOiNGRkZGRkY7c3Ryb2tlOiM1NTZBOEE7c3Ryb2tlLXdpZHRoOjEuNTtzdHJva2UtbWl0ZXJsaW1pdDozOyIgd2lkdGg9IjE0LjIiIGhlaWdodD0iMTIuMDciLz4mI3hhOwkJPC9nPiYjeGE7CQk8ZyBpZD0ic2hhcGUzMzU3LTUwIiB0cmFuc2Zvcm09InRyYW5zbGF0ZSg3Mi43ODI1LC0wLjc4MjQ3MykiPiYjeGE7CQkJPHRpdGxlIGlkPSJ0aXRsZTM4ODYyIj5yZWN0MTU4NjIuNDA2MDc8L3RpdGxlPiYjeGE7CQkJPHJlY3QgaWQ9InJlY3QzODg2NCIgeD0iMCIgeT0iNjAuODQiIHN0eWxlPSJmaWxsOiNENEY0RkQ7IiB3aWR0aD0iMTMuNDkiIGhlaWdodD0iOS4yMyIvPiYjeGE7CQk8L2c+JiN4YTsJCTxnIGlkPSJzaGFwZTMzNTgtNTIiIHRyYW5zZm9ybT0idHJhbnNsYXRlKDc4LjQ2MjgsLTAuNzgyNDczKSI+JiN4YTsJCQk8dGl0bGUgaWQ9InRpdGxlMzg4NjciPnJlY3QxNTg2NC40MDYwODwvdGl0bGU+JiN4YTsJCQk8cmVjdCBpZD0icmVjdDM4ODY5IiB4PSIwIiB5PSI2MC40OSIgc3R5bGU9ImZpbGw6IzgwQ0VFOTsiIHdpZHRoPSIyLjEzIiBoZWlnaHQ9IjkuNTkiLz4mI3hhOwkJPC9nPiYjeGE7CQk8ZyBpZD0ic2hhcGUzMzU5LTU0IiB0cmFuc2Zvcm09InRyYW5zbGF0ZSg3OS4xNzI5LC0wLjUxNjIwNikiPiYjeGE7CQkJPHRpdGxlIGlkPSJ0aXRsZTM4ODcyIj5yZWN0MTU4NjYuNDA2MDk8L3RpdGxlPiYjeGE7CQkJPHJlY3QgaWQ9InJlY3QzODg3NCIgeD0iMCIgeT0iNTkuMDciIHN0eWxlPSJmaWxsOiM1NTZBOEE7IiB3aWR0aD0iMC43MSIgaGVpZ2h0PSIxMS4wMSIvPiYjeGE7CQk8L2c+JiN4YTsJCTxnIGlkPSJzaGFwZTMzNjAtNTYiIHRyYW5zZm9ybT0idHJhbnNsYXRlKDcyLjc4MjUsLTEwLjAxMykiPiYjeGE7CQkJPHRpdGxlIGlkPSJ0aXRsZTM4ODc3Ij5yZWN0MTU4ODYuNDA2MTA8L3RpdGxlPiYjeGE7CQkJPHJlY3QgaWQ9InJlY3QzODg3OSIgeD0iMCIgeT0iNjguMyIgc3R5bGU9ImZpbGw6IzgwQ0VFOTsiIHdpZHRoPSIxMy40OSIgaGVpZ2h0PSIxLjc4Ii8+JiN4YTsJCTwvZz4mI3hhOwk8L2c+JiN4YTs8L2c+JiN4YTs8L3N2Zz4=;fillColor=#7DCAEE;" parent="XeZ66hk8IlVMuvrCLhNz-8" vertex="1">
          <mxGeometry x="30.349999999999998" y="352.4973295454545" width="63.77312499999999" height="45.83479166666667" as="geometry" />
        </mxCell>
        <mxCell id="RmzbV9Se9CzawkPMelnc-24" value="&lt;font style=&quot;font-size: 15px&quot;&gt;&lt;b&gt;&lt;font style=&quot;font-size: 15px&quot;&gt;EU&lt;/font&gt;&lt;/b&gt;&lt;/font&gt;" style="text;html=1;align=center;verticalAlign=middle;resizable=0;points=[];autosize=1;strokeColor=none;fillColor=none;" parent="XeZ66hk8IlVMuvrCLhNz-8" vertex="1">
          <mxGeometry x="29.75" y="410.0043371212121" width="40" height="20" as="geometry" />
        </mxCell>
        <mxCell id="RmzbV9Se9CzawkPMelnc-15" value="" style="shape=image;verticalLabelPosition=bottom;labelBackgroundColor=#ffffff;verticalAlign=top;aspect=fixed;imageAspect=0;image=data:image/svg+xml,PHN2ZyB4bWxuczpjYz0iaHR0cDovL2NyZWF0aXZlY29tbW9ucy5vcmcvbnMjIiB4bWxuczpkYz0iaHR0cDovL3B1cmwub3JnL2RjL2VsZW1lbnRzLzEuMS8iIHhtbG5zOmlua3NjYXBlPSJodHRwOi8vd3d3Lmlua3NjYXBlLm9yZy9uYW1lc3BhY2VzL2lua3NjYXBlIiB4bWxuczpyZGY9Imh0dHA6Ly93d3cudzMub3JnLzE5OTkvMDIvMjItcmRmLXN5bnRheC1ucyMiIHhtbG5zOnNvZGlwb2RpPSJodHRwOi8vc29kaXBvZGkuc291cmNlZm9yZ2UubmV0L0RURC9zb2RpcG9kaS0wLmR0ZCIgeG1sbnM6c3ZnPSJodHRwOi8vd3d3LnczLm9yZy8yMDAwL3N2ZyIgeG1sbnM9Imh0dHA6Ly93d3cudzMub3JnLzIwMDAvc3ZnIiB4bWxuczp4bGluaz0iaHR0cDovL3d3dy53My5vcmcvMTk5OS94bGluayIgdmVyc2lvbj0iMS4xIiBpZD0ic3ZnMzg4ODUiIGlua3NjYXBlOnZlcnNpb249IjAuOTIuMyAoMjQwNTU0NiwgMjAxOC0wMy0xMSkiIHNvZGlwb2RpOmRvY25hbWU9ImZhY3RvcnlfMS5zdmciIHg9IjBweCIgeT0iMHB4IiB2aWV3Qm94PSIwIDAgOTUuNTcgNjguNTciIHN0eWxlPSJlbmFibGUtYmFja2dyb3VuZDpuZXcgMCAwIDk1LjU3IDY4LjU3OyIgeG1sOnNwYWNlPSJwcmVzZXJ2ZSI+JiN4YTs8c29kaXBvZGk6bmFtZWR2aWV3IGJvcmRlcmNvbG9yPSIjNjY2NjY2IiBib3JkZXJvcGFjaXR5PSIxIiBmaXQtbWFyZ2luLWJvdHRvbT0iMCIgZml0LW1hcmdpbi1sZWZ0PSIwIiBmaXQtbWFyZ2luLXJpZ2h0PSIwIiBmaXQtbWFyZ2luLXRvcD0iMCIgZ3JpZHRvbGVyYW5jZT0iMTAiIGd1aWRldG9sZXJhbmNlPSIxMCIgaWQ9Im5hbWVkdmlldzM4ODg3IiBpbmtzY2FwZTpjdXJyZW50LWxheWVyPSJzdmczODg4NSIgaW5rc2NhcGU6Y3g9IjYzLjcxMzExOCIgaW5rc2NhcGU6Y3k9IjQ1LjcxMTA1NiIgaW5rc2NhcGU6cGFnZW9wYWNpdHk9IjAiIGlua3NjYXBlOnBhZ2VzaGFkb3c9IjIiIGlua3NjYXBlOndpbmRvdy1oZWlnaHQ9IjEwMTciIGlua3NjYXBlOndpbmRvdy1tYXhpbWl6ZWQ9IjEiIGlua3NjYXBlOndpbmRvdy13aWR0aD0iMTkyMCIgaW5rc2NhcGU6d2luZG93LXg9Ii04IiBpbmtzY2FwZTp3aW5kb3cteT0iLTgiIGlua3NjYXBlOnpvb209IjkuMjc5NTUyNCIgb2JqZWN0dG9sZXJhbmNlPSIxMCIgcGFnZWNvbG9yPSIjZmZmZmZmIiBzaG93Z3JpZD0iZmFsc2UiPiYjeGE7CTwvc29kaXBvZGk6bmFtZWR2aWV3PiYjeGE7PGcgaWQ9ImczODg4MyIgdHJhbnNmb3JtPSJ0cmFuc2xhdGUoLTAuNzUsLTAuNzQ1MSkiPiYjeGE7CTx0aXRsZSBpZD0idGl0bGUzODczOCI+UGFnZS0xPC90aXRsZT4mI3hhOwk8ZyBpZD0iZ3JvdXAzMzMyLTEiIHRyYW5zZm9ybT0idHJhbnNsYXRlKDEuNSwtMS41KSI+JiN4YTsJCTx0aXRsZSBpZD0idGl0bGUzODc0MCI+RmFjdG9yeSAjMTwvdGl0bGU+JiN4YTsJCTxnIGlkPSJzaGFwZTMzMzMtMiIgdHJhbnNmb3JtPSJ0cmFuc2xhdGUoMjMuNTY4MSwtMzQuNzk5NikiPiYjeGE7CQkJPHRpdGxlIGlkPSJ0aXRsZTM4NzQyIj5TaGVldC4zMzMzPC90aXRsZT4mI3hhOwkJCSYjeGE7CQkJCTxwYXRoIGlkPSJwYXRoMzg3NDQiIGlua3NjYXBlOmNvbm5lY3Rvci1jdXJ2YXR1cmU9IjAiIHN0eWxlPSJmaWxsOiNGMkYyRjI7c3Ryb2tlOiM1NTZBOEE7c3Ryb2tlLXdpZHRoOjEuNTtzdHJva2UtbWl0ZXJsaW1pdDozOyIgZD0iICAgICBNOS41LDQ0LjAxbDEuMiwyNi4wNkgwbDEuMTktMjYuMDZIOS41eiIvPiYjeGE7CQk8L2c+JiN4YTsJCTxnIGlkPSJzaGFwZTMzMzQtNCIgdHJhbnNmb3JtPSJ0cmFuc2xhdGUoMjMuOTkwMiwtNjAuMDQ0OSkiPiYjeGE7CQkJPHRpdGxlIGlkPSJ0aXRsZTM4NzQ3Ij5TaGVldC4zMzM0PC90aXRsZT4mI3hhOwkJCTxwYXRoIGlkPSJwYXRoMzg3NDkiIGlua3NjYXBlOmNvbm5lY3Rvci1jdXJ2YXR1cmU9IjAiIHN0eWxlPSJmaWxsOiNDMDAwMDA7IiBkPSJNOS42OSw2Mi4yOWwwLjM4LDcuNzhIMGwwLjM4LTcuNzhIOS42OXoiLz4mI3hhOwkJPC9nPiYjeGE7CQk8ZyBpZD0ic2hhcGUzMzM1LTYiIHRyYW5zZm9ybT0idHJhbnNsYXRlKDcuNjQ2NjMsLTM0Ljc5OTYpIj4mI3hhOwkJCTx0aXRsZSBpZD0idGl0bGUzODc1MiI+U2hlZXQuMzMzNTwvdGl0bGU+JiN4YTsJCQkmI3hhOwkJCQk8cGF0aCBpZD0icGF0aDM4NzU0IiBpbmtzY2FwZTpjb25uZWN0b3ItY3VydmF0dXJlPSIwIiBzdHlsZT0iZmlsbDojRjJGMkYyO3N0cm9rZTojNTU2QThBO3N0cm9rZS13aWR0aDoxLjU7c3Ryb2tlLW1pdGVybGltaXQ6MzsiIGQ9IiAgICAgTTkuNSw0NC4wMWwxLjIsMjYuMDZIMGwxLjE5LTI2LjA2SDkuNXoiLz4mI3hhOwkJPC9nPiYjeGE7CQk8ZyBpZD0ic2hhcGUzMzM2LTgiIHRyYW5zZm9ybT0idHJhbnNsYXRlKDEyLjk3MjIsLTM0Ljk2MTIpIj4mI3hhOwkJCTx0aXRsZSBpZD0idGl0bGUzODc1NyI+U2hlZXQuMzMzNjwvdGl0bGU+JiN4YTsJCQk8cGF0aCBpZD0icGF0aDM4NzU5IiBpbmtzY2FwZTpjb25uZWN0b3ItY3VydmF0dXJlPSIwIiBzdHlsZT0iZmlsbDojQjhDMUNFOyIgZD0iTTQuMDIsNDUuMDlIMGwwLjEsMjQuOThoNS4xMUw0LjAyLDQ1LjA5eiIvPiYjeGE7CQk8L2c+JiN4YTsJCTxnIGlkPSJzaGFwZTMzMzctMTAiIHRyYW5zZm9ybT0idHJhbnNsYXRlKDI4LjgzMTEsLTM1LjEwNDgpIj4mI3hhOwkJCTx0aXRsZSBpZD0idGl0bGUzODc2MiI+U2hlZXQuMzMzNzwvdGl0bGU+JiN4YTsJCQk8cGF0aCBpZD0icGF0aDM4NzY0IiBpbmtzY2FwZTpjb25uZWN0b3ItY3VydmF0dXJlPSIwIiBzdHlsZT0iZmlsbDojQjhDMUNFOyIgZD0iTTQuMDIsNDUuMDlIMGwwLjEsMjQuOThoNS4xMUw0LjAyLDQ1LjA5eiIvPiYjeGE7CQk8L2c+JiN4YTsJCTxnIGlkPSJzaGFwZTMzMzgtMTIiIHRyYW5zZm9ybT0idHJhbnNsYXRlKDguMTE4NywtNTkuOTQ0MikiPiYjeGE7CQkJPHRpdGxlIGlkPSJ0aXRsZTM4NzY3Ij5TaGVldC4zMzM4PC90aXRsZT4mI3hhOwkJCTxwYXRoIGlkPSJwYXRoMzg3NjkiIGlua3NjYXBlOmNvbm5lY3Rvci1jdXJ2YXR1cmU9IjAiIHN0eWxlPSJmaWxsOiNDMDAwMDA7IiBkPSJNOS40MSw2Mi4xOWwwLjM3LDcuODhIMGwwLjM3LTcuODhIOS40MXoiLz4mI3hhOwkJPC9nPiYjeGE7CQk8ZyBpZD0ic2hhcGUzMzM5LTE0IiB0cmFuc2Zvcm09InRyYW5zbGF0ZSgxNC43ODYzLC0xMC41MjUpIj4mI3hhOwkJCTx0aXRsZSBpZD0idGl0bGUzODc3MiI+U2hlZXQuMzMzOTwvdGl0bGU+JiN4YTsJCQk8cmVjdCBpZD0icmVjdDM4Nzc0IiB4PSIwIiB5PSI0NS4wOSIgc3R5bGU9ImZpbGw6I0I4QzFDRTsiIHdpZHRoPSIzMC45MiIgaGVpZ2h0PSIyNC45OCIvPiYjeGE7CQk8L2c+JiN4YTsJCTxnIGlkPSJzaGFwZTMzNDAtMTYiIHRyYW5zZm9ybT0idHJhbnNsYXRlKDc1LjgzNDYsLTExLjg0NjYpIj4mI3hhOwkJCTx0aXRsZSBpZD0idGl0bGUzODc3NyI+U2hlZXQuMzM0MDwvdGl0bGU+JiN4YTsJCQkmI3hhOwkJCQk8cGF0aCBpZD0icGF0aDM4Nzc5IiBpbmtzY2FwZTpjb25uZWN0b3ItY3VydmF0dXJlPSIwIiBzdHlsZT0iZmlsbDojQzAwMDAwO3N0cm9rZTojNTU2QThBO3N0cm9rZS13aWR0aDoxLjU7c3Ryb2tlLW1pdGVybGltaXQ6MzsiIGQ9IiAgICAgTTEzLjQ4LDU3LjM0djEwLjMxTDYuOSw3MC4wN0wwLDY3LjY1VjU3LjM0bDYuNjQtMi40MkwxMy40OCw1Ny4zNHoiLz4mI3hhOwkJPC9nPiYjeGE7CQk8ZyBpZD0ic2hhcGUzMzQxLTE4IiB0cmFuc2Zvcm09InRyYW5zbGF0ZSg1Ni4wMTEsLTEwLjcwMTMpIj4mI3hhOwkJCTx0aXRsZSBpZD0idGl0bGUzODc4MiI+U2hlZXQuMzM0MTwvdGl0bGU+JiN4YTsJCQkmI3hhOwkJCQk8cGF0aCBpZD0icGF0aDM4Nzg0IiBpbmtzY2FwZTpjb25uZWN0b3ItY3VydmF0dXJlPSIwIiBzdHlsZT0iZmlsbDojQzAwMDAwO3N0cm9rZTojNTU2QThBO3N0cm9rZS13aWR0aDoxLjU7c3Ryb2tlLW1pdGVybGltaXQ6MzsiIGQ9IiAgICAgTTEzLjQ4LDU2LjE5VjY2LjVsLTYuMzEsMy41N0wwLDY2LjVWNTYuMTlsNy4yNS0yLjVMMTMuNDgsNTYuMTl6Ii8+JiN4YTsJCTwvZz4mI3hhOwkJPGcgaWQ9InNoYXBlMzM0Mi0yMCIgdHJhbnNmb3JtPSJ0cmFuc2xhdGUoNjEuNTYxMSwtMzAuMTMxMSkiPiYjeGE7CQkJPHRpdGxlIGlkPSJ0aXRsZTM4Nzg3Ij5TaGVldC4zMzQyPC90aXRsZT4mI3hhOwkJCTxwYXRoIGlkPSJwYXRoMzg3ODkiIGlua3NjYXBlOmNvbm5lY3Rvci1jdXJ2YXR1cmU9IjAiIHN0eWxlPSJmaWxsOiNDMDAwMDA7IiBkPSJNMjIuMiw3MC4wN2gtMi4zOHYtMS4xOSAgICAgYzAtMi45LTIuMzYtNS4yNi01LjI2LTUuMjZINy42NGMtMi45LDAtNS4yNiwyLjM2LTUuMjYsNS4yNnYxLjE5SDB2LTEuMTljMC00LjIxLDMuNDMtNy42NCw3LjY0LTcuNjRoNi45MiAgICAgYzQuMjEsMCw3LjY0LDMuNDMsNy42NCw3LjY0TDIyLjIsNzAuMDd6Ii8+JiN4YTsJCTwvZz4mI3hhOwkJPGcgaWQ9InNoYXBlMzM0My0yMiIgdHJhbnNmb3JtPSJ0cmFuc2xhdGUoNzUuODM0NiwtMjQuNTgxMykiPiYjeGE7CQkJPHRpdGxlIGlkPSJ0aXRsZTM4NzkyIj5TaGVldC4zMzQzPC90aXRsZT4mI3hhOwkJCSYjeGE7CQkJCTxwYXRoIGlkPSJwYXRoMzg3OTQiIGlua3NjYXBlOmNvbm5lY3Rvci1jdXJ2YXR1cmU9IjAiIHN0eWxlPSJmaWxsOiM1NTZBOEE7c3Ryb2tlOiM1NTZBOEE7c3Ryb2tlLXdpZHRoOjEuNTtzdHJva2UtbWl0ZXJsaW1pdDozOyIgZD0iICAgICBNMTMuNDgsNzAuMDdIMGMwLTMuNzIsMy4wMi02Ljc0LDYuNzQtNi43NFMxMy40OCw2Ni4zNSwxMy40OCw3MC4wN3oiLz4mI3hhOwkJPC9nPiYjeGE7CQk8ZyBpZD0ic2hhcGUzMzQ0LTI0IiB0cmFuc2Zvcm09InRyYW5zbGF0ZSg2NC44MjYsLTE0LjI3MykiPiYjeGE7CQkJPHRpdGxlIGlkPSJ0aXRsZTM4Nzk3Ij5TaGVldC4zMzQ0PC90aXRsZT4mI3hhOwkJCTxwYXRoIGlkPSJwYXRoMzg3OTkiIGlua3NjYXBlOmNvbm5lY3Rvci1jdXJ2YXR1cmU9IjAiIHN0eWxlPSJmaWxsOiNEODI1MjU7IiBkPSJNNS4yMSw1OS43N3YxMC4zSDMuNTNIMHYtMTAuM0g1LjIxeiIvPiYjeGE7CQk8L2c+JiN4YTsJCTxnIGlkPSJzaGFwZTMzNDUtMjYiIHRyYW5zZm9ybT0idHJhbnNsYXRlKDg0LjkzNjMsLTEzLjc4ODMpIj4mI3hhOwkJCTx0aXRsZSBpZD0idGl0bGUzODgwMiI+U2hlZXQuMzM0NTwvdGl0bGU+JiN4YTsJCQk8cGF0aCBpZD0icGF0aDM4ODA0IiBpbmtzY2FwZTpjb25uZWN0b3ItY3VydmF0dXJlPSIwIiBzdHlsZT0iZmlsbDojRDgyNTI1OyIgZD0iTTUuMDIsNTkuNzd2MTAuM0gzLjRIMHYtMTAuM0g1LjAyeiIvPiYjeGE7CQk8L2c+JiN4YTsJCTxnIGlkPSJzaGFwZTMzNDYtMjgiIHRyYW5zZm9ybT0idHJhbnNsYXRlKDU2LjAxMSwtMjQuNTgxMykiPiYjeGE7CQkJPHRpdGxlIGlkPSJ0aXRsZTM4ODA3Ij5TaGVldC4zMzQ2PC90aXRsZT4mI3hhOwkJCSYjeGE7CQkJCTxwYXRoIGlkPSJwYXRoMzg4MDkiIGlua3NjYXBlOmNvbm5lY3Rvci1jdXJ2YXR1cmU9IjAiIHN0eWxlPSJmaWxsOiM1NTZBOEE7c3Ryb2tlOiM1NTZBOEE7c3Ryb2tlLXdpZHRoOjEuNTtzdHJva2UtbWl0ZXJsaW1pdDozOyIgZD0iICAgICBNMTMuNDgsNzAuMDdIMGMwLTMuNzIsMy4wMi02Ljc0LDYuNzQtNi43NFMxMy40OCw2Ni4zNSwxMy40OCw3MC4wN3oiLz4mI3hhOwkJPC9nPiYjeGE7CQk8ZyBpZD0ic2hhcGUzMzQ3LTMwIj4mI3hhOwkJCTx0aXRsZSBpZD0idGl0bGUzODgxMiI+U2hlZXQuMzM0NzwvdGl0bGU+JiN4YTsJCQkmI3hhOwkJCQk8cGF0aCBpZD0icGF0aDM4ODE0IiBpbmtzY2FwZTpjb25uZWN0b3ItY3VydmF0dXJlPSIwIiBzdHlsZT0iZmlsbDojRjJGMkYyO3N0cm9rZTojNTU2QThBO3N0cm9rZS13aWR0aDoxLjU7c3Ryb2tlLW1pdGVybGltaXQ6MzsiIGQ9IiAgICAgTTU5LjE4LDU1LjhoLTExLjJIMTkuNDJWMzQuNTdIMHYzNS41aDE5LjQyaDI4LjU2aDIxLjExVjU1LjhINTkuMTh6Ii8+JiN4YTsJCTwvZz4mI3hhOwkJPGcgaWQ9InNoYXBlMzM0OC0zMiIgdHJhbnNmb3JtPSJ0cmFuc2xhdGUoMjIuOTU0NywtMjUuNjg0NSkiPiYjeGE7CQkJPHRpdGxlIGlkPSJ0aXRsZTM4ODE3Ij5TaGVldC4zMzQ4PC90aXRsZT4mI3hhOwkJCTxwYXRoIGlkPSJwYXRoMzg4MTkiIGlua3NjYXBlOmNvbm5lY3Rvci1jdXJ2YXR1cmU9IjAiIHN0eWxlPSJmaWxsOiM2NjY2NjY7IiBkPSJNMTcuMDUsNzAuMDdIMS45OEMwLjg5LDcwLjA3LDAsNjkuMTksMCw2OC4wOSAgICAgYzAtMS4wOSwwLjg5LTEuOTgsMS45OC0xLjk4aDE1LjA3YzEuMDksMCwxLjk4LDAuODksMS45OCwxLjk4QzE5LjAzLDY5LjE5LDE4LjE0LDcwLjA3LDE3LjA1LDcwLjA3eiIvPiYjeGE7CQk8L2c+JiN4YTsJCTxnIGlkPSJzaGFwZTMzNDktMzQiIHRyYW5zZm9ybT0idHJhbnNsYXRlKDIyLjk1NDcsLTE5LjA3NjcpIj4mI3hhOwkJCTx0aXRsZSBpZD0idGl0bGUzODgyMiI+U2hlZXQuMzM0OTwvdGl0bGU+JiN4YTsJCQk8cGF0aCBpZD0icGF0aDM4ODI0IiBpbmtzY2FwZTpjb25uZWN0b3ItY3VydmF0dXJlPSIwIiBzdHlsZT0iZmlsbDojNjY2NjY2OyIgZD0iTTE3LjA1LDcwLjA3SDEuOThDMC44OSw3MC4wNywwLDY5LjE5LDAsNjguMDkgICAgIGMwLTEuMDksMC44OS0xLjk4LDEuOTgtMS45OGgxNS4wN2MxLjA5LDAsMS45OCwwLjg5LDEuOTgsMS45OEMxOS4wMyw2OS4xOSwxOC4xNCw3MC4wNywxNy4wNSw3MC4wN3oiLz4mI3hhOwkJPC9nPiYjeGE7CQk8ZyBpZD0ic2hhcGUzMzUwLTM2IiB0cmFuc2Zvcm09InRyYW5zbGF0ZSg0OS4zODYyLC01LjE1NDY3KSI+JiN4YTsJCQk8dGl0bGUgaWQ9InRpdGxlMzg4MjciPlNoZWV0LjMzNTA8L3RpdGxlPiYjeGE7CQkJPHBhdGggaWQ9InBhdGgzODgyOSIgaW5rc2NhcGU6Y29ubmVjdG9yLWN1cnZhdHVyZT0iMCIgc3R5bGU9ImZpbGw6IzY2NjY2NjsiIGQ9Ik04Ljg4LDcwLjA3aC02LjlDMC44OSw3MC4wNywwLDY5LjE5LDAsNjguMDkgICAgIGMwLTEuMDksMC44OS0xLjk4LDEuOTgtMS45OGg2LjljMS4xLDAsMS45OCwwLjg5LDEuOTgsMS45OEMxMC44Niw2OS4xOSw5Ljk4LDcwLjA3LDguODgsNzAuMDd6Ii8+JiN4YTsJCTwvZz4mI3hhOwkJPGcgaWQ9InNoYXBlMzM1MS0zOCIgdHJhbnNmb3JtPSJ0cmFuc2xhdGUoMzAuODg0MSwtNS4xNTQ2NykiPiYjeGE7CQkJPHRpdGxlIGlkPSJ0aXRsZTM4ODMyIj5TaGVldC4zMzUxPC90aXRsZT4mI3hhOwkJCTxwYXRoIGlkPSJwYXRoMzg4MzQiIGlua3NjYXBlOmNvbm5lY3Rvci1jdXJ2YXR1cmU9IjAiIHN0eWxlPSJmaWxsOiM2NjY2NjY7IiBkPSJNMTQuMTQsNzAuMDdIMS45OEMwLjg5LDcwLjA3LDAsNjkuMTksMCw2OC4wOSAgICAgYzAtMS4wOSwwLjg5LTEuOTgsMS45OC0xLjk4aDEyLjE2YzEuMSwwLDEuOTgsMC44OSwxLjk4LDEuOThDMTYuMTIsNjkuMTksMTUuMjQsNzAuMDcsMTQuMTQsNzAuMDd6Ii8+JiN4YTsJCTwvZz4mI3hhOwkJPGcgaWQ9InNoYXBlMzM1Mi00MCIgdHJhbnNmb3JtPSJ0cmFuc2xhdGUoNC4xODgzMywtMjUuNjg0NSkiPiYjeGE7CQkJPHRpdGxlIGlkPSJ0aXRsZTM4ODM3Ij5TaGVldC4zMzUyPC90aXRsZT4mI3hhOwkJCTxwYXRoIGlkPSJwYXRoMzg4MzkiIGlua3NjYXBlOmNvbm5lY3Rvci1jdXJ2YXR1cmU9IjAiIHN0eWxlPSJmaWxsOiM2NjY2NjY7IiBkPSJNOC41OSw3MC4wN0gxLjk4QzAuODksNzAuMDcsMCw2OS4xOSwwLDY4LjA5ICAgICBjMC0xLjA5LDAuODktMS45OCwxLjk4LTEuOThoNi42MWMxLjEsMCwxLjk4LDAuODksMS45OCwxLjk4QzEwLjU3LDY5LjE5LDkuNjksNzAuMDcsOC41OSw3MC4wN3oiLz4mI3hhOwkJPC9nPiYjeGE7CQk8ZyBpZD0ic2hhcGUzMzUzLTQyIiB0cmFuc2Zvcm09InRyYW5zbGF0ZSg0LjE4ODMzLC0xOS4wNzY3KSI+JiN4YTsJCQk8dGl0bGUgaWQ9InRpdGxlMzg4NDIiPlNoZWV0LjMzNTM8L3RpdGxlPiYjeGE7CQkJPHBhdGggaWQ9InBhdGgzODg0NCIgaW5rc2NhcGU6Y29ubmVjdG9yLWN1cnZhdHVyZT0iMCIgc3R5bGU9ImZpbGw6IzY2NjY2NjsiIGQ9Ik04LjU5LDcwLjA3SDEuOThDMC44OSw3MC4wNywwLDY5LjE5LDAsNjguMDkgICAgIGMwLTEuMDksMC44OS0xLjk4LDEuOTgtMS45OGg2LjYxYzEuMSwwLDEuOTgsMC44OSwxLjk4LDEuOThDMTAuNTcsNjkuMTksOS42OSw3MC4wNyw4LjU5LDcwLjA3eiIvPiYjeGE7CQk8L2c+JiN4YTsJCTxnIGlkPSJzaGFwZTMzNTQtNDQiIHRyYW5zZm9ybT0idHJhbnNsYXRlKDI0LjMwMzgsLTUuMTU0MTQpIj4mI3hhOwkJCTx0aXRsZSBpZD0idGl0bGUzODg0NyI+U2hlZXQuMzM1NDwvdGl0bGU+JiN4YTsJCQk8Y2lyY2xlIGlkPSJlbGxpcHNlMzg4NDkiIHN0eWxlPSJmaWxsOiM2NjY2NjY7IiBjeD0iMS45OCIgY3k9IjY4LjA5IiByPSIxLjk4Ii8+JiN4YTsJCTwvZz4mI3hhOwkJPGcgaWQ9InNoYXBlMzM1NS00NiIgdHJhbnNmb3JtPSJ0cmFuc2xhdGUoNjUuMTI5OCkiPiYjeGE7CQkJPHRpdGxlIGlkPSJ0aXRsZTM4ODUyIj5TaGVldC4zMzU1PC90aXRsZT4mI3hhOwkJCSYjeGE7CQkJCTxwYXRoIGlkPSJwYXRoMzg4NTQiIGlua3NjYXBlOmNvbm5lY3Rvci1jdXJ2YXR1cmU9IjAiIHN0eWxlPSJmaWxsOiM3RjdGN0Y7c3Ryb2tlOiM1NTZBOEE7c3Ryb2tlLXdpZHRoOjEuNTtzdHJva2UtbWl0ZXJsaW1pdDozOyIgZD0iICAgICBNMjguOTQsNTUuOHYxNC4yN0gwVjU1LjhoNC4zNmg2LjM0aDEzLjQ4SDI4Ljk0eiIvPiYjeGE7CQk8L2c+JiN4YTsJCTxnIGlkPSJzaGFwZTMzNTYtNDgiIHRyYW5zZm9ybT0idHJhbnNsYXRlKDcyLjQyNzQsLTAuMDcyNDI4OCkiPiYjeGE7CQkJPHRpdGxlIGlkPSJ0aXRsZTM4ODU3Ij5yZWN0MTU4MTAuNDA2MDY8L3RpdGxlPiYjeGE7CQkJJiN4YTsJCQkJPHJlY3QgaWQ9InJlY3QzODg1OSIgeD0iMCIgeT0iNTgiIHN0eWxlPSJmaWxsOiNGRkZGRkY7c3Ryb2tlOiM1NTZBOEE7c3Ryb2tlLXdpZHRoOjEuNTtzdHJva2UtbWl0ZXJsaW1pdDozOyIgd2lkdGg9IjE0LjIiIGhlaWdodD0iMTIuMDciLz4mI3hhOwkJPC9nPiYjeGE7CQk8ZyBpZD0ic2hhcGUzMzU3LTUwIiB0cmFuc2Zvcm09InRyYW5zbGF0ZSg3Mi43ODI1LC0wLjc4MjQ3MykiPiYjeGE7CQkJPHRpdGxlIGlkPSJ0aXRsZTM4ODYyIj5yZWN0MTU4NjIuNDA2MDc8L3RpdGxlPiYjeGE7CQkJPHJlY3QgaWQ9InJlY3QzODg2NCIgeD0iMCIgeT0iNjAuODQiIHN0eWxlPSJmaWxsOiNENEY0RkQ7IiB3aWR0aD0iMTMuNDkiIGhlaWdodD0iOS4yMyIvPiYjeGE7CQk8L2c+JiN4YTsJCTxnIGlkPSJzaGFwZTMzNTgtNTIiIHRyYW5zZm9ybT0idHJhbnNsYXRlKDc4LjQ2MjgsLTAuNzgyNDczKSI+JiN4YTsJCQk8dGl0bGUgaWQ9InRpdGxlMzg4NjciPnJlY3QxNTg2NC40MDYwODwvdGl0bGU+JiN4YTsJCQk8cmVjdCBpZD0icmVjdDM4ODY5IiB4PSIwIiB5PSI2MC40OSIgc3R5bGU9ImZpbGw6IzgwQ0VFOTsiIHdpZHRoPSIyLjEzIiBoZWlnaHQ9IjkuNTkiLz4mI3hhOwkJPC9nPiYjeGE7CQk8ZyBpZD0ic2hhcGUzMzU5LTU0IiB0cmFuc2Zvcm09InRyYW5zbGF0ZSg3OS4xNzI5LC0wLjUxNjIwNikiPiYjeGE7CQkJPHRpdGxlIGlkPSJ0aXRsZTM4ODcyIj5yZWN0MTU4NjYuNDA2MDk8L3RpdGxlPiYjeGE7CQkJPHJlY3QgaWQ9InJlY3QzODg3NCIgeD0iMCIgeT0iNTkuMDciIHN0eWxlPSJmaWxsOiM1NTZBOEE7IiB3aWR0aD0iMC43MSIgaGVpZ2h0PSIxMS4wMSIvPiYjeGE7CQk8L2c+JiN4YTsJCTxnIGlkPSJzaGFwZTMzNjAtNTYiIHRyYW5zZm9ybT0idHJhbnNsYXRlKDcyLjc4MjUsLTEwLjAxMykiPiYjeGE7CQkJPHRpdGxlIGlkPSJ0aXRsZTM4ODc3Ij5yZWN0MTU4ODYuNDA2MTA8L3RpdGxlPiYjeGE7CQkJPHJlY3QgaWQ9InJlY3QzODg3OSIgeD0iMCIgeT0iNjguMyIgc3R5bGU9ImZpbGw6IzgwQ0VFOTsiIHdpZHRoPSIxMy40OSIgaGVpZ2h0PSIxLjc4Ii8+JiN4YTsJCTwvZz4mI3hhOwk8L2c+JiN4YTs8L2c+JiN4YTs8L3N2Zz4=;fillColor=#7DCAEE;" parent="XeZ66hk8IlVMuvrCLhNz-8" vertex="1">
          <mxGeometry x="30.349999999999998" y="29.370549242424232" width="61.305625" height="44.0625" as="geometry" />
        </mxCell>
        <mxCell id="RmzbV9Se9CzawkPMelnc-22" value="&lt;p style=&quot;line-height: 1.6 ; font-size: 15px&quot;&gt;&lt;font style=&quot;font-size: 15px&quot;&gt;&lt;b&gt;NAO&lt;/b&gt;&lt;/font&gt;&lt;/p&gt;" style="text;html=1;align=center;verticalAlign=middle;resizable=0;points=[];autosize=1;strokeColor=none;fillColor=none;rotation=0;" parent="XeZ66hk8IlVMuvrCLhNz-8" vertex="1">
          <mxGeometry x="21.61" y="70.00454545454544" width="50" height="60" as="geometry" />
        </mxCell>
        <mxCell id="RmzbV9Se9CzawkPMelnc-19" value="" style="shape=image;verticalLabelPosition=bottom;labelBackgroundColor=#ffffff;verticalAlign=top;aspect=fixed;imageAspect=0;image=data:image/svg+xml,PHN2ZyB4bWxuczpjYz0iaHR0cDovL2NyZWF0aXZlY29tbW9ucy5vcmcvbnMjIiB4bWxuczpkYz0iaHR0cDovL3B1cmwub3JnL2RjL2VsZW1lbnRzLzEuMS8iIHhtbG5zOmlua3NjYXBlPSJodHRwOi8vd3d3Lmlua3NjYXBlLm9yZy9uYW1lc3BhY2VzL2lua3NjYXBlIiB4bWxuczpyZGY9Imh0dHA6Ly93d3cudzMub3JnLzE5OTkvMDIvMjItcmRmLXN5bnRheC1ucyMiIHhtbG5zOnNvZGlwb2RpPSJodHRwOi8vc29kaXBvZGkuc291cmNlZm9yZ2UubmV0L0RURC9zb2RpcG9kaS0wLmR0ZCIgeG1sbnM6c3ZnPSJodHRwOi8vd3d3LnczLm9yZy8yMDAwL3N2ZyIgeG1sbnM9Imh0dHA6Ly93d3cudzMub3JnLzIwMDAvc3ZnIiB4bWxuczp4bGluaz0iaHR0cDovL3d3dy53My5vcmcvMTk5OS94bGluayIgdmVyc2lvbj0iMS4xIiBpZD0ic3ZnNDI1NDMiIGlua3NjYXBlOnZlcnNpb249IjAuOTIuMyAoMjQwNTU0NiwgMjAxOC0wMy0xMSkiIHNvZGlwb2RpOmRvY25hbWU9ImV4Y2VsLnN2ZyIgeD0iMHB4IiB5PSIwcHgiIHZpZXdCb3g9IjAgMCAyOC43NSAzNy40NCIgc3R5bGU9ImVuYWJsZS1iYWNrZ3JvdW5kOm5ldyAwIDAgMjguNzUgMzcuNDQ7IiB4bWw6c3BhY2U9InByZXNlcnZlIj4mI3hhOzxzb2RpcG9kaTpuYW1lZHZpZXcgYm9yZGVyY29sb3I9IiM2NjY2NjYiIGJvcmRlcm9wYWNpdHk9IjEiIGZpdC1tYXJnaW4tYm90dG9tPSIwIiBmaXQtbWFyZ2luLWxlZnQ9IjAiIGZpdC1tYXJnaW4tcmlnaHQ9IjAiIGZpdC1tYXJnaW4tdG9wPSIwIiBncmlkdG9sZXJhbmNlPSIxMCIgZ3VpZGV0b2xlcmFuY2U9IjEwIiBpZD0ibmFtZWR2aWV3NDI1NDUiIGlua3NjYXBlOmN1cnJlbnQtbGF5ZXI9InN2ZzQyNTQzIiBpbmtzY2FwZTpjeD0iMTkuMTY5MjY5IiBpbmtzY2FwZTpjeT0iMjQuOTU5MTM4IiBpbmtzY2FwZTpwYWdlb3BhY2l0eT0iMCIgaW5rc2NhcGU6cGFnZXNoYWRvdz0iMiIgaW5rc2NhcGU6d2luZG93LWhlaWdodD0iMTAxNyIgaW5rc2NhcGU6d2luZG93LW1heGltaXplZD0iMSIgaW5rc2NhcGU6d2luZG93LXdpZHRoPSIxOTIwIiBpbmtzY2FwZTp3aW5kb3cteD0iLTgiIGlua3NjYXBlOndpbmRvdy15PSItOCIgaW5rc2NhcGU6em9vbT0iMTAuOTY0NjczIiBvYmplY3R0b2xlcmFuY2U9IjEwIiBwYWdlY29sb3I9IiNmZmZmZmYiIHNob3dncmlkPSJmYWxzZSI+JiN4YTsJPC9zb2RpcG9kaTpuYW1lZHZpZXc+JiN4YTs8ZyBpZD0iZzQyNTQxIiB0cmFuc2Zvcm09InRyYW5zbGF0ZSgtMTAuOTI4NiwtMTAuOTMxNCkiPiYjeGE7CTx0aXRsZSBpZD0idGl0bGU0MjQ5NSI+UGFnZS0xPC90aXRsZT4mI3hhOwk8ZyBpZD0iZ3JvdXA0MDM3LTEiIHRyYW5zZm9ybT0idHJhbnNsYXRlKDEwLjkyODYsLTEwLjkyODYpIj4mI3hhOwkJPHRpdGxlIGlkPSJ0aXRsZTQyNDk3Ij5FeGNlbDwvdGl0bGU+JiN4YTsJCTxnIGlkPSJncm91cDQwMzgtMiI+JiN4YTsJCQk8dGl0bGUgaWQ9InRpdGxlNDI0OTkiPlNoZWV0LjQwMzg8L3RpdGxlPiYjeGE7CQkJPGcgaWQ9InNoYXBlNDAzOS0zIj4mI3hhOwkJCQk8dGl0bGUgaWQ9InRpdGxlNDI1MDEiPlNoZWV0LjQwMzk8L3RpdGxlPiYjeGE7CQkJCTxwYXRoIGlkPSJwYXRoNDI1MDMiIGlua3NjYXBlOmNvbm5lY3Rvci1jdXJ2YXR1cmU9IjAiIHN0eWxlPSJmaWxsOiNFOUU5RTA7IiBkPSJNMjAuMzksMjEuODZIMC45OEMwLjQ0LDIxLjg2LDAsMjIuMywwLDIzLjE1ICAgICAgdjM1LjQ5YzAsMC4yMywwLjQ0LDAuNjYsMC45OCwwLjY2aDI2LjhjMC41NCwwLDAuOTctMC40MywwLjk3LTAuNjZ2LTI4LjFjMC0wLjQ3LTAuMDYtMC42Mi0wLjE3LTAuNzNsLTcuNzgtNy43OCAgICAgIEMyMC42OSwyMS45MiwyMC41NCwyMS44NiwyMC4zOSwyMS44NnoiLz4mI3hhOwkJCTwvZz4mI3hhOwkJCTxnIGlkPSJzaGFwZTQwNDAtNSIgdHJhbnNmb3JtPSJ0cmFuc2xhdGUoMjAuNzI5NiwtMjkuNDIyNikiPiYjeGE7CQkJCTx0aXRsZSBpZD0idGl0bGU0MjUwNiI+U2hlZXQuNDA0MDwvdGl0bGU+JiN4YTsJCQkJPHBhdGggaWQ9InBhdGg0MjUwOCIgaW5rc2NhcGU6Y29ubmVjdG9yLWN1cnZhdHVyZT0iMCIgc3R5bGU9ImZpbGw6I0Q5RDdDQTsiIGQ9Ik0wLDUxLjM4djcuOTJoNy45MkwwLDUxLjM4eiIvPiYjeGE7CQkJPC9nPiYjeGE7CQkJPGcgaWQ9InNoYXBlNDA0MS03Ij4mI3hhOwkJCQk8dGl0bGUgaWQ9InRpdGxlNDI1MTEiPlNoZWV0LjQwNDE8L3RpdGxlPiYjeGE7CQkJCTxwYXRoIGlkPSJwYXRoNDI1MTMiIGlua3NjYXBlOmNvbm5lY3Rvci1jdXJ2YXR1cmU9IjAiIHN0eWxlPSJmaWxsOiM5REJCNjE7IiBkPSJNMjcuNzgsNTkuM0gwLjk4QzAuNDQsNTkuMywwLDU4Ljg3LDAsNTguMzMgICAgICBWNDcuOTRoMjguNzV2MTAuMzlDMjguNzUsNTguODcsMjguMzIsNTkuMywyNy43OCw1OS4zeiIvPiYjeGE7CQkJPC9nPiYjeGE7CQkJPGcgaWQ9Imdyb3VwNDA0Mi05IiB0cmFuc2Zvcm09InRyYW5zbGF0ZSg2LjAyNjI5LC0xLjk2OTk4KSI+JiN4YTsJCQkJPHRpdGxlIGlkPSJ0aXRsZTQyNTE2Ij5TaGVldC40MDQyPC90aXRsZT4mI3hhOwkJCQk8ZyBpZD0ic2hhcGU0MDQzLTEwIiB0cmFuc2Zvcm09InRyYW5zbGF0ZSgwLC0wLjAzNjEwOTYpIj4mI3hhOwkJCQkJPHRpdGxlIGlkPSJ0aXRsZTQyNTE4Ij5TaGVldC40MDQzPC90aXRsZT4mI3hhOwkJCQkJPHBhdGggaWQ9InBhdGg0MjUyMCIgaW5rc2NhcGU6Y29ubmVjdG9yLWN1cnZhdHVyZT0iMCIgc3R5bGU9ImZpbGw6I0ZGRkZGRjsiIGQ9Ik0zLjI1LDU2LjAzbDEuNzEsMy4yN0gzLjY5bC0xLjA3LTIuNTRIMi41MyAgICAgICBMMS4zOCw1OS4zSDAuMTFsMS43MS0zLjI3TDAsNTIuNTdoMS4yNWwxLjE5LDIuNzRoMC4wOWwxLjI5LTIuNzRoMS4yNUwzLjI1LDU2LjAzeiIvPiYjeGE7CQkJCTwvZz4mI3hhOwkJCQk8ZyBpZD0ic2hhcGU0MDQ0LTEyIiB0cmFuc2Zvcm09InRyYW5zbGF0ZSg2LjU5MTM0LC0wLjAzNjEwOTYpIj4mI3hhOwkJCQkJPHRpdGxlIGlkPSJ0aXRsZTQyNTIzIj5TaGVldC40MDQ0PC90aXRsZT4mI3hhOwkJCQkJPHBhdGggaWQ9InBhdGg0MjUyNSIgaW5rc2NhcGU6Y29ubmVjdG9yLWN1cnZhdHVyZT0iMCIgc3R5bGU9ImZpbGw6I0ZGRkZGRjsiIGQ9Ik0xLjEyLDUyLjU3djUuOWgzLjA5djAuODNIMHYtNi43M0gxLjEyeiIvPiYjeGE7CQkJCTwvZz4mI3hhOwkJCQk8ZyBpZD0ic2hhcGU0MDQ1LTE0IiB0cmFuc2Zvcm09InRyYW5zbGF0ZSgxMS44MjA1KSI+JiN4YTsJCQkJCTx0aXRsZSBpZD0idGl0bGU0MjUyOCI+U2hlZXQuNDA0NTwvdGl0bGU+JiN4YTsJCQkJCTxwYXRoIGlkPSJwYXRoNDI1MzAiIGlua3NjYXBlOmNvbm5lY3Rvci1jdXJ2YXR1cmU9IjAiIHN0eWxlPSJmaWxsOiNGRkZGRkY7IiBkPSJNMy45MSw1Ny40MmMwLDAuMjQtMC4wNSwwLjQ4LTAuMTUsMC43MSAgICAgICBjLTAuMSwwLjIzLTAuMjQsMC40My0wLjQyLDAuNmMtMC4xOSwwLjE4LTAuNDEsMC4zMi0wLjY4LDAuNDJTMi4wOSw1OS4zLDEuNzUsNTkuM2MtMC4xNSwwLTAuMywwLTAuNDYtMC4wMiAgICAgICBjLTAuMTUtMC4wMS0wLjMxLTAuMDQtMC40Ny0wLjA4Yy0wLjE2LTAuMDMtMC4zMS0wLjA4LTAuNDUtMC4xNUMwLjIzLDU4Ljk5LDAuMSw1OC45MSwwLDU4LjgybDAuMTktMC43OSAgICAgICBjMC4wOSwwLjA1LDAuMiwwLjEsMC4zMywwLjE0YzAuMTMsMC4wNSwwLjI2LDAuMDksMC40LDAuMTNzMC4yOCwwLjA3LDAuNDIsMC4xYzAuMTQsMC4wMiwwLjI3LDAuMDQsMC40LDAuMDQgICAgICAgYzAuMzcsMCwwLjY1LTAuMDksMC44NS0wLjI3YzAuMi0wLjE3LDAuMy0wLjQzLDAuMy0wLjc3YzAtMC4yLTAuMDctMC4zOC0wLjIxLTAuNTNjLTAuMTQtMC4xNC0wLjMyLTAuMjgtMC41My0wLjQgICAgICAgYy0wLjIxLTAuMTEtMC40My0wLjIzLTAuNjgtMC4zNUMxLjIzLDU2LDEsNTUuODYsMC43OSw1NS43Yy0wLjIyLTAuMTYtMC4zOS0wLjM1LTAuNTMtMC41N2MtMC4xNC0wLjIyLTAuMjEtMC41LTAuMjEtMC44MyAgICAgICBjMC0wLjI5LDAuMDUtMC41NiwwLjE2LTAuNzlzMC4yNi0wLjQzLDAuNDQtMC41OWMwLjE5LTAuMTYsMC40MS0wLjI5LDAuNjUtMC4zN2MwLjI1LTAuMDksMC41MS0wLjEzLDAuNzgtMC4xMyAgICAgICBjMC4yOCwwLDAuNTcsMC4wMywwLjg1LDAuMDhjMC4yOSwwLjA1LDAuNTIsMC4xMywwLjcsMC4yNWMtMC4wNCwwLjA4LTAuMDgsMC4xNy0wLjEzLDAuMjZjLTAuMDUsMC4xLTAuMDksMC4xOC0wLjE0LDAuMjcgICAgICAgYy0wLjA0LDAuMDgtMC4wOCwwLjE1LTAuMTEsMC4yYy0wLjAzLDAuMDYtMC4wNCwwLjA5LTAuMDUsMC4wOWMtMC4wNC0wLjAyLTAuMDgtMC4wNC0wLjEyLTAuMDdjLTAuMDUtMC4wMy0wLjEyLTAuMDYtMC4yLTAuMDkgICAgICAgYy0wLjA5LTAuMDMtMC4yLTAuMDUtMC4zNC0wLjA3QzIuNCw1My4zMywyLjIyLDUzLjMzLDIsNTMuMzVjLTAuMTIsMC4wMi0wLjI0LDAuMDUtMC4zNSwwLjExYy0wLjExLDAuMDYtMC4yLDAuMTMtMC4yOSwwLjIxICAgICAgIGMtMC4wOCwwLjA5LTAuMTUsMC4xOC0wLjIsMC4yOWMtMC4wNSwwLjExLTAuMDcsMC4yMS0wLjA3LDAuMzFjMCwwLjI0LDAuMDcsMC40NCwwLjIxLDAuNTlzMC4zMSwwLjI4LDAuNTIsMC4zOSAgICAgICBjMC4yLDAuMTEsMC40MywwLjIyLDAuNjcsMC4zM2MwLjI1LDAuMTEsMC40NywwLjI0LDAuNjksMC4zOWMwLjIxLDAuMTUsMC4zOCwwLjM0LDAuNTIsMC41N1MzLjkxLDU3LjA2LDMuOTEsNTcuNDJ6Ii8+JiN4YTsJCQkJPC9nPiYjeGE7CQkJPC9nPiYjeGE7CQkJPGcgaWQ9InNoYXBlNDA0Ni0xNiIgdHJhbnNmb3JtPSJ0cmFuc2xhdGUoMy4zNDM0OCwtMTQuNzExMykiPiYjeGE7CQkJCTx0aXRsZSBpZD0idGl0bGU0MjUzNCI+U2hlZXQuNDA0NjwvdGl0bGU+JiN4YTsJCQkJPHBhdGggaWQ9InBhdGg0MjUzNiIgaW5rc2NhcGU6Y29ubmVjdG9yLWN1cnZhdHVyZT0iMCIgc3R5bGU9ImZpbGw6I0M4QkRCODsiIGQ9Ik04LjAyLDQ3LjI3di0yLjY4SDB2Mi42OHYxLjMzdjEuMzR2MS4zNHYxLjM0ICAgICAgdjEuMzN2MS4zNHYxLjM0djIuNjdoNi42OWgxLjMzaDE0LjA1di0yLjY3di0xLjM0di0xLjM0di0xLjMzdi0xLjM0di0xLjM0di0yLjY3SDguMDJ6IE0xLjM0LDQ1LjkzaDUuMzV2MS4zNEgxLjM0VjQ1LjkzeiAgICAgICBNMS4zNCw0OC42aDUuMzV2MS4zNEgxLjM0VjQ4LjZ6IE0xLjM0LDUxLjI4aDUuMzV2MS4zNEgxLjM0VjUxLjI4eiBNMS4zNCw1My45NWg1LjM1djEuMzRIMS4zNFY1My45NXogTTYuNjksNTcuOTdIMS4zNHYtMS4zNCAgICAgIGg1LjM1VjU3Ljk3eiBNMjAuNzMsNTcuOTdIOC4wMnYtMS4zNGgxMi43MVY1Ny45N3ogTTIwLjczLDU1LjI5SDguMDJ2LTEuMzRoMTIuNzFWNTUuMjl6IE0yMC43Myw1Mi42Mkg4LjAydi0xLjM0aDEyLjcxVjUyLjYyeiAgICAgICBNOC4wMiw0OS45NFY0OC42aDEyLjcxdjEuMzRIOC4wMnoiLz4mI3hhOwkJCTwvZz4mI3hhOwkJPC9nPiYjeGE7CTwvZz4mI3hhOzwvZz4mI3hhOzwvc3ZnPg==;fillColor=#7DCAEE;" parent="XeZ66hk8IlVMuvrCLhNz-8" vertex="1">
          <mxGeometry x="31.610000000000092" y="-0.0008901515151507056" width="20.719166666666666" height="26.4375" as="geometry" />
        </mxCell>
        <mxCell id="RmzbV9Se9CzawkPMelnc-18" value="" style="shape=image;verticalLabelPosition=bottom;labelBackgroundColor=#ffffff;verticalAlign=top;aspect=fixed;imageAspect=0;image=data:image/svg+xml,PHN2ZyB4bWxuczpjYz0iaHR0cDovL2NyZWF0aXZlY29tbW9ucy5vcmcvbnMjIiB4bWxuczpkYz0iaHR0cDovL3B1cmwub3JnL2RjL2VsZW1lbnRzLzEuMS8iIHhtbG5zOmlua3NjYXBlPSJodHRwOi8vd3d3Lmlua3NjYXBlLm9yZy9uYW1lc3BhY2VzL2lua3NjYXBlIiB4bWxuczpyZGY9Imh0dHA6Ly93d3cudzMub3JnLzE5OTkvMDIvMjItcmRmLXN5bnRheC1ucyMiIHhtbG5zOnNvZGlwb2RpPSJodHRwOi8vc29kaXBvZGkuc291cmNlZm9yZ2UubmV0L0RURC9zb2RpcG9kaS0wLmR0ZCIgeG1sbnM6c3ZnPSJodHRwOi8vd3d3LnczLm9yZy8yMDAwL3N2ZyIgeG1sbnM9Imh0dHA6Ly93d3cudzMub3JnLzIwMDAvc3ZnIiB4bWxuczp4bGluaz0iaHR0cDovL3d3dy53My5vcmcvMTk5OS94bGluayIgdmVyc2lvbj0iMS4xIiBpZD0ic3ZnNDI1NDMiIGlua3NjYXBlOnZlcnNpb249IjAuOTIuMyAoMjQwNTU0NiwgMjAxOC0wMy0xMSkiIHNvZGlwb2RpOmRvY25hbWU9ImV4Y2VsLnN2ZyIgeD0iMHB4IiB5PSIwcHgiIHZpZXdCb3g9IjAgMCAyOC43NSAzNy40NCIgc3R5bGU9ImVuYWJsZS1iYWNrZ3JvdW5kOm5ldyAwIDAgMjguNzUgMzcuNDQ7IiB4bWw6c3BhY2U9InByZXNlcnZlIj4mI3hhOzxzb2RpcG9kaTpuYW1lZHZpZXcgYm9yZGVyY29sb3I9IiM2NjY2NjYiIGJvcmRlcm9wYWNpdHk9IjEiIGZpdC1tYXJnaW4tYm90dG9tPSIwIiBmaXQtbWFyZ2luLWxlZnQ9IjAiIGZpdC1tYXJnaW4tcmlnaHQ9IjAiIGZpdC1tYXJnaW4tdG9wPSIwIiBncmlkdG9sZXJhbmNlPSIxMCIgZ3VpZGV0b2xlcmFuY2U9IjEwIiBpZD0ibmFtZWR2aWV3NDI1NDUiIGlua3NjYXBlOmN1cnJlbnQtbGF5ZXI9InN2ZzQyNTQzIiBpbmtzY2FwZTpjeD0iMTkuMTY5MjY5IiBpbmtzY2FwZTpjeT0iMjQuOTU5MTM4IiBpbmtzY2FwZTpwYWdlb3BhY2l0eT0iMCIgaW5rc2NhcGU6cGFnZXNoYWRvdz0iMiIgaW5rc2NhcGU6d2luZG93LWhlaWdodD0iMTAxNyIgaW5rc2NhcGU6d2luZG93LW1heGltaXplZD0iMSIgaW5rc2NhcGU6d2luZG93LXdpZHRoPSIxOTIwIiBpbmtzY2FwZTp3aW5kb3cteD0iLTgiIGlua3NjYXBlOndpbmRvdy15PSItOCIgaW5rc2NhcGU6em9vbT0iMTAuOTY0NjczIiBvYmplY3R0b2xlcmFuY2U9IjEwIiBwYWdlY29sb3I9IiNmZmZmZmYiIHNob3dncmlkPSJmYWxzZSI+JiN4YTsJPC9zb2RpcG9kaTpuYW1lZHZpZXc+JiN4YTs8ZyBpZD0iZzQyNTQxIiB0cmFuc2Zvcm09InRyYW5zbGF0ZSgtMTAuOTI4NiwtMTAuOTMxNCkiPiYjeGE7CTx0aXRsZSBpZD0idGl0bGU0MjQ5NSI+UGFnZS0xPC90aXRsZT4mI3hhOwk8ZyBpZD0iZ3JvdXA0MDM3LTEiIHRyYW5zZm9ybT0idHJhbnNsYXRlKDEwLjkyODYsLTEwLjkyODYpIj4mI3hhOwkJPHRpdGxlIGlkPSJ0aXRsZTQyNDk3Ij5FeGNlbDwvdGl0bGU+JiN4YTsJCTxnIGlkPSJncm91cDQwMzgtMiI+JiN4YTsJCQk8dGl0bGUgaWQ9InRpdGxlNDI0OTkiPlNoZWV0LjQwMzg8L3RpdGxlPiYjeGE7CQkJPGcgaWQ9InNoYXBlNDAzOS0zIj4mI3hhOwkJCQk8dGl0bGUgaWQ9InRpdGxlNDI1MDEiPlNoZWV0LjQwMzk8L3RpdGxlPiYjeGE7CQkJCTxwYXRoIGlkPSJwYXRoNDI1MDMiIGlua3NjYXBlOmNvbm5lY3Rvci1jdXJ2YXR1cmU9IjAiIHN0eWxlPSJmaWxsOiNFOUU5RTA7IiBkPSJNMjAuMzksMjEuODZIMC45OEMwLjQ0LDIxLjg2LDAsMjIuMywwLDIzLjE1ICAgICAgdjM1LjQ5YzAsMC4yMywwLjQ0LDAuNjYsMC45OCwwLjY2aDI2LjhjMC41NCwwLDAuOTctMC40MywwLjk3LTAuNjZ2LTI4LjFjMC0wLjQ3LTAuMDYtMC42Mi0wLjE3LTAuNzNsLTcuNzgtNy43OCAgICAgIEMyMC42OSwyMS45MiwyMC41NCwyMS44NiwyMC4zOSwyMS44NnoiLz4mI3hhOwkJCTwvZz4mI3hhOwkJCTxnIGlkPSJzaGFwZTQwNDAtNSIgdHJhbnNmb3JtPSJ0cmFuc2xhdGUoMjAuNzI5NiwtMjkuNDIyNikiPiYjeGE7CQkJCTx0aXRsZSBpZD0idGl0bGU0MjUwNiI+U2hlZXQuNDA0MDwvdGl0bGU+JiN4YTsJCQkJPHBhdGggaWQ9InBhdGg0MjUwOCIgaW5rc2NhcGU6Y29ubmVjdG9yLWN1cnZhdHVyZT0iMCIgc3R5bGU9ImZpbGw6I0Q5RDdDQTsiIGQ9Ik0wLDUxLjM4djcuOTJoNy45MkwwLDUxLjM4eiIvPiYjeGE7CQkJPC9nPiYjeGE7CQkJPGcgaWQ9InNoYXBlNDA0MS03Ij4mI3hhOwkJCQk8dGl0bGUgaWQ9InRpdGxlNDI1MTEiPlNoZWV0LjQwNDE8L3RpdGxlPiYjeGE7CQkJCTxwYXRoIGlkPSJwYXRoNDI1MTMiIGlua3NjYXBlOmNvbm5lY3Rvci1jdXJ2YXR1cmU9IjAiIHN0eWxlPSJmaWxsOiM5REJCNjE7IiBkPSJNMjcuNzgsNTkuM0gwLjk4QzAuNDQsNTkuMywwLDU4Ljg3LDAsNTguMzMgICAgICBWNDcuOTRoMjguNzV2MTAuMzlDMjguNzUsNTguODcsMjguMzIsNTkuMywyNy43OCw1OS4zeiIvPiYjeGE7CQkJPC9nPiYjeGE7CQkJPGcgaWQ9Imdyb3VwNDA0Mi05IiB0cmFuc2Zvcm09InRyYW5zbGF0ZSg2LjAyNjI5LC0xLjk2OTk4KSI+JiN4YTsJCQkJPHRpdGxlIGlkPSJ0aXRsZTQyNTE2Ij5TaGVldC40MDQyPC90aXRsZT4mI3hhOwkJCQk8ZyBpZD0ic2hhcGU0MDQzLTEwIiB0cmFuc2Zvcm09InRyYW5zbGF0ZSgwLC0wLjAzNjEwOTYpIj4mI3hhOwkJCQkJPHRpdGxlIGlkPSJ0aXRsZTQyNTE4Ij5TaGVldC40MDQzPC90aXRsZT4mI3hhOwkJCQkJPHBhdGggaWQ9InBhdGg0MjUyMCIgaW5rc2NhcGU6Y29ubmVjdG9yLWN1cnZhdHVyZT0iMCIgc3R5bGU9ImZpbGw6I0ZGRkZGRjsiIGQ9Ik0zLjI1LDU2LjAzbDEuNzEsMy4yN0gzLjY5bC0xLjA3LTIuNTRIMi41MyAgICAgICBMMS4zOCw1OS4zSDAuMTFsMS43MS0zLjI3TDAsNTIuNTdoMS4yNWwxLjE5LDIuNzRoMC4wOWwxLjI5LTIuNzRoMS4yNUwzLjI1LDU2LjAzeiIvPiYjeGE7CQkJCTwvZz4mI3hhOwkJCQk8ZyBpZD0ic2hhcGU0MDQ0LTEyIiB0cmFuc2Zvcm09InRyYW5zbGF0ZSg2LjU5MTM0LC0wLjAzNjEwOTYpIj4mI3hhOwkJCQkJPHRpdGxlIGlkPSJ0aXRsZTQyNTIzIj5TaGVldC40MDQ0PC90aXRsZT4mI3hhOwkJCQkJPHBhdGggaWQ9InBhdGg0MjUyNSIgaW5rc2NhcGU6Y29ubmVjdG9yLWN1cnZhdHVyZT0iMCIgc3R5bGU9ImZpbGw6I0ZGRkZGRjsiIGQ9Ik0xLjEyLDUyLjU3djUuOWgzLjA5djAuODNIMHYtNi43M0gxLjEyeiIvPiYjeGE7CQkJCTwvZz4mI3hhOwkJCQk8ZyBpZD0ic2hhcGU0MDQ1LTE0IiB0cmFuc2Zvcm09InRyYW5zbGF0ZSgxMS44MjA1KSI+JiN4YTsJCQkJCTx0aXRsZSBpZD0idGl0bGU0MjUyOCI+U2hlZXQuNDA0NTwvdGl0bGU+JiN4YTsJCQkJCTxwYXRoIGlkPSJwYXRoNDI1MzAiIGlua3NjYXBlOmNvbm5lY3Rvci1jdXJ2YXR1cmU9IjAiIHN0eWxlPSJmaWxsOiNGRkZGRkY7IiBkPSJNMy45MSw1Ny40MmMwLDAuMjQtMC4wNSwwLjQ4LTAuMTUsMC43MSAgICAgICBjLTAuMSwwLjIzLTAuMjQsMC40My0wLjQyLDAuNmMtMC4xOSwwLjE4LTAuNDEsMC4zMi0wLjY4LDAuNDJTMi4wOSw1OS4zLDEuNzUsNTkuM2MtMC4xNSwwLTAuMywwLTAuNDYtMC4wMiAgICAgICBjLTAuMTUtMC4wMS0wLjMxLTAuMDQtMC40Ny0wLjA4Yy0wLjE2LTAuMDMtMC4zMS0wLjA4LTAuNDUtMC4xNUMwLjIzLDU4Ljk5LDAuMSw1OC45MSwwLDU4LjgybDAuMTktMC43OSAgICAgICBjMC4wOSwwLjA1LDAuMiwwLjEsMC4zMywwLjE0YzAuMTMsMC4wNSwwLjI2LDAuMDksMC40LDAuMTNzMC4yOCwwLjA3LDAuNDIsMC4xYzAuMTQsMC4wMiwwLjI3LDAuMDQsMC40LDAuMDQgICAgICAgYzAuMzcsMCwwLjY1LTAuMDksMC44NS0wLjI3YzAuMi0wLjE3LDAuMy0wLjQzLDAuMy0wLjc3YzAtMC4yLTAuMDctMC4zOC0wLjIxLTAuNTNjLTAuMTQtMC4xNC0wLjMyLTAuMjgtMC41My0wLjQgICAgICAgYy0wLjIxLTAuMTEtMC40My0wLjIzLTAuNjgtMC4zNUMxLjIzLDU2LDEsNTUuODYsMC43OSw1NS43Yy0wLjIyLTAuMTYtMC4zOS0wLjM1LTAuNTMtMC41N2MtMC4xNC0wLjIyLTAuMjEtMC41LTAuMjEtMC44MyAgICAgICBjMC0wLjI5LDAuMDUtMC41NiwwLjE2LTAuNzlzMC4yNi0wLjQzLDAuNDQtMC41OWMwLjE5LTAuMTYsMC40MS0wLjI5LDAuNjUtMC4zN2MwLjI1LTAuMDksMC41MS0wLjEzLDAuNzgtMC4xMyAgICAgICBjMC4yOCwwLDAuNTcsMC4wMywwLjg1LDAuMDhjMC4yOSwwLjA1LDAuNTIsMC4xMywwLjcsMC4yNWMtMC4wNCwwLjA4LTAuMDgsMC4xNy0wLjEzLDAuMjZjLTAuMDUsMC4xLTAuMDksMC4xOC0wLjE0LDAuMjcgICAgICAgYy0wLjA0LDAuMDgtMC4wOCwwLjE1LTAuMTEsMC4yYy0wLjAzLDAuMDYtMC4wNCwwLjA5LTAuMDUsMC4wOWMtMC4wNC0wLjAyLTAuMDgtMC4wNC0wLjEyLTAuMDdjLTAuMDUtMC4wMy0wLjEyLTAuMDYtMC4yLTAuMDkgICAgICAgYy0wLjA5LTAuMDMtMC4yLTAuMDUtMC4zNC0wLjA3QzIuNCw1My4zMywyLjIyLDUzLjMzLDIsNTMuMzVjLTAuMTIsMC4wMi0wLjI0LDAuMDUtMC4zNSwwLjExYy0wLjExLDAuMDYtMC4yLDAuMTMtMC4yOSwwLjIxICAgICAgIGMtMC4wOCwwLjA5LTAuMTUsMC4xOC0wLjIsMC4yOWMtMC4wNSwwLjExLTAuMDcsMC4yMS0wLjA3LDAuMzFjMCwwLjI0LDAuMDcsMC40NCwwLjIxLDAuNTlzMC4zMSwwLjI4LDAuNTIsMC4zOSAgICAgICBjMC4yLDAuMTEsMC40MywwLjIyLDAuNjcsMC4zM2MwLjI1LDAuMTEsMC40NywwLjI0LDAuNjksMC4zOWMwLjIxLDAuMTUsMC4zOCwwLjM0LDAuNTIsMC41N1MzLjkxLDU3LjA2LDMuOTEsNTcuNDJ6Ii8+JiN4YTsJCQkJPC9nPiYjeGE7CQkJPC9nPiYjeGE7CQkJPGcgaWQ9InNoYXBlNDA0Ni0xNiIgdHJhbnNmb3JtPSJ0cmFuc2xhdGUoMy4zNDM0OCwtMTQuNzExMykiPiYjeGE7CQkJCTx0aXRsZSBpZD0idGl0bGU0MjUzNCI+U2hlZXQuNDA0NjwvdGl0bGU+JiN4YTsJCQkJPHBhdGggaWQ9InBhdGg0MjUzNiIgaW5rc2NhcGU6Y29ubmVjdG9yLWN1cnZhdHVyZT0iMCIgc3R5bGU9ImZpbGw6I0M4QkRCODsiIGQ9Ik04LjAyLDQ3LjI3di0yLjY4SDB2Mi42OHYxLjMzdjEuMzR2MS4zNHYxLjM0ICAgICAgdjEuMzN2MS4zNHYxLjM0djIuNjdoNi42OWgxLjMzaDE0LjA1di0yLjY3di0xLjM0di0xLjM0di0xLjMzdi0xLjM0di0xLjM0di0yLjY3SDguMDJ6IE0xLjM0LDQ1LjkzaDUuMzV2MS4zNEgxLjM0VjQ1LjkzeiAgICAgICBNMS4zNCw0OC42aDUuMzV2MS4zNEgxLjM0VjQ4LjZ6IE0xLjM0LDUxLjI4aDUuMzV2MS4zNEgxLjM0VjUxLjI4eiBNMS4zNCw1My45NWg1LjM1djEuMzRIMS4zNFY1My45NXogTTYuNjksNTcuOTdIMS4zNHYtMS4zNCAgICAgIGg1LjM1VjU3Ljk3eiBNMjAuNzMsNTcuOTdIOC4wMnYtMS4zNGgxMi43MVY1Ny45N3ogTTIwLjczLDU1LjI5SDguMDJ2LTEuMzRoMTIuNzFWNTUuMjl6IE0yMC43Myw1Mi42Mkg4LjAydi0xLjM0aDEyLjcxVjUyLjYyeiAgICAgICBNOC4wMiw0OS45NFY0OC42aDEyLjcxdjEuMzRIOC4wMnoiLz4mI3hhOwkJCTwvZz4mI3hhOwkJPC9nPiYjeGE7CTwvZz4mI3hhOzwvZz4mI3hhOzwvc3ZnPg==;fillColor=#7DCAEE;" parent="XeZ66hk8IlVMuvrCLhNz-8" vertex="1">
          <mxGeometry x="30.84" y="169.9993371212121" width="21.492708333333333" height="27.416666666666664" as="geometry" />
        </mxCell>
        <mxCell id="RmzbV9Se9CzawkPMelnc-23" value="&lt;font style=&quot;font-size: 15px&quot;&gt;&lt;b&gt;&lt;font style=&quot;font-size: 15px&quot;&gt;ASIA&lt;/font&gt;&lt;/b&gt;&lt;/font&gt;" style="text;html=1;align=center;verticalAlign=middle;resizable=0;points=[];autosize=1;strokeColor=none;fillColor=none;" parent="XeZ66hk8IlVMuvrCLhNz-8" vertex="1">
          <mxGeometry x="24.75" y="254.58600378787878" width="50" height="20" as="geometry" />
        </mxCell>
        <mxCell id="RmzbV9Se9CzawkPMelnc-17" value="" style="shape=image;verticalLabelPosition=bottom;labelBackgroundColor=#ffffff;verticalAlign=top;aspect=fixed;imageAspect=0;image=data:image/svg+xml,PHN2ZyB4bWxuczpjYz0iaHR0cDovL2NyZWF0aXZlY29tbW9ucy5vcmcvbnMjIiB4bWxuczpkYz0iaHR0cDovL3B1cmwub3JnL2RjL2VsZW1lbnRzLzEuMS8iIHhtbG5zOmlua3NjYXBlPSJodHRwOi8vd3d3Lmlua3NjYXBlLm9yZy9uYW1lc3BhY2VzL2lua3NjYXBlIiB4bWxuczpyZGY9Imh0dHA6Ly93d3cudzMub3JnLzE5OTkvMDIvMjItcmRmLXN5bnRheC1ucyMiIHhtbG5zOnNvZGlwb2RpPSJodHRwOi8vc29kaXBvZGkuc291cmNlZm9yZ2UubmV0L0RURC9zb2RpcG9kaS0wLmR0ZCIgeG1sbnM6c3ZnPSJodHRwOi8vd3d3LnczLm9yZy8yMDAwL3N2ZyIgeG1sbnM9Imh0dHA6Ly93d3cudzMub3JnLzIwMDAvc3ZnIiB4bWxuczp4bGluaz0iaHR0cDovL3d3dy53My5vcmcvMTk5OS94bGluayIgdmVyc2lvbj0iMS4xIiBpZD0ic3ZnNDI1NDMiIGlua3NjYXBlOnZlcnNpb249IjAuOTIuMyAoMjQwNTU0NiwgMjAxOC0wMy0xMSkiIHNvZGlwb2RpOmRvY25hbWU9ImV4Y2VsLnN2ZyIgeD0iMHB4IiB5PSIwcHgiIHZpZXdCb3g9IjAgMCAyOC43NSAzNy40NCIgc3R5bGU9ImVuYWJsZS1iYWNrZ3JvdW5kOm5ldyAwIDAgMjguNzUgMzcuNDQ7IiB4bWw6c3BhY2U9InByZXNlcnZlIj4mI3hhOzxzb2RpcG9kaTpuYW1lZHZpZXcgYm9yZGVyY29sb3I9IiM2NjY2NjYiIGJvcmRlcm9wYWNpdHk9IjEiIGZpdC1tYXJnaW4tYm90dG9tPSIwIiBmaXQtbWFyZ2luLWxlZnQ9IjAiIGZpdC1tYXJnaW4tcmlnaHQ9IjAiIGZpdC1tYXJnaW4tdG9wPSIwIiBncmlkdG9sZXJhbmNlPSIxMCIgZ3VpZGV0b2xlcmFuY2U9IjEwIiBpZD0ibmFtZWR2aWV3NDI1NDUiIGlua3NjYXBlOmN1cnJlbnQtbGF5ZXI9InN2ZzQyNTQzIiBpbmtzY2FwZTpjeD0iMTkuMTY5MjY5IiBpbmtzY2FwZTpjeT0iMjQuOTU5MTM4IiBpbmtzY2FwZTpwYWdlb3BhY2l0eT0iMCIgaW5rc2NhcGU6cGFnZXNoYWRvdz0iMiIgaW5rc2NhcGU6d2luZG93LWhlaWdodD0iMTAxNyIgaW5rc2NhcGU6d2luZG93LW1heGltaXplZD0iMSIgaW5rc2NhcGU6d2luZG93LXdpZHRoPSIxOTIwIiBpbmtzY2FwZTp3aW5kb3cteD0iLTgiIGlua3NjYXBlOndpbmRvdy15PSItOCIgaW5rc2NhcGU6em9vbT0iMTAuOTY0NjczIiBvYmplY3R0b2xlcmFuY2U9IjEwIiBwYWdlY29sb3I9IiNmZmZmZmYiIHNob3dncmlkPSJmYWxzZSI+JiN4YTsJPC9zb2RpcG9kaTpuYW1lZHZpZXc+JiN4YTs8ZyBpZD0iZzQyNTQxIiB0cmFuc2Zvcm09InRyYW5zbGF0ZSgtMTAuOTI4NiwtMTAuOTMxNCkiPiYjeGE7CTx0aXRsZSBpZD0idGl0bGU0MjQ5NSI+UGFnZS0xPC90aXRsZT4mI3hhOwk8ZyBpZD0iZ3JvdXA0MDM3LTEiIHRyYW5zZm9ybT0idHJhbnNsYXRlKDEwLjkyODYsLTEwLjkyODYpIj4mI3hhOwkJPHRpdGxlIGlkPSJ0aXRsZTQyNDk3Ij5FeGNlbDwvdGl0bGU+JiN4YTsJCTxnIGlkPSJncm91cDQwMzgtMiI+JiN4YTsJCQk8dGl0bGUgaWQ9InRpdGxlNDI0OTkiPlNoZWV0LjQwMzg8L3RpdGxlPiYjeGE7CQkJPGcgaWQ9InNoYXBlNDAzOS0zIj4mI3hhOwkJCQk8dGl0bGUgaWQ9InRpdGxlNDI1MDEiPlNoZWV0LjQwMzk8L3RpdGxlPiYjeGE7CQkJCTxwYXRoIGlkPSJwYXRoNDI1MDMiIGlua3NjYXBlOmNvbm5lY3Rvci1jdXJ2YXR1cmU9IjAiIHN0eWxlPSJmaWxsOiNFOUU5RTA7IiBkPSJNMjAuMzksMjEuODZIMC45OEMwLjQ0LDIxLjg2LDAsMjIuMywwLDIzLjE1ICAgICAgdjM1LjQ5YzAsMC4yMywwLjQ0LDAuNjYsMC45OCwwLjY2aDI2LjhjMC41NCwwLDAuOTctMC40MywwLjk3LTAuNjZ2LTI4LjFjMC0wLjQ3LTAuMDYtMC42Mi0wLjE3LTAuNzNsLTcuNzgtNy43OCAgICAgIEMyMC42OSwyMS45MiwyMC41NCwyMS44NiwyMC4zOSwyMS44NnoiLz4mI3hhOwkJCTwvZz4mI3hhOwkJCTxnIGlkPSJzaGFwZTQwNDAtNSIgdHJhbnNmb3JtPSJ0cmFuc2xhdGUoMjAuNzI5NiwtMjkuNDIyNikiPiYjeGE7CQkJCTx0aXRsZSBpZD0idGl0bGU0MjUwNiI+U2hlZXQuNDA0MDwvdGl0bGU+JiN4YTsJCQkJPHBhdGggaWQ9InBhdGg0MjUwOCIgaW5rc2NhcGU6Y29ubmVjdG9yLWN1cnZhdHVyZT0iMCIgc3R5bGU9ImZpbGw6I0Q5RDdDQTsiIGQ9Ik0wLDUxLjM4djcuOTJoNy45MkwwLDUxLjM4eiIvPiYjeGE7CQkJPC9nPiYjeGE7CQkJPGcgaWQ9InNoYXBlNDA0MS03Ij4mI3hhOwkJCQk8dGl0bGUgaWQ9InRpdGxlNDI1MTEiPlNoZWV0LjQwNDE8L3RpdGxlPiYjeGE7CQkJCTxwYXRoIGlkPSJwYXRoNDI1MTMiIGlua3NjYXBlOmNvbm5lY3Rvci1jdXJ2YXR1cmU9IjAiIHN0eWxlPSJmaWxsOiM5REJCNjE7IiBkPSJNMjcuNzgsNTkuM0gwLjk4QzAuNDQsNTkuMywwLDU4Ljg3LDAsNTguMzMgICAgICBWNDcuOTRoMjguNzV2MTAuMzlDMjguNzUsNTguODcsMjguMzIsNTkuMywyNy43OCw1OS4zeiIvPiYjeGE7CQkJPC9nPiYjeGE7CQkJPGcgaWQ9Imdyb3VwNDA0Mi05IiB0cmFuc2Zvcm09InRyYW5zbGF0ZSg2LjAyNjI5LC0xLjk2OTk4KSI+JiN4YTsJCQkJPHRpdGxlIGlkPSJ0aXRsZTQyNTE2Ij5TaGVldC40MDQyPC90aXRsZT4mI3hhOwkJCQk8ZyBpZD0ic2hhcGU0MDQzLTEwIiB0cmFuc2Zvcm09InRyYW5zbGF0ZSgwLC0wLjAzNjEwOTYpIj4mI3hhOwkJCQkJPHRpdGxlIGlkPSJ0aXRsZTQyNTE4Ij5TaGVldC40MDQzPC90aXRsZT4mI3hhOwkJCQkJPHBhdGggaWQ9InBhdGg0MjUyMCIgaW5rc2NhcGU6Y29ubmVjdG9yLWN1cnZhdHVyZT0iMCIgc3R5bGU9ImZpbGw6I0ZGRkZGRjsiIGQ9Ik0zLjI1LDU2LjAzbDEuNzEsMy4yN0gzLjY5bC0xLjA3LTIuNTRIMi41MyAgICAgICBMMS4zOCw1OS4zSDAuMTFsMS43MS0zLjI3TDAsNTIuNTdoMS4yNWwxLjE5LDIuNzRoMC4wOWwxLjI5LTIuNzRoMS4yNUwzLjI1LDU2LjAzeiIvPiYjeGE7CQkJCTwvZz4mI3hhOwkJCQk8ZyBpZD0ic2hhcGU0MDQ0LTEyIiB0cmFuc2Zvcm09InRyYW5zbGF0ZSg2LjU5MTM0LC0wLjAzNjEwOTYpIj4mI3hhOwkJCQkJPHRpdGxlIGlkPSJ0aXRsZTQyNTIzIj5TaGVldC40MDQ0PC90aXRsZT4mI3hhOwkJCQkJPHBhdGggaWQ9InBhdGg0MjUyNSIgaW5rc2NhcGU6Y29ubmVjdG9yLWN1cnZhdHVyZT0iMCIgc3R5bGU9ImZpbGw6I0ZGRkZGRjsiIGQ9Ik0xLjEyLDUyLjU3djUuOWgzLjA5djAuODNIMHYtNi43M0gxLjEyeiIvPiYjeGE7CQkJCTwvZz4mI3hhOwkJCQk8ZyBpZD0ic2hhcGU0MDQ1LTE0IiB0cmFuc2Zvcm09InRyYW5zbGF0ZSgxMS44MjA1KSI+JiN4YTsJCQkJCTx0aXRsZSBpZD0idGl0bGU0MjUyOCI+U2hlZXQuNDA0NTwvdGl0bGU+JiN4YTsJCQkJCTxwYXRoIGlkPSJwYXRoNDI1MzAiIGlua3NjYXBlOmNvbm5lY3Rvci1jdXJ2YXR1cmU9IjAiIHN0eWxlPSJmaWxsOiNGRkZGRkY7IiBkPSJNMy45MSw1Ny40MmMwLDAuMjQtMC4wNSwwLjQ4LTAuMTUsMC43MSAgICAgICBjLTAuMSwwLjIzLTAuMjQsMC40My0wLjQyLDAuNmMtMC4xOSwwLjE4LTAuNDEsMC4zMi0wLjY4LDAuNDJTMi4wOSw1OS4zLDEuNzUsNTkuM2MtMC4xNSwwLTAuMywwLTAuNDYtMC4wMiAgICAgICBjLTAuMTUtMC4wMS0wLjMxLTAuMDQtMC40Ny0wLjA4Yy0wLjE2LTAuMDMtMC4zMS0wLjA4LTAuNDUtMC4xNUMwLjIzLDU4Ljk5LDAuMSw1OC45MSwwLDU4LjgybDAuMTktMC43OSAgICAgICBjMC4wOSwwLjA1LDAuMiwwLjEsMC4zMywwLjE0YzAuMTMsMC4wNSwwLjI2LDAuMDksMC40LDAuMTNzMC4yOCwwLjA3LDAuNDIsMC4xYzAuMTQsMC4wMiwwLjI3LDAuMDQsMC40LDAuMDQgICAgICAgYzAuMzcsMCwwLjY1LTAuMDksMC44NS0wLjI3YzAuMi0wLjE3LDAuMy0wLjQzLDAuMy0wLjc3YzAtMC4yLTAuMDctMC4zOC0wLjIxLTAuNTNjLTAuMTQtMC4xNC0wLjMyLTAuMjgtMC41My0wLjQgICAgICAgYy0wLjIxLTAuMTEtMC40My0wLjIzLTAuNjgtMC4zNUMxLjIzLDU2LDEsNTUuODYsMC43OSw1NS43Yy0wLjIyLTAuMTYtMC4zOS0wLjM1LTAuNTMtMC41N2MtMC4xNC0wLjIyLTAuMjEtMC41LTAuMjEtMC44MyAgICAgICBjMC0wLjI5LDAuMDUtMC41NiwwLjE2LTAuNzlzMC4yNi0wLjQzLDAuNDQtMC41OWMwLjE5LTAuMTYsMC40MS0wLjI5LDAuNjUtMC4zN2MwLjI1LTAuMDksMC41MS0wLjEzLDAuNzgtMC4xMyAgICAgICBjMC4yOCwwLDAuNTcsMC4wMywwLjg1LDAuMDhjMC4yOSwwLjA1LDAuNTIsMC4xMywwLjcsMC4yNWMtMC4wNCwwLjA4LTAuMDgsMC4xNy0wLjEzLDAuMjZjLTAuMDUsMC4xLTAuMDksMC4xOC0wLjE0LDAuMjcgICAgICAgYy0wLjA0LDAuMDgtMC4wOCwwLjE1LTAuMTEsMC4yYy0wLjAzLDAuMDYtMC4wNCwwLjA5LTAuMDUsMC4wOWMtMC4wNC0wLjAyLTAuMDgtMC4wNC0wLjEyLTAuMDdjLTAuMDUtMC4wMy0wLjEyLTAuMDYtMC4yLTAuMDkgICAgICAgYy0wLjA5LTAuMDMtMC4yLTAuMDUtMC4zNC0wLjA3QzIuNCw1My4zMywyLjIyLDUzLjMzLDIsNTMuMzVjLTAuMTIsMC4wMi0wLjI0LDAuMDUtMC4zNSwwLjExYy0wLjExLDAuMDYtMC4yLDAuMTMtMC4yOSwwLjIxICAgICAgIGMtMC4wOCwwLjA5LTAuMTUsMC4xOC0wLjIsMC4yOWMtMC4wNSwwLjExLTAuMDcsMC4yMS0wLjA3LDAuMzFjMCwwLjI0LDAuMDcsMC40NCwwLjIxLDAuNTlzMC4zMSwwLjI4LDAuNTIsMC4zOSAgICAgICBjMC4yLDAuMTEsMC40MywwLjIyLDAuNjcsMC4zM2MwLjI1LDAuMTEsMC40NywwLjI0LDAuNjksMC4zOWMwLjIxLDAuMTUsMC4zOCwwLjM0LDAuNTIsMC41N1MzLjkxLDU3LjA2LDMuOTEsNTcuNDJ6Ii8+JiN4YTsJCQkJPC9nPiYjeGE7CQkJPC9nPiYjeGE7CQkJPGcgaWQ9InNoYXBlNDA0Ni0xNiIgdHJhbnNmb3JtPSJ0cmFuc2xhdGUoMy4zNDM0OCwtMTQuNzExMykiPiYjeGE7CQkJCTx0aXRsZSBpZD0idGl0bGU0MjUzNCI+U2hlZXQuNDA0NjwvdGl0bGU+JiN4YTsJCQkJPHBhdGggaWQ9InBhdGg0MjUzNiIgaW5rc2NhcGU6Y29ubmVjdG9yLWN1cnZhdHVyZT0iMCIgc3R5bGU9ImZpbGw6I0M4QkRCODsiIGQ9Ik04LjAyLDQ3LjI3di0yLjY4SDB2Mi42OHYxLjMzdjEuMzR2MS4zNHYxLjM0ICAgICAgdjEuMzN2MS4zNHYxLjM0djIuNjdoNi42OWgxLjMzaDE0LjA1di0yLjY3di0xLjM0di0xLjM0di0xLjMzdi0xLjM0di0xLjM0di0yLjY3SDguMDJ6IE0xLjM0LDQ1LjkzaDUuMzV2MS4zNEgxLjM0VjQ1LjkzeiAgICAgICBNMS4zNCw0OC42aDUuMzV2MS4zNEgxLjM0VjQ4LjZ6IE0xLjM0LDUxLjI4aDUuMzV2MS4zNEgxLjM0VjUxLjI4eiBNMS4zNCw1My45NWg1LjM1djEuMzRIMS4zNFY1My45NXogTTYuNjksNTcuOTdIMS4zNHYtMS4zNCAgICAgIGg1LjM1VjU3Ljk3eiBNMjAuNzMsNTcuOTdIOC4wMnYtMS4zNGgxMi43MVY1Ny45N3ogTTIwLjczLDU1LjI5SDguMDJ2LTEuMzRoMTIuNzFWNTUuMjl6IE0yMC43Myw1Mi42Mkg4LjAydi0xLjM0aDEyLjcxVjUyLjYyeiAgICAgICBNOC4wMiw0OS45NFY0OC42aDEyLjcxdjEuMzRIOC4wMnoiLz4mI3hhOwkJCTwvZz4mI3hhOwkJPC9nPiYjeGE7CTwvZz4mI3hhOzwvZz4mI3hhOzwvc3ZnPg==;fillColor=#7DCAEE;" parent="XeZ66hk8IlVMuvrCLhNz-8" vertex="1">
          <mxGeometry x="38.240000000000165" y="317.2517803030302" width="23.020208333333333" height="29.375" as="geometry" />
        </mxCell>
        <mxCell id="XeZ66hk8IlVMuvrCLhNz-10" value="" style="shape=image;verticalLabelPosition=bottom;labelBackgroundColor=#ffffff;verticalAlign=top;aspect=fixed;imageAspect=0;image=data:image/svg+xml,PHN2ZyB4bWxuczpjYz0iaHR0cDovL2NyZWF0aXZlY29tbW9ucy5vcmcvbnMjIiB4bWxuczpkYz0iaHR0cDovL3B1cmwub3JnL2RjL2VsZW1lbnRzLzEuMS8iIHhtbG5zOmlua3NjYXBlPSJodHRwOi8vd3d3Lmlua3NjYXBlLm9yZy9uYW1lc3BhY2VzL2lua3NjYXBlIiB4bWxuczpyZGY9Imh0dHA6Ly93d3cudzMub3JnLzE5OTkvMDIvMjItcmRmLXN5bnRheC1ucyMiIHhtbG5zOnNvZGlwb2RpPSJodHRwOi8vc29kaXBvZGkuc291cmNlZm9yZ2UubmV0L0RURC9zb2RpcG9kaS0wLmR0ZCIgeG1sbnM6c3ZnPSJodHRwOi8vd3d3LnczLm9yZy8yMDAwL3N2ZyIgeG1sbnM9Imh0dHA6Ly93d3cudzMub3JnLzIwMDAvc3ZnIiB4bWxuczp4bGluaz0iaHR0cDovL3d3dy53My5vcmcvMTk5OS94bGluayIgdmVyc2lvbj0iMS4xIiBpZD0ic3ZnMzg4ODUiIGlua3NjYXBlOnZlcnNpb249IjAuOTIuMyAoMjQwNTU0NiwgMjAxOC0wMy0xMSkiIHNvZGlwb2RpOmRvY25hbWU9ImZhY3RvcnlfMS5zdmciIHg9IjBweCIgeT0iMHB4IiB2aWV3Qm94PSIwIDAgOTUuNTcgNjguNTciIHN0eWxlPSJlbmFibGUtYmFja2dyb3VuZDpuZXcgMCAwIDk1LjU3IDY4LjU3OyIgeG1sOnNwYWNlPSJwcmVzZXJ2ZSI+JiN4YTs8c29kaXBvZGk6bmFtZWR2aWV3IGJvcmRlcmNvbG9yPSIjNjY2NjY2IiBib3JkZXJvcGFjaXR5PSIxIiBmaXQtbWFyZ2luLWJvdHRvbT0iMCIgZml0LW1hcmdpbi1sZWZ0PSIwIiBmaXQtbWFyZ2luLXJpZ2h0PSIwIiBmaXQtbWFyZ2luLXRvcD0iMCIgZ3JpZHRvbGVyYW5jZT0iMTAiIGd1aWRldG9sZXJhbmNlPSIxMCIgaWQ9Im5hbWVkdmlldzM4ODg3IiBpbmtzY2FwZTpjdXJyZW50LWxheWVyPSJzdmczODg4NSIgaW5rc2NhcGU6Y3g9IjYzLjcxMzExOCIgaW5rc2NhcGU6Y3k9IjQ1LjcxMTA1NiIgaW5rc2NhcGU6cGFnZW9wYWNpdHk9IjAiIGlua3NjYXBlOnBhZ2VzaGFkb3c9IjIiIGlua3NjYXBlOndpbmRvdy1oZWlnaHQ9IjEwMTciIGlua3NjYXBlOndpbmRvdy1tYXhpbWl6ZWQ9IjEiIGlua3NjYXBlOndpbmRvdy13aWR0aD0iMTkyMCIgaW5rc2NhcGU6d2luZG93LXg9Ii04IiBpbmtzY2FwZTp3aW5kb3cteT0iLTgiIGlua3NjYXBlOnpvb209IjkuMjc5NTUyNCIgb2JqZWN0dG9sZXJhbmNlPSIxMCIgcGFnZWNvbG9yPSIjZmZmZmZmIiBzaG93Z3JpZD0iZmFsc2UiPiYjeGE7CTwvc29kaXBvZGk6bmFtZWR2aWV3PiYjeGE7PGcgaWQ9ImczODg4MyIgdHJhbnNmb3JtPSJ0cmFuc2xhdGUoLTAuNzUsLTAuNzQ1MSkiPiYjeGE7CTx0aXRsZSBpZD0idGl0bGUzODczOCI+UGFnZS0xPC90aXRsZT4mI3hhOwk8ZyBpZD0iZ3JvdXAzMzMyLTEiIHRyYW5zZm9ybT0idHJhbnNsYXRlKDEuNSwtMS41KSI+JiN4YTsJCTx0aXRsZSBpZD0idGl0bGUzODc0MCI+RmFjdG9yeSAjMTwvdGl0bGU+JiN4YTsJCTxnIGlkPSJzaGFwZTMzMzMtMiIgdHJhbnNmb3JtPSJ0cmFuc2xhdGUoMjMuNTY4MSwtMzQuNzk5NikiPiYjeGE7CQkJPHRpdGxlIGlkPSJ0aXRsZTM4NzQyIj5TaGVldC4zMzMzPC90aXRsZT4mI3hhOwkJCSYjeGE7CQkJCTxwYXRoIGlkPSJwYXRoMzg3NDQiIGlua3NjYXBlOmNvbm5lY3Rvci1jdXJ2YXR1cmU9IjAiIHN0eWxlPSJmaWxsOiNGMkYyRjI7c3Ryb2tlOiM1NTZBOEE7c3Ryb2tlLXdpZHRoOjEuNTtzdHJva2UtbWl0ZXJsaW1pdDozOyIgZD0iICAgICBNOS41LDQ0LjAxbDEuMiwyNi4wNkgwbDEuMTktMjYuMDZIOS41eiIvPiYjeGE7CQk8L2c+JiN4YTsJCTxnIGlkPSJzaGFwZTMzMzQtNCIgdHJhbnNmb3JtPSJ0cmFuc2xhdGUoMjMuOTkwMiwtNjAuMDQ0OSkiPiYjeGE7CQkJPHRpdGxlIGlkPSJ0aXRsZTM4NzQ3Ij5TaGVldC4zMzM0PC90aXRsZT4mI3hhOwkJCTxwYXRoIGlkPSJwYXRoMzg3NDkiIGlua3NjYXBlOmNvbm5lY3Rvci1jdXJ2YXR1cmU9IjAiIHN0eWxlPSJmaWxsOiNDMDAwMDA7IiBkPSJNOS42OSw2Mi4yOWwwLjM4LDcuNzhIMGwwLjM4LTcuNzhIOS42OXoiLz4mI3hhOwkJPC9nPiYjeGE7CQk8ZyBpZD0ic2hhcGUzMzM1LTYiIHRyYW5zZm9ybT0idHJhbnNsYXRlKDcuNjQ2NjMsLTM0Ljc5OTYpIj4mI3hhOwkJCTx0aXRsZSBpZD0idGl0bGUzODc1MiI+U2hlZXQuMzMzNTwvdGl0bGU+JiN4YTsJCQkmI3hhOwkJCQk8cGF0aCBpZD0icGF0aDM4NzU0IiBpbmtzY2FwZTpjb25uZWN0b3ItY3VydmF0dXJlPSIwIiBzdHlsZT0iZmlsbDojRjJGMkYyO3N0cm9rZTojNTU2QThBO3N0cm9rZS13aWR0aDoxLjU7c3Ryb2tlLW1pdGVybGltaXQ6MzsiIGQ9IiAgICAgTTkuNSw0NC4wMWwxLjIsMjYuMDZIMGwxLjE5LTI2LjA2SDkuNXoiLz4mI3hhOwkJPC9nPiYjeGE7CQk8ZyBpZD0ic2hhcGUzMzM2LTgiIHRyYW5zZm9ybT0idHJhbnNsYXRlKDEyLjk3MjIsLTM0Ljk2MTIpIj4mI3hhOwkJCTx0aXRsZSBpZD0idGl0bGUzODc1NyI+U2hlZXQuMzMzNjwvdGl0bGU+JiN4YTsJCQk8cGF0aCBpZD0icGF0aDM4NzU5IiBpbmtzY2FwZTpjb25uZWN0b3ItY3VydmF0dXJlPSIwIiBzdHlsZT0iZmlsbDojQjhDMUNFOyIgZD0iTTQuMDIsNDUuMDlIMGwwLjEsMjQuOThoNS4xMUw0LjAyLDQ1LjA5eiIvPiYjeGE7CQk8L2c+JiN4YTsJCTxnIGlkPSJzaGFwZTMzMzctMTAiIHRyYW5zZm9ybT0idHJhbnNsYXRlKDI4LjgzMTEsLTM1LjEwNDgpIj4mI3hhOwkJCTx0aXRsZSBpZD0idGl0bGUzODc2MiI+U2hlZXQuMzMzNzwvdGl0bGU+JiN4YTsJCQk8cGF0aCBpZD0icGF0aDM4NzY0IiBpbmtzY2FwZTpjb25uZWN0b3ItY3VydmF0dXJlPSIwIiBzdHlsZT0iZmlsbDojQjhDMUNFOyIgZD0iTTQuMDIsNDUuMDlIMGwwLjEsMjQuOThoNS4xMUw0LjAyLDQ1LjA5eiIvPiYjeGE7CQk8L2c+JiN4YTsJCTxnIGlkPSJzaGFwZTMzMzgtMTIiIHRyYW5zZm9ybT0idHJhbnNsYXRlKDguMTE4NywtNTkuOTQ0MikiPiYjeGE7CQkJPHRpdGxlIGlkPSJ0aXRsZTM4NzY3Ij5TaGVldC4zMzM4PC90aXRsZT4mI3hhOwkJCTxwYXRoIGlkPSJwYXRoMzg3NjkiIGlua3NjYXBlOmNvbm5lY3Rvci1jdXJ2YXR1cmU9IjAiIHN0eWxlPSJmaWxsOiNDMDAwMDA7IiBkPSJNOS40MSw2Mi4xOWwwLjM3LDcuODhIMGwwLjM3LTcuODhIOS40MXoiLz4mI3hhOwkJPC9nPiYjeGE7CQk8ZyBpZD0ic2hhcGUzMzM5LTE0IiB0cmFuc2Zvcm09InRyYW5zbGF0ZSgxNC43ODYzLC0xMC41MjUpIj4mI3hhOwkJCTx0aXRsZSBpZD0idGl0bGUzODc3MiI+U2hlZXQuMzMzOTwvdGl0bGU+JiN4YTsJCQk8cmVjdCBpZD0icmVjdDM4Nzc0IiB4PSIwIiB5PSI0NS4wOSIgc3R5bGU9ImZpbGw6I0I4QzFDRTsiIHdpZHRoPSIzMC45MiIgaGVpZ2h0PSIyNC45OCIvPiYjeGE7CQk8L2c+JiN4YTsJCTxnIGlkPSJzaGFwZTMzNDAtMTYiIHRyYW5zZm9ybT0idHJhbnNsYXRlKDc1LjgzNDYsLTExLjg0NjYpIj4mI3hhOwkJCTx0aXRsZSBpZD0idGl0bGUzODc3NyI+U2hlZXQuMzM0MDwvdGl0bGU+JiN4YTsJCQkmI3hhOwkJCQk8cGF0aCBpZD0icGF0aDM4Nzc5IiBpbmtzY2FwZTpjb25uZWN0b3ItY3VydmF0dXJlPSIwIiBzdHlsZT0iZmlsbDojQzAwMDAwO3N0cm9rZTojNTU2QThBO3N0cm9rZS13aWR0aDoxLjU7c3Ryb2tlLW1pdGVybGltaXQ6MzsiIGQ9IiAgICAgTTEzLjQ4LDU3LjM0djEwLjMxTDYuOSw3MC4wN0wwLDY3LjY1VjU3LjM0bDYuNjQtMi40MkwxMy40OCw1Ny4zNHoiLz4mI3hhOwkJPC9nPiYjeGE7CQk8ZyBpZD0ic2hhcGUzMzQxLTE4IiB0cmFuc2Zvcm09InRyYW5zbGF0ZSg1Ni4wMTEsLTEwLjcwMTMpIj4mI3hhOwkJCTx0aXRsZSBpZD0idGl0bGUzODc4MiI+U2hlZXQuMzM0MTwvdGl0bGU+JiN4YTsJCQkmI3hhOwkJCQk8cGF0aCBpZD0icGF0aDM4Nzg0IiBpbmtzY2FwZTpjb25uZWN0b3ItY3VydmF0dXJlPSIwIiBzdHlsZT0iZmlsbDojQzAwMDAwO3N0cm9rZTojNTU2QThBO3N0cm9rZS13aWR0aDoxLjU7c3Ryb2tlLW1pdGVybGltaXQ6MzsiIGQ9IiAgICAgTTEzLjQ4LDU2LjE5VjY2LjVsLTYuMzEsMy41N0wwLDY2LjVWNTYuMTlsNy4yNS0yLjVMMTMuNDgsNTYuMTl6Ii8+JiN4YTsJCTwvZz4mI3hhOwkJPGcgaWQ9InNoYXBlMzM0Mi0yMCIgdHJhbnNmb3JtPSJ0cmFuc2xhdGUoNjEuNTYxMSwtMzAuMTMxMSkiPiYjeGE7CQkJPHRpdGxlIGlkPSJ0aXRsZTM4Nzg3Ij5TaGVldC4zMzQyPC90aXRsZT4mI3hhOwkJCTxwYXRoIGlkPSJwYXRoMzg3ODkiIGlua3NjYXBlOmNvbm5lY3Rvci1jdXJ2YXR1cmU9IjAiIHN0eWxlPSJmaWxsOiNDMDAwMDA7IiBkPSJNMjIuMiw3MC4wN2gtMi4zOHYtMS4xOSAgICAgYzAtMi45LTIuMzYtNS4yNi01LjI2LTUuMjZINy42NGMtMi45LDAtNS4yNiwyLjM2LTUuMjYsNS4yNnYxLjE5SDB2LTEuMTljMC00LjIxLDMuNDMtNy42NCw3LjY0LTcuNjRoNi45MiAgICAgYzQuMjEsMCw3LjY0LDMuNDMsNy42NCw3LjY0TDIyLjIsNzAuMDd6Ii8+JiN4YTsJCTwvZz4mI3hhOwkJPGcgaWQ9InNoYXBlMzM0My0yMiIgdHJhbnNmb3JtPSJ0cmFuc2xhdGUoNzUuODM0NiwtMjQuNTgxMykiPiYjeGE7CQkJPHRpdGxlIGlkPSJ0aXRsZTM4NzkyIj5TaGVldC4zMzQzPC90aXRsZT4mI3hhOwkJCSYjeGE7CQkJCTxwYXRoIGlkPSJwYXRoMzg3OTQiIGlua3NjYXBlOmNvbm5lY3Rvci1jdXJ2YXR1cmU9IjAiIHN0eWxlPSJmaWxsOiM1NTZBOEE7c3Ryb2tlOiM1NTZBOEE7c3Ryb2tlLXdpZHRoOjEuNTtzdHJva2UtbWl0ZXJsaW1pdDozOyIgZD0iICAgICBNMTMuNDgsNzAuMDdIMGMwLTMuNzIsMy4wMi02Ljc0LDYuNzQtNi43NFMxMy40OCw2Ni4zNSwxMy40OCw3MC4wN3oiLz4mI3hhOwkJPC9nPiYjeGE7CQk8ZyBpZD0ic2hhcGUzMzQ0LTI0IiB0cmFuc2Zvcm09InRyYW5zbGF0ZSg2NC44MjYsLTE0LjI3MykiPiYjeGE7CQkJPHRpdGxlIGlkPSJ0aXRsZTM4Nzk3Ij5TaGVldC4zMzQ0PC90aXRsZT4mI3hhOwkJCTxwYXRoIGlkPSJwYXRoMzg3OTkiIGlua3NjYXBlOmNvbm5lY3Rvci1jdXJ2YXR1cmU9IjAiIHN0eWxlPSJmaWxsOiNEODI1MjU7IiBkPSJNNS4yMSw1OS43N3YxMC4zSDMuNTNIMHYtMTAuM0g1LjIxeiIvPiYjeGE7CQk8L2c+JiN4YTsJCTxnIGlkPSJzaGFwZTMzNDUtMjYiIHRyYW5zZm9ybT0idHJhbnNsYXRlKDg0LjkzNjMsLTEzLjc4ODMpIj4mI3hhOwkJCTx0aXRsZSBpZD0idGl0bGUzODgwMiI+U2hlZXQuMzM0NTwvdGl0bGU+JiN4YTsJCQk8cGF0aCBpZD0icGF0aDM4ODA0IiBpbmtzY2FwZTpjb25uZWN0b3ItY3VydmF0dXJlPSIwIiBzdHlsZT0iZmlsbDojRDgyNTI1OyIgZD0iTTUuMDIsNTkuNzd2MTAuM0gzLjRIMHYtMTAuM0g1LjAyeiIvPiYjeGE7CQk8L2c+JiN4YTsJCTxnIGlkPSJzaGFwZTMzNDYtMjgiIHRyYW5zZm9ybT0idHJhbnNsYXRlKDU2LjAxMSwtMjQuNTgxMykiPiYjeGE7CQkJPHRpdGxlIGlkPSJ0aXRsZTM4ODA3Ij5TaGVldC4zMzQ2PC90aXRsZT4mI3hhOwkJCSYjeGE7CQkJCTxwYXRoIGlkPSJwYXRoMzg4MDkiIGlua3NjYXBlOmNvbm5lY3Rvci1jdXJ2YXR1cmU9IjAiIHN0eWxlPSJmaWxsOiM1NTZBOEE7c3Ryb2tlOiM1NTZBOEE7c3Ryb2tlLXdpZHRoOjEuNTtzdHJva2UtbWl0ZXJsaW1pdDozOyIgZD0iICAgICBNMTMuNDgsNzAuMDdIMGMwLTMuNzIsMy4wMi02Ljc0LDYuNzQtNi43NFMxMy40OCw2Ni4zNSwxMy40OCw3MC4wN3oiLz4mI3hhOwkJPC9nPiYjeGE7CQk8ZyBpZD0ic2hhcGUzMzQ3LTMwIj4mI3hhOwkJCTx0aXRsZSBpZD0idGl0bGUzODgxMiI+U2hlZXQuMzM0NzwvdGl0bGU+JiN4YTsJCQkmI3hhOwkJCQk8cGF0aCBpZD0icGF0aDM4ODE0IiBpbmtzY2FwZTpjb25uZWN0b3ItY3VydmF0dXJlPSIwIiBzdHlsZT0iZmlsbDojRjJGMkYyO3N0cm9rZTojNTU2QThBO3N0cm9rZS13aWR0aDoxLjU7c3Ryb2tlLW1pdGVybGltaXQ6MzsiIGQ9IiAgICAgTTU5LjE4LDU1LjhoLTExLjJIMTkuNDJWMzQuNTdIMHYzNS41aDE5LjQyaDI4LjU2aDIxLjExVjU1LjhINTkuMTh6Ii8+JiN4YTsJCTwvZz4mI3hhOwkJPGcgaWQ9InNoYXBlMzM0OC0zMiIgdHJhbnNmb3JtPSJ0cmFuc2xhdGUoMjIuOTU0NywtMjUuNjg0NSkiPiYjeGE7CQkJPHRpdGxlIGlkPSJ0aXRsZTM4ODE3Ij5TaGVldC4zMzQ4PC90aXRsZT4mI3hhOwkJCTxwYXRoIGlkPSJwYXRoMzg4MTkiIGlua3NjYXBlOmNvbm5lY3Rvci1jdXJ2YXR1cmU9IjAiIHN0eWxlPSJmaWxsOiM2NjY2NjY7IiBkPSJNMTcuMDUsNzAuMDdIMS45OEMwLjg5LDcwLjA3LDAsNjkuMTksMCw2OC4wOSAgICAgYzAtMS4wOSwwLjg5LTEuOTgsMS45OC0xLjk4aDE1LjA3YzEuMDksMCwxLjk4LDAuODksMS45OCwxLjk4QzE5LjAzLDY5LjE5LDE4LjE0LDcwLjA3LDE3LjA1LDcwLjA3eiIvPiYjeGE7CQk8L2c+JiN4YTsJCTxnIGlkPSJzaGFwZTMzNDktMzQiIHRyYW5zZm9ybT0idHJhbnNsYXRlKDIyLjk1NDcsLTE5LjA3NjcpIj4mI3hhOwkJCTx0aXRsZSBpZD0idGl0bGUzODgyMiI+U2hlZXQuMzM0OTwvdGl0bGU+JiN4YTsJCQk8cGF0aCBpZD0icGF0aDM4ODI0IiBpbmtzY2FwZTpjb25uZWN0b3ItY3VydmF0dXJlPSIwIiBzdHlsZT0iZmlsbDojNjY2NjY2OyIgZD0iTTE3LjA1LDcwLjA3SDEuOThDMC44OSw3MC4wNywwLDY5LjE5LDAsNjguMDkgICAgIGMwLTEuMDksMC44OS0xLjk4LDEuOTgtMS45OGgxNS4wN2MxLjA5LDAsMS45OCwwLjg5LDEuOTgsMS45OEMxOS4wMyw2OS4xOSwxOC4xNCw3MC4wNywxNy4wNSw3MC4wN3oiLz4mI3hhOwkJPC9nPiYjeGE7CQk8ZyBpZD0ic2hhcGUzMzUwLTM2IiB0cmFuc2Zvcm09InRyYW5zbGF0ZSg0OS4zODYyLC01LjE1NDY3KSI+JiN4YTsJCQk8dGl0bGUgaWQ9InRpdGxlMzg4MjciPlNoZWV0LjMzNTA8L3RpdGxlPiYjeGE7CQkJPHBhdGggaWQ9InBhdGgzODgyOSIgaW5rc2NhcGU6Y29ubmVjdG9yLWN1cnZhdHVyZT0iMCIgc3R5bGU9ImZpbGw6IzY2NjY2NjsiIGQ9Ik04Ljg4LDcwLjA3aC02LjlDMC44OSw3MC4wNywwLDY5LjE5LDAsNjguMDkgICAgIGMwLTEuMDksMC44OS0xLjk4LDEuOTgtMS45OGg2LjljMS4xLDAsMS45OCwwLjg5LDEuOTgsMS45OEMxMC44Niw2OS4xOSw5Ljk4LDcwLjA3LDguODgsNzAuMDd6Ii8+JiN4YTsJCTwvZz4mI3hhOwkJPGcgaWQ9InNoYXBlMzM1MS0zOCIgdHJhbnNmb3JtPSJ0cmFuc2xhdGUoMzAuODg0MSwtNS4xNTQ2NykiPiYjeGE7CQkJPHRpdGxlIGlkPSJ0aXRsZTM4ODMyIj5TaGVldC4zMzUxPC90aXRsZT4mI3hhOwkJCTxwYXRoIGlkPSJwYXRoMzg4MzQiIGlua3NjYXBlOmNvbm5lY3Rvci1jdXJ2YXR1cmU9IjAiIHN0eWxlPSJmaWxsOiM2NjY2NjY7IiBkPSJNMTQuMTQsNzAuMDdIMS45OEMwLjg5LDcwLjA3LDAsNjkuMTksMCw2OC4wOSAgICAgYzAtMS4wOSwwLjg5LTEuOTgsMS45OC0xLjk4aDEyLjE2YzEuMSwwLDEuOTgsMC44OSwxLjk4LDEuOThDMTYuMTIsNjkuMTksMTUuMjQsNzAuMDcsMTQuMTQsNzAuMDd6Ii8+JiN4YTsJCTwvZz4mI3hhOwkJPGcgaWQ9InNoYXBlMzM1Mi00MCIgdHJhbnNmb3JtPSJ0cmFuc2xhdGUoNC4xODgzMywtMjUuNjg0NSkiPiYjeGE7CQkJPHRpdGxlIGlkPSJ0aXRsZTM4ODM3Ij5TaGVldC4zMzUyPC90aXRsZT4mI3hhOwkJCTxwYXRoIGlkPSJwYXRoMzg4MzkiIGlua3NjYXBlOmNvbm5lY3Rvci1jdXJ2YXR1cmU9IjAiIHN0eWxlPSJmaWxsOiM2NjY2NjY7IiBkPSJNOC41OSw3MC4wN0gxLjk4QzAuODksNzAuMDcsMCw2OS4xOSwwLDY4LjA5ICAgICBjMC0xLjA5LDAuODktMS45OCwxLjk4LTEuOThoNi42MWMxLjEsMCwxLjk4LDAuODksMS45OCwxLjk4QzEwLjU3LDY5LjE5LDkuNjksNzAuMDcsOC41OSw3MC4wN3oiLz4mI3hhOwkJPC9nPiYjeGE7CQk8ZyBpZD0ic2hhcGUzMzUzLTQyIiB0cmFuc2Zvcm09InRyYW5zbGF0ZSg0LjE4ODMzLC0xOS4wNzY3KSI+JiN4YTsJCQk8dGl0bGUgaWQ9InRpdGxlMzg4NDIiPlNoZWV0LjMzNTM8L3RpdGxlPiYjeGE7CQkJPHBhdGggaWQ9InBhdGgzODg0NCIgaW5rc2NhcGU6Y29ubmVjdG9yLWN1cnZhdHVyZT0iMCIgc3R5bGU9ImZpbGw6IzY2NjY2NjsiIGQ9Ik04LjU5LDcwLjA3SDEuOThDMC44OSw3MC4wNywwLDY5LjE5LDAsNjguMDkgICAgIGMwLTEuMDksMC44OS0xLjk4LDEuOTgtMS45OGg2LjYxYzEuMSwwLDEuOTgsMC44OSwxLjk4LDEuOThDMTAuNTcsNjkuMTksOS42OSw3MC4wNyw4LjU5LDcwLjA3eiIvPiYjeGE7CQk8L2c+JiN4YTsJCTxnIGlkPSJzaGFwZTMzNTQtNDQiIHRyYW5zZm9ybT0idHJhbnNsYXRlKDI0LjMwMzgsLTUuMTU0MTQpIj4mI3hhOwkJCTx0aXRsZSBpZD0idGl0bGUzODg0NyI+U2hlZXQuMzM1NDwvdGl0bGU+JiN4YTsJCQk8Y2lyY2xlIGlkPSJlbGxpcHNlMzg4NDkiIHN0eWxlPSJmaWxsOiM2NjY2NjY7IiBjeD0iMS45OCIgY3k9IjY4LjA5IiByPSIxLjk4Ii8+JiN4YTsJCTwvZz4mI3hhOwkJPGcgaWQ9InNoYXBlMzM1NS00NiIgdHJhbnNmb3JtPSJ0cmFuc2xhdGUoNjUuMTI5OCkiPiYjeGE7CQkJPHRpdGxlIGlkPSJ0aXRsZTM4ODUyIj5TaGVldC4zMzU1PC90aXRsZT4mI3hhOwkJCSYjeGE7CQkJCTxwYXRoIGlkPSJwYXRoMzg4NTQiIGlua3NjYXBlOmNvbm5lY3Rvci1jdXJ2YXR1cmU9IjAiIHN0eWxlPSJmaWxsOiM3RjdGN0Y7c3Ryb2tlOiM1NTZBOEE7c3Ryb2tlLXdpZHRoOjEuNTtzdHJva2UtbWl0ZXJsaW1pdDozOyIgZD0iICAgICBNMjguOTQsNTUuOHYxNC4yN0gwVjU1LjhoNC4zNmg2LjM0aDEzLjQ4SDI4Ljk0eiIvPiYjeGE7CQk8L2c+JiN4YTsJCTxnIGlkPSJzaGFwZTMzNTYtNDgiIHRyYW5zZm9ybT0idHJhbnNsYXRlKDcyLjQyNzQsLTAuMDcyNDI4OCkiPiYjeGE7CQkJPHRpdGxlIGlkPSJ0aXRsZTM4ODU3Ij5yZWN0MTU4MTAuNDA2MDY8L3RpdGxlPiYjeGE7CQkJJiN4YTsJCQkJPHJlY3QgaWQ9InJlY3QzODg1OSIgeD0iMCIgeT0iNTgiIHN0eWxlPSJmaWxsOiNGRkZGRkY7c3Ryb2tlOiM1NTZBOEE7c3Ryb2tlLXdpZHRoOjEuNTtzdHJva2UtbWl0ZXJsaW1pdDozOyIgd2lkdGg9IjE0LjIiIGhlaWdodD0iMTIuMDciLz4mI3hhOwkJPC9nPiYjeGE7CQk8ZyBpZD0ic2hhcGUzMzU3LTUwIiB0cmFuc2Zvcm09InRyYW5zbGF0ZSg3Mi43ODI1LC0wLjc4MjQ3MykiPiYjeGE7CQkJPHRpdGxlIGlkPSJ0aXRsZTM4ODYyIj5yZWN0MTU4NjIuNDA2MDc8L3RpdGxlPiYjeGE7CQkJPHJlY3QgaWQ9InJlY3QzODg2NCIgeD0iMCIgeT0iNjAuODQiIHN0eWxlPSJmaWxsOiNENEY0RkQ7IiB3aWR0aD0iMTMuNDkiIGhlaWdodD0iOS4yMyIvPiYjeGE7CQk8L2c+JiN4YTsJCTxnIGlkPSJzaGFwZTMzNTgtNTIiIHRyYW5zZm9ybT0idHJhbnNsYXRlKDc4LjQ2MjgsLTAuNzgyNDczKSI+JiN4YTsJCQk8dGl0bGUgaWQ9InRpdGxlMzg4NjciPnJlY3QxNTg2NC40MDYwODwvdGl0bGU+JiN4YTsJCQk8cmVjdCBpZD0icmVjdDM4ODY5IiB4PSIwIiB5PSI2MC40OSIgc3R5bGU9ImZpbGw6IzgwQ0VFOTsiIHdpZHRoPSIyLjEzIiBoZWlnaHQ9IjkuNTkiLz4mI3hhOwkJPC9nPiYjeGE7CQk8ZyBpZD0ic2hhcGUzMzU5LTU0IiB0cmFuc2Zvcm09InRyYW5zbGF0ZSg3OS4xNzI5LC0wLjUxNjIwNikiPiYjeGE7CQkJPHRpdGxlIGlkPSJ0aXRsZTM4ODcyIj5yZWN0MTU4NjYuNDA2MDk8L3RpdGxlPiYjeGE7CQkJPHJlY3QgaWQ9InJlY3QzODg3NCIgeD0iMCIgeT0iNTkuMDciIHN0eWxlPSJmaWxsOiM1NTZBOEE7IiB3aWR0aD0iMC43MSIgaGVpZ2h0PSIxMS4wMSIvPiYjeGE7CQk8L2c+JiN4YTsJCTxnIGlkPSJzaGFwZTMzNjAtNTYiIHRyYW5zZm9ybT0idHJhbnNsYXRlKDcyLjc4MjUsLTEwLjAxMykiPiYjeGE7CQkJPHRpdGxlIGlkPSJ0aXRsZTM4ODc3Ij5yZWN0MTU4ODYuNDA2MTA8L3RpdGxlPiYjeGE7CQkJPHJlY3QgaWQ9InJlY3QzODg3OSIgeD0iMCIgeT0iNjguMyIgc3R5bGU9ImZpbGw6IzgwQ0VFOTsiIHdpZHRoPSIxMy40OSIgaGVpZ2h0PSIxLjc4Ii8+JiN4YTsJCTwvZz4mI3hhOwk8L2c+JiN4YTs8L2c+JiN4YTs8L3N2Zz4=;fillColor=#7DCAEE;" vertex="1" parent="XeZ66hk8IlVMuvrCLhNz-8">
          <mxGeometry x="29.349999999999998" y="200.0041098484848" width="61.305625" height="44.0625" as="geometry" />
        </mxCell>
        <mxCell id="XeZ66hk8IlVMuvrCLhNz-9" value="&lt;font style=&quot;font-size: 15px&quot;&gt;&lt;b&gt;Faurecia &lt;font style=&quot;font-size: 15px&quot;&gt;Plants&lt;/font&gt;&lt;/b&gt;&lt;/font&gt;" style="text;html=1;align=center;verticalAlign=middle;resizable=0;points=[];autosize=1;strokeColor=none;fillColor=none;fontSize=12;" vertex="1" parent="1">
          <mxGeometry x="950" y="30" width="120" height="20" as="geometry" />
        </mxCell>
        <mxCell id="XeZ66hk8IlVMuvrCLhNz-11" style="edgeStyle=orthogonalEdgeStyle;rounded=0;orthogonalLoop=1;jettySize=auto;html=1;fontSize=15;" edge="1" parent="1" source="XeZ66hk8IlVMuvrCLhNz-10" target="XeZ66hk8IlVMuvrCLhNz-40">
          <mxGeometry relative="1" as="geometry">
            <mxPoint x="690" y="300" as="targetPoint" />
            <Array as="points">
              <mxPoint x="910" y="300" />
              <mxPoint x="910" y="300" />
            </Array>
          </mxGeometry>
        </mxCell>
        <mxCell id="XeZ66hk8IlVMuvrCLhNz-12" value="&lt;font style=&quot;font-size: 14px&quot;&gt;SSO&lt;/font&gt;" style="text;html=1;align=center;verticalAlign=middle;resizable=0;points=[];autosize=1;strokeColor=none;fillColor=none;fontSize=15;" vertex="1" parent="1">
          <mxGeometry x="100" y="256.5" width="40" height="20" as="geometry" />
        </mxCell>
        <mxCell id="XeZ66hk8IlVMuvrCLhNz-15" value="" style="verticalLabelPosition=bottom;html=1;verticalAlign=top;align=center;strokeColor=none;fillColor=#00BEF2;shape=mxgraph.azure.access_control;shadow=0;glass=0;sketch=0;fontSize=14;" vertex="1" parent="1">
          <mxGeometry x="100" y="295" width="35.37" height="40" as="geometry" />
        </mxCell>
        <mxCell id="XeZ66hk8IlVMuvrCLhNz-20" style="edgeStyle=none;rounded=0;orthogonalLoop=1;jettySize=auto;html=1;fontSize=14;" edge="1" parent="1" source="RmzbV9Se9CzawkPMelnc-13" target="XeZ66hk8IlVMuvrCLhNz-40">
          <mxGeometry relative="1" as="geometry">
            <mxPoint x="690" y="320" as="targetPoint" />
          </mxGeometry>
        </mxCell>
        <mxCell id="XeZ66hk8IlVMuvrCLhNz-21" style="edgeStyle=none;rounded=0;orthogonalLoop=1;jettySize=auto;html=1;fontSize=14;" edge="1" parent="1" source="RmzbV9Se9CzawkPMelnc-15" target="XeZ66hk8IlVMuvrCLhNz-40">
          <mxGeometry relative="1" as="geometry" />
        </mxCell>
        <mxCell id="XeZ66hk8IlVMuvrCLhNz-48" value="TC/443" style="edgeLabel;html=1;align=center;verticalAlign=middle;resizable=0;points=[];fontSize=15;" vertex="1" connectable="0" parent="XeZ66hk8IlVMuvrCLhNz-21">
          <mxGeometry x="-0.1348" y="-1" relative="1" as="geometry">
            <mxPoint x="-20" y="-8" as="offset" />
          </mxGeometry>
        </mxCell>
        <mxCell id="XeZ66hk8IlVMuvrCLhNz-28" value="&lt;b&gt;Augsbourg&lt;/b&gt;" style="points=[[0,0],[0.25,0],[0.5,0],[0.75,0],[1,0],[1,0.25],[1,0.5],[1,0.75],[1,1],[0.75,1],[0.5,1],[0.25,1],[0,1],[0,0.75],[0,0.5],[0,0.25]];outlineConnect=0;gradientColor=none;html=1;whiteSpace=wrap;fontSize=12;fontStyle=0;container=1;pointerEvents=0;collapsible=0;recursiveResize=0;shape=mxgraph.aws4.group;grIcon=mxgraph.aws4.group_region;strokeColor=#147EBA;fillColor=none;verticalAlign=top;align=left;spacingLeft=30;fontColor=#147EBA;dashed=1;rounded=1;shadow=0;glass=0;sketch=0;" vertex="1" parent="1">
          <mxGeometry x="-70" y="220" width="130" height="150" as="geometry" />
        </mxCell>
        <mxCell id="RmzbV9Se9CzawkPMelnc-5" value="" style="sketch=0;aspect=fixed;pointerEvents=1;shadow=0;dashed=0;html=1;strokeColor=none;labelPosition=center;verticalLabelPosition=bottom;verticalAlign=top;align=center;fillColor=#7DCAEE;shape=mxgraph.mscae.enterprise.workstation_client" parent="XeZ66hk8IlVMuvrCLhNz-28" vertex="1">
          <mxGeometry x="40.373333333333335" y="31" width="55" height="55" as="geometry" />
        </mxCell>
        <mxCell id="RmzbV9Se9CzawkPMelnc-16" value="" style="shape=image;verticalLabelPosition=bottom;labelBackgroundColor=#ffffff;verticalAlign=top;aspect=fixed;imageAspect=0;image=data:image/svg+xml,PHN2ZyB4bWxuczpjYz0iaHR0cDovL2NyZWF0aXZlY29tbW9ucy5vcmcvbnMjIiB4bWxuczpkYz0iaHR0cDovL3B1cmwub3JnL2RjL2VsZW1lbnRzLzEuMS8iIHhtbG5zOmlua3NjYXBlPSJodHRwOi8vd3d3Lmlua3NjYXBlLm9yZy9uYW1lc3BhY2VzL2lua3NjYXBlIiB4bWxuczpyZGY9Imh0dHA6Ly93d3cudzMub3JnLzE5OTkvMDIvMjItcmRmLXN5bnRheC1ucyMiIHhtbG5zOnNvZGlwb2RpPSJodHRwOi8vc29kaXBvZGkuc291cmNlZm9yZ2UubmV0L0RURC9zb2RpcG9kaS0wLmR0ZCIgeG1sbnM6c3ZnPSJodHRwOi8vd3d3LnczLm9yZy8yMDAwL3N2ZyIgeG1sbnM9Imh0dHA6Ly93d3cudzMub3JnLzIwMDAvc3ZnIiB4bWxuczp4bGluaz0iaHR0cDovL3d3dy53My5vcmcvMTk5OS94bGluayIgdmVyc2lvbj0iMS4xIiBpZD0ic3ZnMTk1MzM4IiBpbmtzY2FwZTp2ZXJzaW9uPSIwLjkyLjMgKDI0MDU1NDYsIDIwMTgtMDMtMTEpIiBzb2RpcG9kaTpkb2NuYW1lPSJweXRob24uc3ZnIiB4PSIwcHgiIHk9IjBweCIgdmlld0JveD0iMCAwIDU1Ljg5IDE2LjIxIiBzdHlsZT0iZW5hYmxlLWJhY2tncm91bmQ6bmV3IDAgMCA1NS44OSAxNi4yMTsiIHhtbDpzcGFjZT0icHJlc2VydmUiPiYjeGE7PHNvZGlwb2RpOm5hbWVkdmlldyBib3JkZXJjb2xvcj0iIzY2NjY2NiIgYm9yZGVyb3BhY2l0eT0iMSIgZml0LW1hcmdpbi1ib3R0b209IjAiIGZpdC1tYXJnaW4tbGVmdD0iMCIgZml0LW1hcmdpbi1yaWdodD0iMCIgZml0LW1hcmdpbi10b3A9IjAiIGdyaWR0b2xlcmFuY2U9IjEwIiBndWlkZXRvbGVyYW5jZT0iMTAiIGlkPSJuYW1lZHZpZXcxOTUzNDAiIGlua3NjYXBlOmN1cnJlbnQtbGF5ZXI9InN2ZzE5NTMzOCIgaW5rc2NhcGU6Y3g9IjMxLjYwOTEzNSIgaW5rc2NhcGU6Y3k9IjMuNjAxMjQxNyIgaW5rc2NhcGU6cGFnZW9wYWNpdHk9IjAiIGlua3NjYXBlOnBhZ2VzaGFkb3c9IjIiIGlua3NjYXBlOndpbmRvdy1oZWlnaHQ9IjEwMTciIGlua3NjYXBlOndpbmRvdy1tYXhpbWl6ZWQ9IjEiIGlua3NjYXBlOndpbmRvdy13aWR0aD0iMTkyMCIgaW5rc2NhcGU6d2luZG93LXg9Ii04IiBpbmtzY2FwZTp3aW5kb3cteT0iLTgiIGlua3NjYXBlOnpvb209IjIwLjI5NDQ3IiBvYmplY3R0b2xlcmFuY2U9IjEwIiBwYWdlY29sb3I9IiNmZmZmZmYiIHNob3dncmlkPSJmYWxzZSI+JiN4YTsJPC9zb2RpcG9kaTpuYW1lZHZpZXc+JiN4YTs8ZyBpZD0ic2hhcGUxMTU2LTIiIHRyYW5zZm9ybT0idHJhbnNsYXRlKDE2LjgyMTczLC0xNS4yNDIxKSI+JiN4YTsJPHRpdGxlIGlkPSJ0aXRsZTE5NTI4NSI+cGF0aDQ2PC90aXRsZT4mI3hhOwk8cGF0aCBpZD0icGF0aDE5NTI4NyIgaW5rc2NhcGU6Y29ubmVjdG9yLWN1cnZhdHVyZT0iMCIgc3R5bGU9ImZpbGw6IzNGNTc2NTsiIGQ9Ik00LjI1LDIyLjE0YzAtMS43MS0wLjQ5LTIuNTktMS40Ny0yLjY0ICAgYy0wLjM4LTAuMDItMC43NiwwLjA1LTEuMTMsMC4xOWMtMC4zLDAuMTEtMC41LDAuMjEtMC42LDAuMzF2NC4xYzAuNjIsMC4zOSwxLjE4LDAuNTcsMS42NiwwLjU0QzMuNzQsMjQuNTcsNC4yNSwyMy43NCw0LjI1LDIyLjE0ICAgeiBNNS40NiwyMi4yMmMwLDAuODctMC4yMSwxLjU5LTAuNjIsMi4xNmMtMC40NiwwLjY1LTEuMDksMC45OS0xLjksMS4wMWMtMC42MSwwLjAyLTEuMjQtMC4xNy0xLjg5LTAuNTh2My43MkwwLDI4LjE2di04LjI1ICAgYzAuMTctMC4yMiwwLjM5LTAuNCwwLjY2LTAuNTVDMS4yOSwxOSwyLjA0LDE4LjgxLDIuOTQsMTguOGwwLjAxLDAuMDFjMC44Mi0wLjAxLDEuNDUsMC4zMywxLjg5LDEuMDEgICBDNS4yNSwyMC40NCw1LjQ2LDIxLjI0LDUuNDYsMjIuMjJ6Ii8+JiN4YTs8L2c+JiN4YTs8ZyBpZD0ic2hhcGUxMTU3LTQiIHRyYW5zZm9ybT0idHJhbnNsYXRlKDIzLjQxNTkzLC0xNS4yNzA3OCkiPiYjeGE7CTx0aXRsZSBpZD0idGl0bGUxOTUyOTAiPnBhdGg0ODwvdGl0bGU+JiN4YTsJPHBhdGggaWQ9InBhdGgxOTUyOTIiIGlua3NjYXBlOmNvbm5lY3Rvci1jdXJ2YXR1cmU9IjAiIHN0eWxlPSJmaWxsOiMzRjU3NjU7IiBkPSJNNS4yNywyNC42OGMwLDEuMTctMC4xMiwxLjk4LTAuMzUsMi40MyAgIGMtMC4yNCwwLjQ1LTAuNjgsMC44MS0xLjM0LDEuMDhjLTAuNTQsMC4yMS0xLjEyLDAuMzItMS43NCwwLjM0bC0wLjE3LTAuNjZDMi4zLDI3Ljc5LDIuNzQsMjcuNywzLDI3LjYxICAgYzAuNTEtMC4xNywwLjg2LTAuNDMsMS4wNS0wLjc5YzAuMTUtMC4yOCwwLjIzLTAuODMsMC4yMy0xLjY1VjI0LjljLTAuNzIsMC4zMy0xLjQ3LDAuNDktMi4yNiwwLjQ5Yy0wLjUxLDAtMC45Ny0wLjE2LTEuMzYtMC40OSAgIEMwLjIyLDI0LjU1LDAsMjQuMSwwLDIzLjU1di00LjM2bDEuMDUtMC4zNnY0LjM5YzAsMC40NywwLjE1LDAuODMsMC40NSwxLjA4YzAuMzEsMC4yNiwwLjcsMC4zOCwxLjE4LDAuMzcgICBjMC40OC0wLjAxLDAuOTktMC4yLDEuNTQtMC41NnYtNS4xMmgxLjA1TDUuMjcsMjQuNjh6Ii8+JiN4YTs8L2c+JiN4YTs8ZyBpZD0ic2hhcGUxMTU4LTYiIHRyYW5zZm9ybT0idHJhbnNsYXRlKDI5LjgzNTYzLC0xOC40MjkwNSkiPiYjeGE7CTx0aXRsZSBpZD0idGl0bGUxOTUyOTUiPnBhdGg1MDwvdGl0bGU+JiN4YTsJPHBhdGggaWQ9InBhdGgxOTUyOTciIGlua3NjYXBlOmNvbm5lY3Rvci1jdXJ2YXR1cmU9IjAiIHN0eWxlPSJmaWxsOiMzRjU3NjU7IiBkPSJNMi45NCwyOC41MmMtMC4xMiwwLjAxLTAuMjQsMC4wMS0wLjM0LDAuMDEgICBjLTAuNTksMC0xLjA2LTAuMTQtMS4zOS0wLjQyYy0wLjMzLTAuMjktMC40OS0wLjY4LTAuNDktMS4xOFYyMi44SDB2LTAuNjZoMC43MnYtMS43NWwxLjA1LTAuMzd2Mi4xMmgxLjE3djAuNjZIMS43N3Y0LjExICAgYzAsMC4zOSwwLjEsMC42NywwLjMxLDAuODNjMC4xOCwwLjEzLDAuNDcsMC4yMSwwLjg2LDAuMjNWMjguNTJ6Ii8+JiN4YTs8L2c+JiN4YTs8ZyBpZD0ic2hhcGUxMTU5LTgiIHRyYW5zZm9ybT0idHJhbnNsYXRlKDM0LjAxNjEzLC0xOC41MykiPiYjeGE7CTx0aXRsZSBpZD0idGl0bGUxOTUzMDAiPnBhdGg1MjwvdGl0bGU+JiN4YTsJPHBhdGggaWQ9InBhdGgxOTUzMDIiIGlua3NjYXBlOmNvbm5lY3Rvci1jdXJ2YXR1cmU9IjAiIHN0eWxlPSJmaWxsOiMzRjU3NjU7IiBkPSJNNS4xMSwyOC41M0g0LjA2di00LjA1ICAgYzAtMC40MS0wLjA5LTAuNzYtMC4yOC0xLjA2Yy0wLjIzLTAuMzMtMC41My0wLjUtMC45My0wLjVjLTAuNDgsMC0xLjA4LDAuMjUtMS44LDAuNzZ2NC44NUgwdi05LjY3bDEuMDUtMC4zM3Y0LjQgICBjMC42Ny0wLjQ4LDEuNC0wLjczLDIuMi0wLjczYzAuNTUsMCwxLDAuMTksMS4zNCwwLjU2YzAuMzUsMC4zNywwLjUyLDAuODQsMC41MiwxLjM5VjI4LjUzeiIvPiYjeGE7PC9nPiYjeGE7PGcgaWQ9InNoYXBlMTE2MC0xMCIgdHJhbnNmb3JtPSJ0cmFuc2xhdGUoNDAuMDkxNzMsLTE4LjQwMDM3KSI+JiN4YTsJPHRpdGxlIGlkPSJ0aXRsZTE5NTMwNSI+cGF0aDU0PC90aXRsZT4mI3hhOwk8cGF0aCBpZD0icGF0aDE5NTMwNyIgaW5rc2NhcGU6Y29ubmVjdG9yLWN1cnZhdHVyZT0iMCIgc3R5bGU9ImZpbGw6IzNGNTc2NTsiIGQ9Ik00LjYxLDI1LjE0YzAtMC42Ni0wLjEzLTEuMi0wLjM3LTEuNjMgICBjLTAuMy0wLjUzLTAuNzYtMC44MS0xLjM4LTAuODNjLTEuMTUsMC4wNi0xLjczLDAuODktMS43MywyLjQ2YzAsMC43MywwLjEyLDEuMzMsMC4zNiwxLjgyYzAuMzEsMC42MiwwLjc3LDAuOTIsMS4zOSwwLjkxICAgQzQuMDMsMjcuODYsNC42MSwyNi45NSw0LjYxLDI1LjE0eiBNNS43NiwyNS4xNGMwLDAuOTQtMC4yNCwxLjcyLTAuNzIsMi4zNGMtMC41MywwLjctMS4yNSwxLjA1LTIuMTgsMS4wNSAgIGMtMC45MiwwLTEuNjQtMC4zNS0yLjE2LTEuMDVDMC4yMywyNi44NiwwLDI2LjA4LDAsMjUuMTRjMC0wLjg4LDAuMjUtMS42MiwwLjc2LTIuMjJDMS4zLDIyLjI4LDIsMjEuOTYsMi44NywyMS45NiAgIFM0LjQ1LDIyLjI4LDUsMjIuOTJDNS41LDIzLjUyLDUuNzYsMjQuMjYsNS43NiwyNS4xNHoiLz4mI3hhOzwvZz4mI3hhOzxnIGlkPSJzaGFwZTExNjEtMTIiIHRyYW5zZm9ybT0idHJhbnNsYXRlKDQ2Ljc5MTQzLC0xOC41MykiPiYjeGE7CTx0aXRsZSBpZD0idGl0bGUxOTUzMTAiPnBhdGg1NjwvdGl0bGU+JiN4YTsJPHBhdGggaWQ9InBhdGgxOTUzMTIiIGlua3NjYXBlOmNvbm5lY3Rvci1jdXJ2YXR1cmU9IjAiIHN0eWxlPSJmaWxsOiMzRjU3NjU7IiBkPSJNNS4wNywyOC41M0g0LjAydi00LjI3ICAgYzAtMC40Ny0wLjE0LTAuODQtMC40Mi0xLjFjLTAuMjgtMC4yNy0wLjY2LTAuMzktMS4xMy0wLjM4Yy0wLjUsMC4wMS0wLjk3LDAuMTctMS40MiwwLjQ4djUuMjdIMHYtNS40ICAgYzAuNi0wLjQzLDEuMTYtMC43MiwxLjY3LTAuODZjMC40Ny0wLjEyLDAuOS0wLjE4LDEuMjYtMC4xOGMwLjI1LDAsMC40OCwwLjAyLDAuNywwLjA3YzAuNDIsMC4wOSwwLjc1LDAuMjcsMS4wMSwwLjUzICAgYzAuMjksMC4yOSwwLjQzLDAuNjMsMC40MywxLjAzTDUuMDcsMjguNTN6Ii8+JiN4YTs8L2c+JiN4YTs8ZyBpZD0ic2hhcGUxMTYyLTE0IiB0cmFuc2Zvcm09InRyYW5zbGF0ZSgtMC4wNzg3NzAzNSwtMTguMzg1NzQpIj4mI3hhOwk8dGl0bGUgaWQ9InRpdGxlMTk1MzE1Ij5wYXRoMTk0ODwvdGl0bGU+JiN4YTsJJiN4YTsJCTxsaW5lYXJHcmFkaWVudCBpZD0icGF0aDE5NTMxN18xXyIgZ3JhZGllbnRVbml0cz0idXNlclNwYWNlT25Vc2UiIHgxPSIxLjQyMzEiIHkxPSIxNC42MTI5IiB4Mj0iMTEuMTU4NiIgeTI9IjE0LjYxMjkiIGdyYWRpZW50VHJhbnNmb3JtPSJtYXRyaXgoMC45OTU1IDAgMCAtMS4wMDQ2IC0xLjMzNzkgMzguMzE5NikiPiYjeGE7CQk8c3RvcCBvZmZzZXQ9IjAiIHN0eWxlPSJzdG9wLWNvbG9yOiM1QTlGRDQiLz4mI3hhOwkJPHN0b3Agb2Zmc2V0PSIxIiBzdHlsZT0ic3RvcC1jb2xvcjojMzA2OTk4Ii8+JiN4YTsJPC9saW5lYXJHcmFkaWVudD4mI3hhOwk8cGF0aCBpZD0icGF0aDE5NTMxNyIgaW5rc2NhcGU6Y29ubmVjdG9yLWN1cnZhdHVyZT0iMCIgc3R5bGU9ImZpbGw6dXJsKCNwYXRoMTk1MzE3XzFfKTsiIGQ9Ik02LjU0LDE4Ljc1ICAgYy0wLjU0LDAtMS4wNSwwLjA1LTEuNSwwLjEzYy0xLjM0LDAuMjQtMS41OCwwLjczLTEuNTgsMS42NHYxLjJoMy4xNXYwLjQxSDMuNDZIMi4yN2MtMC45MSwwLTEuNzIsMC41NS0xLjk3LDEuNTkgICBjLTAuMjksMS4yMS0wLjMsMS45NiwwLDMuMjFjMC4yMywwLjk0LDAuNzYsMS42LDEuNjgsMS42aDEuMDh2LTEuNDRjMC0xLjA0LDAuOTEtMS45NiwxLjk4LTEuOTZoMy4xNWMwLjg4LDAsMS41OC0wLjcyLDEuNTgtMS42ICAgdi0zLjAxYzAtMC44NS0wLjczLTEuNS0xLjU4LTEuNjRDNy42NSwxOC43OSw3LjA4LDE4Ljc1LDYuNTQsMTguNzV6IE00Ljg0LDE5LjcyYzAuMzIsMCwwLjU5LDAuMjcsMC41OSwwLjZzLTAuMjcsMC42LTAuNTksMC42ICAgYy0wLjMzLDAtMC41OS0wLjI3LTAuNTktMC42UzQuNTEsMTkuNzIsNC44NCwxOS43MnoiLz4mI3hhOzwvZz4mI3hhOzxnIGlkPSJzaGFwZTExNjMtMTgiIHRyYW5zZm9ybT0idHJhbnNsYXRlKDMuMzc5NTk5NywtMTQuODMxNjcpIj4mI3hhOwk8dGl0bGUgaWQ9InRpdGxlMTk1MzIwIj5wYXRoMTk1MDwvdGl0bGU+JiN4YTsJJiN4YTsJCTxsaW5lYXJHcmFkaWVudCBpZD0icGF0aDE5NTMyMl8xXyIgZ3JhZGllbnRVbml0cz0idXNlclNwYWNlT25Vc2UiIHgxPSItMS4yMDY0IiB5MT0iMTIuNTI4OCIgeDI9IjguNTczNSIgeTI9IjEyLjUyODgiIGdyYWRpZW50VHJhbnNmb3JtPSJtYXRyaXgoMC45OTIyIDAgMCAtMS4wMDc4IDEuMTk3MSAzNi4xMjU0KSI+JiN4YTsJCTxzdG9wIG9mZnNldD0iMCIgc3R5bGU9InN0b3AtY29sb3I6I0ZGRDQzQiIvPiYjeGE7CQk8c3RvcCBvZmZzZXQ9IjEiIHN0eWxlPSJzdG9wLWNvbG9yOiNGRkU4NzMiLz4mI3hhOwk8L2xpbmVhckdyYWRpZW50PiYjeGE7CTxwYXRoIGlkPSJwYXRoMTk1MzIyIiBpbmtzY2FwZTpjb25uZWN0b3ItY3VydmF0dXJlPSIwIiBzdHlsZT0iZmlsbDp1cmwoI3BhdGgxOTUzMjJfMV8pOyIgZD0iTTYuNywxOC41N3YxLjRjMCwxLjA5LTAuOTIsMi0xLjk3LDIgICBIMS41OEMwLjcxLDIxLjk3LDAsMjIuNzEsMCwyMy41OHYzYzAsMC44NiwwLjc0LDEuMzYsMS41OCwxLjYxYzEsMC4yOSwxLjk1LDAuMzQsMy4xNSwwYzAuNzktMC4yMywxLjU4LTAuNywxLjU4LTEuNjF2LTEuMkgzLjE2ICAgdi0wLjRoMy4xNWgxLjU4YzAuOTEsMCwxLjI1LTAuNjQsMS41Ny0xLjZjMC4zMy0wLjk5LDAuMzItMS45NCwwLTMuMjFjLTAuMjItMC45MS0wLjY2LTEuNi0xLjU3LTEuNkw2LjcsMTguNTd6IE00LjkzLDI2LjE4ICAgYzAuMzMsMCwwLjU5LDAuMjcsMC41OSwwLjZzLTAuMjYsMC42LTAuNTksMC42Yy0wLjMzLDAtMC41OS0wLjI3LTAuNTktMC42UzQuNiwyNi4xOCw0LjkzLDI2LjE4eiIvPiYjeGE7PC9nPiYjeGE7PGcgaWQ9InNoYXBlMTE2NC0yMiIgdHJhbnNmb3JtPSJ0cmFuc2xhdGUoNTMuNDY3MzMsLTI1Ljc1MTU3KSI+JiN4YTsJPHRpdGxlIGlkPSJ0aXRsZTE5NTMyNSI+dGV4dDMwMDQ8L3RpdGxlPiYjeGE7CTxwYXRoIGlkPSJwYXRoMTk1MzI3IiBpbmtzY2FwZTpjb25uZWN0b3ItY3VydmF0dXJlPSIwIiBzdHlsZT0iZmlsbDojM0Y1NzY1OyIgZD0iTTAuNDQsMjguNTNoMC4xOHYtMS4xNWgwLjQzdi0wLjE0SDB2MC4xNGgwLjQ0ICAgVjI4LjUzeiBNMS4yMiwyOC41M2gwLjE1di0xLjA1bDAuMzUsMS4wNWgwLjE3bDAuMzYtMS4wNXYxLjA1aDAuMTd2LTEuMjlIMi4xOUwxLjgsMjguMzVsLTAuMzMtMS4xMUgxLjIyVjI4LjUzeiIvPiYjeGE7PC9nPiYjeGE7PGcgaWQ9InNoYXBlMTE2NS0yNCIgdHJhbnNmb3JtPSJ0cmFuc2xhdGUoMi4zNDIxNzk3LC0xMi4zMTU2NykiPiYjeGE7CTx0aXRsZSBpZD0idGl0bGUxOTUzMzAiPnBhdGgxODk0PC90aXRsZT4mI3hhOwk8cGF0aCBpZD0icGF0aDE5NTMzMiIgaW5rc2NhcGU6Y29ubmVjdG9yLWN1cnZhdHVyZT0iMCIgc3R5bGU9ImZpbGw6IzNGNTc2NTtmaWxsLW9wYWNpdHk6MC40NDsiIGQ9Ik04LjQ2LDI3LjcxICAgYzAsMC40NS0xLjg5LDAuODItNC4yMywwLjgyQzEuOSwyOC41MywwLDI4LjE2LDAsMjcuNzFjMC0wLjQ1LDEuODktMC44Miw0LjIzLTAuODJDNi41NywyNi44OSw4LjQ2LDI3LjI2LDguNDYsMjcuNzF6Ii8+JiN4YTs8L2c+JiN4YTs8L3N2Zz4=;fillColor=#7DCAEE;" parent="XeZ66hk8IlVMuvrCLhNz-28" vertex="1">
          <mxGeometry x="70" y="31" width="50" height="14.29" as="geometry" />
        </mxCell>
        <mxCell id="1ZeLM8tSRtMM1lyIskZu-11" value="&lt;font style=&quot;font-size: 12px&quot;&gt;&lt;b&gt;User&lt;/b&gt;&lt;/font&gt;" style="text;html=1;align=center;verticalAlign=middle;resizable=0;points=[];autosize=1;strokeColor=none;fillColor=none;fontSize=11;" parent="XeZ66hk8IlVMuvrCLhNz-28" vertex="1">
          <mxGeometry x="49.53999999999999" y="100" width="40" height="20" as="geometry" />
        </mxCell>
        <mxCell id="XeZ66hk8IlVMuvrCLhNz-33" value="&lt;font style=&quot;font-size: 16px&quot;&gt;&lt;i&gt;&lt;b&gt;Material Reuse App Architecture&lt;br&gt;&lt;/b&gt;&lt;/i&gt;&lt;/font&gt;" style="text;html=1;align=center;verticalAlign=middle;resizable=0;points=[];autosize=1;strokeColor=none;fillColor=none;fontSize=15;" vertex="1" parent="1">
          <mxGeometry x="355" y="20" width="260" height="20" as="geometry" />
        </mxCell>
        <mxCell id="XeZ66hk8IlVMuvrCLhNz-49" value="TC/443" style="text;html=1;align=center;verticalAlign=middle;resizable=0;points=[];autosize=1;strokeColor=none;fillColor=none;fontSize=15;" vertex="1" parent="1">
          <mxGeometry x="800" y="280" width="60" height="20" as="geometry" />
        </mxCell>
        <mxCell id="XeZ66hk8IlVMuvrCLhNz-50" value="TC/443" style="text;html=1;align=center;verticalAlign=middle;resizable=0;points=[];autosize=1;strokeColor=none;fillColor=none;fontSize=15;" vertex="1" parent="1">
          <mxGeometry x="800" y="370" width="60" height="20" as="geometry" />
        </mxCell>
      </root>
    </mxGraphModel>
  </diagram>
</mxfile>
